{"glyphs":{"0":{"ha":861,"x_min":79,"x_max":782,"o":"m 431 -17 q 165 120 250 -17 q 79 483 79 257 q 165 847 79 710 q 431 983 250 983 q 697 847 611 983 q 782 483 782 710 q 697 120 782 257 q 431 -17 611 -17 m 431 94 q 603 198 556 94 q 650 483 650 301 q 603 769 650 665 q 431 872 556 872 q 258 769 306 872 q 211 483 211 665 q 258 198 211 301 q 431 94 306 94 z "},"1":{"ha":861,"x_min":110,"x_max":751,"o":"m 751 115 l 751 0 l 110 0 l 110 115 l 396 115 l 396 810 l 201 710 l 196 710 l 171 789 l 171 794 l 426 967 l 518 967 l 518 115 l 751 115 z "},"2":{"ha":861,"x_min":110,"x_max":751,"o":"m 751 117 l 751 0 l 110 0 l 110 93 l 457 464 q 567 601 538 550 q 596 703 596 651 q 542 827 596 783 q 389 871 488 871 q 140 793 256 871 l 140 915 q 394 983 256 983 q 567 951 493 983 q 682 858 642 918 q 722 719 722 799 q 687 571 722 646 q 582 425 651 496 l 283 117 l 751 117 z "},"3":{"ha":861,"x_min":110,"x_max":751,"o":"m 571 504 q 703 408 656 471 q 751 261 751 344 q 706 117 751 181 q 577 19 660 54 q 389 -17 494 -17 q 247 3 314 -17 q 110 63 179 22 l 110 190 l 115 190 q 252 119 186 142 q 388 96 318 96 q 558 144 493 96 q 624 271 624 193 q 551 401 624 353 q 354 449 478 449 l 293 449 l 293 558 l 354 558 q 539 599 474 558 q 604 714 604 640 q 547 828 604 786 q 390 869 489 869 q 273 852 331 869 q 144 794 215 835 l 139 794 l 139 915 q 399 983 263 983 q 572 952 497 983 q 688 864 647 921 q 729 732 729 807 q 687 596 729 656 q 571 504 644 536 z "},"4":{"ha":861,"x_min":79,"x_max":813,"o":"m 813 226 l 660 226 l 660 0 l 538 0 l 538 226 l 79 226 l 79 319 l 88 321 l 79 324 l 538 967 l 660 967 l 660 338 l 813 338 l 813 226 m 538 338 l 538 801 l 217 338 l 538 338 z "},"5":{"ha":861,"x_min":110,"x_max":751,"o":"m 453 607 q 607 567 539 607 q 713 455 675 526 q 751 296 751 383 q 708 133 751 203 q 586 24 665 63 q 403 -15 507 -15 q 246 8 322 -15 q 110 74 169 31 l 110 206 l 115 206 q 251 126 172 157 q 401 96 329 96 q 563 152 500 96 q 625 300 625 208 q 570 441 625 386 q 428 496 515 496 q 236 422 326 496 l 231 422 l 140 460 l 140 467 l 201 967 l 706 967 l 706 853 l 299 853 l 263 556 q 453 607 357 607 z "},"6":{"ha":861,"x_min":79,"x_max":782,"o":"m 460 596 q 628 559 556 596 q 742 456 701 522 q 782 301 782 389 q 738 136 782 208 q 617 24 694 64 q 440 -17 539 -17 q 174 108 268 -17 q 79 458 79 233 q 128 739 79 621 q 268 920 176 857 q 483 983 360 983 q 615 965 550 983 q 736 914 679 947 l 736 792 l 731 792 q 613 853 674 832 q 492 874 551 874 q 293 778 365 874 q 213 504 221 682 q 328 574 269 551 q 460 596 388 596 m 438 93 q 547 119 497 93 q 624 193 596 146 q 651 299 651 240 q 595 434 651 383 q 447 485 539 485 q 213 400 333 485 q 279 172 222 250 q 438 93 336 93 z "},"7":{"ha":861,"x_min":110,"x_max":782,"o":"m 782 967 l 782 874 l 357 0 l 217 0 l 217 6 l 647 853 l 110 853 l 110 967 l 782 967 z "},"8":{"ha":861,"x_min":79,"x_max":782,"o":"m 432 -17 q 250 19 331 -17 q 124 120 169 56 q 79 265 79 185 q 124 410 79 347 q 239 497 168 472 q 136 581 175 519 q 97 719 97 643 q 140 858 97 799 q 259 951 183 918 q 431 983 335 983 q 602 951 526 983 q 721 858 678 918 q 764 719 764 799 q 726 583 764 644 q 621 497 688 521 q 740 408 697 471 q 782 265 782 344 q 737 119 782 183 q 612 19 692 56 q 432 -17 532 -17 m 432 556 q 585 598 531 556 q 639 717 639 640 q 585 835 639 793 q 431 876 531 876 q 276 835 331 876 q 222 717 222 793 q 277 598 222 640 q 432 556 332 556 m 429 92 q 596 137 538 92 q 654 265 654 182 q 596 396 654 350 q 431 442 538 442 q 265 396 324 442 q 207 265 207 350 q 265 137 207 182 q 429 92 322 92 z "},"9":{"ha":861,"x_min":79,"x_max":782,"o":"m 424 983 q 692 863 601 983 q 782 507 782 742 q 677 117 782 250 q 369 -17 572 -17 q 242 1 299 -17 q 125 58 185 18 l 125 183 l 131 183 q 379 97 244 97 q 576 184 510 97 q 649 454 642 271 q 401 371 543 371 q 165 449 251 371 q 79 665 79 528 q 122 833 79 761 q 242 944 164 906 q 424 983 321 983 m 210 671 q 265 532 210 582 q 418 482 321 482 q 649 565 536 482 q 586 797 640 724 q 425 871 532 871 q 269 816 328 871 q 210 671 210 761 z "},"\r":{"ha":389,"x_min":0,"x_max":0,"o":""}," ":{"ha":389,"x_min":0,"x_max":0,"o":""},"A":{"ha":1028,"x_min":57,"x_max":971,"o":"m 743 256 l 278 256 l 179 0 l 57 0 l 429 967 l 599 967 l 971 0 l 842 0 l 743 256 m 703 360 l 511 860 l 318 360 l 703 360 z "},"Á":{"ha":1028,"x_min":57,"x_max":971,"o":"m 743 256 l 278 256 l 179 0 l 57 0 l 429 967 l 599 967 l 971 0 l 842 0 l 743 256 m 703 360 l 511 860 l 318 360 l 703 360 m 618 1290 l 774 1290 l 579 1086 l 467 1086 l 618 1290 z "},"Ă":{"ha":1028,"x_min":57,"x_max":971,"o":"m 743 256 l 278 256 l 179 0 l 57 0 l 429 967 l 599 967 l 971 0 l 842 0 l 743 256 m 703 360 l 511 860 l 318 360 l 703 360 m 514 1111 q 371 1156 426 1111 q 315 1289 315 1200 l 399 1289 q 429 1216 399 1240 q 514 1192 460 1192 q 599 1216 568 1192 q 629 1289 629 1240 l 713 1289 q 657 1156 713 1200 q 514 1111 601 1111 z "},"Â":{"ha":1028,"x_min":57,"x_max":971,"o":"m 743 256 l 278 256 l 179 0 l 57 0 l 429 967 l 599 967 l 971 0 l 842 0 l 743 256 m 703 360 l 511 860 l 318 360 l 703 360 m 440 1289 l 588 1289 l 718 1071 l 611 1071 l 513 1204 l 417 1071 l 310 1071 l 440 1289 z "},"Ȁ":{"ha":1028,"x_min":57,"x_max":971,"o":"m 743 256 l 278 256 l 179 0 l 57 0 l 429 967 l 599 967 l 971 0 l 842 0 l 743 256 m 703 360 l 511 860 l 318 360 l 703 360 m 193 1289 l 342 1289 l 458 1071 l 346 1071 l 193 1289 m 436 1289 l 585 1289 l 701 1071 l 589 1071 l 436 1289 z "},"Ä":{"ha":1028,"x_min":57,"x_max":971,"o":"m 743 256 l 278 256 l 179 0 l 57 0 l 429 967 l 599 967 l 971 0 l 842 0 l 743 256 m 703 360 l 511 860 l 318 360 l 703 360 m 381 1090 q 324 1113 346 1090 q 303 1169 303 1135 q 324 1226 303 1204 q 381 1249 346 1249 q 437 1226 415 1249 q 458 1169 458 1204 q 437 1113 458 1135 q 381 1090 415 1090 m 647 1090 q 591 1113 613 1090 q 569 1169 569 1135 q 591 1226 569 1204 q 647 1249 613 1249 q 703 1226 682 1249 q 725 1169 725 1204 q 703 1113 725 1135 q 647 1090 682 1090 z "},"À":{"ha":1028,"x_min":57,"x_max":971,"o":"m 743 256 l 278 256 l 179 0 l 57 0 l 429 967 l 599 967 l 971 0 l 842 0 l 743 256 m 703 360 l 511 860 l 318 360 l 703 360 m 449 1086 l 254 1290 l 410 1290 l 561 1086 l 449 1086 z "},"Ȃ":{"ha":1028,"x_min":57,"x_max":971,"o":"m 743 256 l 278 256 l 179 0 l 57 0 l 429 967 l 599 967 l 971 0 l 842 0 l 743 256 m 703 360 l 511 860 l 318 360 l 703 360 m 315 1111 q 371 1244 315 1200 q 514 1289 426 1289 q 657 1244 601 1289 q 713 1111 713 1200 l 629 1111 q 599 1184 629 1160 q 514 1208 568 1208 q 429 1184 460 1208 q 399 1111 399 1160 l 315 1111 z "},"Ā":{"ha":1028,"x_min":57,"x_max":971,"o":"m 743 256 l 278 256 l 179 0 l 57 0 l 429 967 l 599 967 l 971 0 l 842 0 l 743 256 m 703 360 l 511 860 l 318 360 l 703 360 m 724 1226 l 724 1129 l 304 1129 l 304 1226 l 724 1226 z "},"Ą":{"ha":1028,"x_min":57,"x_max":971,"o":"m 878 -225 q 921 -215 897 -225 q 965 -187 944 -204 l 971 -187 l 971 -275 q 865 -310 924 -310 q 773 -276 811 -310 q 735 -181 735 -242 q 764 -78 735 -126 q 842 1 793 -31 l 743 256 l 278 256 l 179 0 l 57 0 l 429 967 l 599 967 l 971 0 q 919 -37 964 -6 q 853 -102 875 -69 q 832 -169 832 -135 q 878 -225 832 -225 m 703 360 l 511 860 l 318 360 l 703 360 z "},"Å":{"ha":1028,"x_min":57,"x_max":971,"o":"m 743 256 l 278 256 l 179 0 l 57 0 l 429 967 l 599 967 l 971 0 l 842 0 l 743 256 m 703 360 l 511 860 l 318 360 l 703 360 m 376 1151 q 415 1251 376 1214 q 514 1289 453 1289 q 613 1251 575 1289 q 651 1151 651 1214 q 613 1051 651 1089 q 514 1014 575 1014 q 415 1051 453 1014 q 376 1151 376 1089 m 447 1153 q 465 1101 447 1119 q 514 1082 482 1082 q 562 1101 544 1082 q 579 1153 579 1119 q 563 1201 579 1185 q 514 1218 546 1218 q 465 1201 482 1218 q 447 1153 447 1185 z "},"Ǻ":{"ha":1028,"x_min":57,"x_max":971,"o":"m 743 256 l 278 256 l 179 0 l 57 0 l 418 936 q 376 1039 376 974 q 409 1133 376 1096 q 496 1175 442 1169 l 536 1289 l 644 1289 l 576 1164 q 632 1116 613 1149 q 651 1039 651 1083 q 610 936 651 974 l 971 0 l 842 0 l 743 256 m 514 1106 q 465 1089 482 1106 q 447 1040 447 1072 q 465 988 447 1007 q 514 969 482 969 q 562 988 544 969 q 579 1040 579 1007 q 563 1089 579 1072 q 514 1106 546 1106 m 703 360 l 511 860 l 318 360 l 703 360 z "},"Ã":{"ha":1028,"x_min":57,"x_max":971,"o":"m 743 256 l 278 256 l 179 0 l 57 0 l 429 967 l 599 967 l 971 0 l 842 0 l 743 256 m 703 360 l 511 860 l 318 360 l 703 360 m 610 1093 q 560 1102 583 1093 q 507 1128 538 1111 q 453 1153 472 1146 q 411 1160 435 1160 q 285 1093 346 1160 l 285 1189 q 418 1263 349 1263 q 467 1253 444 1263 q 521 1228 490 1244 q 574 1203 556 1210 q 617 1196 593 1196 q 743 1247 682 1196 l 743 1151 q 610 1093 679 1093 z "},"Æ":{"ha":1361,"x_min":57,"x_max":1222,"o":"m 317 242 l 190 0 l 57 0 l 558 967 l 1222 967 l 1222 850 l 775 850 l 775 544 l 1192 544 l 1192 433 l 775 433 l 775 117 l 1222 117 l 1222 0 l 653 0 l 653 242 l 317 242 m 653 885 l 371 346 l 653 346 l 653 885 z "},"Ǽ":{"ha":1361,"x_min":57,"x_max":1222,"o":"m 317 242 l 190 0 l 57 0 l 558 967 l 1222 967 l 1222 850 l 775 850 l 775 544 l 1192 544 l 1192 433 l 775 433 l 775 117 l 1222 117 l 1222 0 l 653 0 l 653 242 l 317 242 m 653 885 l 371 346 l 653 346 l 653 885 m 935 1290 l 1090 1290 l 896 1086 l 783 1086 l 935 1290 z "},"B":{"ha":972,"x_min":174,"x_max":851,"o":"m 713 503 q 851 271 851 443 q 763 65 851 131 q 513 0 674 0 l 174 0 l 174 967 l 522 967 q 742 904 664 967 q 819 714 819 842 q 713 503 819 568 m 296 850 l 296 551 l 507 551 q 645 586 603 551 q 688 708 688 621 q 645 819 688 789 q 507 850 603 850 l 296 850 m 513 117 q 671 150 622 117 q 719 276 719 183 q 670 403 719 369 q 510 436 621 436 l 296 436 l 296 117 l 513 117 z "},"C":{"ha":1000,"x_min":140,"x_max":851,"o":"m 575 -17 q 337 46 435 -17 q 190 221 239 108 q 140 483 140 333 q 190 746 140 633 q 337 921 239 858 q 575 983 435 983 q 722 965 651 983 q 851 910 793 946 l 851 771 l 846 771 q 731 842 800 815 q 579 869 661 869 q 347 767 421 869 q 272 483 272 664 q 347 199 272 301 q 578 96 421 96 q 727 122 657 96 q 846 196 797 149 l 851 196 l 851 57 q 722 2 793 21 q 575 -17 651 -17 z "},"Ć":{"ha":1000,"x_min":140,"x_max":851,"o":"m 575 -17 q 337 46 435 -17 q 190 221 239 108 q 140 483 140 333 q 190 746 140 633 q 337 921 239 858 q 575 983 435 983 q 722 965 651 983 q 851 910 793 946 l 851 771 l 846 771 q 731 842 800 815 q 579 869 661 869 q 347 767 421 869 q 272 483 272 664 q 347 199 272 301 q 578 96 421 96 q 727 122 657 96 q 846 196 797 149 l 851 196 l 851 57 q 722 2 793 21 q 575 -17 651 -17 m 679 1290 l 835 1290 l 640 1086 l 528 1086 l 679 1290 z "},"Č":{"ha":1000,"x_min":140,"x_max":851,"o":"m 575 -17 q 337 46 435 -17 q 190 221 239 108 q 140 483 140 333 q 190 746 140 633 q 337 921 239 858 q 575 983 435 983 q 722 965 651 983 q 851 910 793 946 l 851 771 l 846 771 q 731 842 800 815 q 579 869 661 869 q 347 767 421 869 q 272 483 272 664 q 347 199 272 301 q 578 96 421 96 q 727 122 657 96 q 846 196 797 149 l 851 196 l 851 57 q 722 2 793 21 q 575 -17 651 -17 m 478 1289 l 574 1156 l 672 1289 l 779 1289 l 649 1071 l 501 1071 l 371 1289 l 478 1289 z "},"Ç":{"ha":1000,"x_min":140,"x_max":851,"o":"m 579 869 q 347 767 421 869 q 272 483 272 664 q 347 199 272 301 q 578 96 421 96 q 727 122 657 96 q 846 196 797 149 l 851 196 l 851 57 q 643 -12 761 0 q 710 -190 710 -110 q 663 -300 710 -261 q 546 -339 615 -339 q 417 -303 483 -339 l 417 -221 l 422 -221 q 536 -256 485 -256 q 611 -182 611 -256 q 592 -102 611 -146 q 533 -15 572 -58 q 242 132 343 -1 q 140 483 140 265 q 190 746 140 633 q 337 921 239 858 q 575 983 435 983 q 722 965 651 983 q 851 910 793 946 l 851 771 l 846 771 q 731 842 800 815 q 579 869 661 869 z "},"Ĉ":{"ha":1000,"x_min":140,"x_max":851,"o":"m 575 -17 q 337 46 435 -17 q 190 221 239 108 q 140 483 140 333 q 190 746 140 633 q 337 921 239 858 q 575 983 435 983 q 722 965 651 983 q 851 910 793 946 l 851 771 l 846 771 q 731 842 800 815 q 579 869 661 869 q 347 767 421 869 q 272 483 272 664 q 347 199 272 301 q 578 96 421 96 q 727 122 657 96 q 846 196 797 149 l 851 196 l 851 57 q 722 2 793 21 q 575 -17 651 -17 m 501 1289 l 649 1289 l 779 1071 l 672 1071 l 574 1204 l 478 1071 l 371 1071 l 501 1289 z "},"Ċ":{"ha":1000,"x_min":140,"x_max":851,"o":"m 575 -17 q 337 46 435 -17 q 190 221 239 108 q 140 483 140 333 q 190 746 140 633 q 337 921 239 858 q 575 983 435 983 q 722 965 651 983 q 851 910 793 946 l 851 771 l 846 771 q 731 842 800 815 q 579 869 661 869 q 347 767 421 869 q 272 483 272 664 q 347 199 272 301 q 578 96 421 96 q 727 122 657 96 q 846 196 797 149 l 851 196 l 851 57 q 722 2 793 21 q 575 -17 651 -17 m 575 1083 q 512 1108 536 1083 q 488 1172 488 1133 q 512 1236 488 1211 q 575 1261 536 1261 q 638 1236 614 1261 q 663 1172 663 1211 q 638 1108 663 1133 q 575 1083 614 1083 z "},"D":{"ha":1083,"x_min":174,"x_max":943,"o":"m 500 967 q 829 839 715 967 q 943 483 943 711 q 829 128 943 256 q 500 0 715 0 l 174 0 l 174 967 l 500 967 m 510 117 q 735 215 660 117 q 811 483 811 313 q 735 752 811 654 q 510 850 660 850 l 296 850 l 296 117 l 510 117 z "},"Ǳ":{"ha":2000,"x_min":174,"x_max":1881,"o":"m 500 967 q 829 839 715 967 q 943 483 943 711 q 829 128 943 256 q 500 0 715 0 l 174 0 l 174 967 l 500 967 m 510 117 q 735 215 660 117 q 811 483 811 313 q 735 752 811 654 q 510 850 660 850 l 296 850 l 296 117 l 510 117 m 1881 106 l 1881 0 l 1203 0 l 1203 90 l 1699 861 l 1232 861 l 1232 967 l 1851 967 l 1851 876 l 1358 106 l 1881 106 z "},"Ǆ":{"ha":2000,"x_min":174,"x_max":1881,"o":"m 500 967 q 829 839 715 967 q 943 483 943 711 q 829 128 943 256 q 500 0 715 0 l 174 0 l 174 967 l 500 967 m 510 117 q 735 215 660 117 q 811 483 811 313 q 735 752 811 654 q 510 850 660 850 l 296 850 l 296 117 l 510 117 m 1881 106 l 1881 0 l 1203 0 l 1203 90 l 1699 861 l 1232 861 l 1232 967 l 1851 967 l 1851 876 l 1358 106 l 1881 106 m 1444 1289 l 1540 1156 l 1639 1289 l 1746 1289 l 1615 1071 l 1468 1071 l 1338 1289 l 1444 1289 z "},"Ð":{"ha":1083,"x_min":63,"x_max":943,"o":"m 500 967 q 829 839 715 967 q 943 483 943 711 q 829 128 943 256 q 500 0 715 0 l 174 0 l 174 431 l 63 431 l 63 536 l 174 536 l 174 967 l 500 967 m 510 117 q 735 215 660 117 q 811 483 811 313 q 735 752 811 654 q 510 850 660 850 l 296 850 l 296 536 l 451 536 l 451 431 l 296 431 l 296 117 l 510 117 z "},"Ď":{"ha":1083,"x_min":174,"x_max":943,"o":"m 500 967 q 829 839 715 967 q 943 483 943 711 q 829 128 943 256 q 500 0 715 0 l 174 0 l 174 967 l 500 967 m 510 117 q 735 215 660 117 q 811 483 811 313 q 735 752 811 654 q 510 850 660 850 l 296 850 l 296 117 l 510 117 m 444 1289 l 540 1156 l 639 1289 l 746 1289 l 615 1071 l 468 1071 l 338 1289 l 444 1289 z "},"Đ":{"ha":1083,"x_min":63,"x_max":943,"o":"m 500 967 q 829 839 715 967 q 943 483 943 711 q 829 128 943 256 q 500 0 715 0 l 174 0 l 174 431 l 63 431 l 63 536 l 174 536 l 174 967 l 500 967 m 510 117 q 735 215 660 117 q 811 483 811 313 q 735 752 811 654 q 510 850 660 850 l 296 850 l 296 536 l 451 536 l 451 431 l 296 431 l 296 117 l 510 117 z "},"Ḍ":{"ha":1083,"x_min":174,"x_max":943,"o":"m 500 967 q 829 839 715 967 q 943 483 943 711 q 829 128 943 256 q 500 0 715 0 l 174 0 l 174 967 l 500 967 m 510 117 q 735 215 660 117 q 811 483 811 313 q 735 752 811 654 q 510 850 660 850 l 296 850 l 296 117 l 510 117 m 542 -340 q 485 -318 507 -340 q 464 -261 464 -296 q 485 -204 464 -226 q 542 -182 507 -182 q 598 -204 576 -182 q 619 -261 619 -226 q 598 -318 619 -296 q 542 -340 576 -340 z "},"ǲ":{"ha":1806,"x_min":174,"x_max":1751,"o":"m 500 967 q 829 839 715 967 q 943 483 943 711 q 829 128 943 256 q 500 0 715 0 l 174 0 l 174 967 l 500 967 m 510 117 q 735 215 660 117 q 811 483 811 313 q 735 752 811 654 q 510 850 660 850 l 296 850 l 296 117 l 510 117 m 1751 96 l 1751 0 l 1138 0 l 1138 82 l 1565 629 l 1168 629 l 1168 725 l 1721 725 l 1721 643 l 1294 96 l 1751 96 z "},"ǅ":{"ha":1806,"x_min":174,"x_max":1751,"o":"m 500 967 q 829 839 715 967 q 943 483 943 711 q 829 128 943 256 q 500 0 715 0 l 174 0 l 174 967 l 500 967 m 510 117 q 735 215 660 117 q 811 483 811 313 q 735 752 811 654 q 510 850 660 850 l 296 850 l 296 117 l 510 117 m 1751 96 l 1751 0 l 1138 0 l 1138 82 l 1565 629 l 1168 629 l 1168 725 l 1721 725 l 1721 643 l 1294 96 l 1751 96 m 1347 1086 l 1443 953 l 1542 1086 l 1649 1086 l 1518 868 l 1371 868 l 1240 1086 l 1347 1086 z "},"E":{"ha":889,"x_min":174,"x_max":750,"o":"m 296 850 l 296 544 l 719 544 l 719 433 l 296 433 l 296 117 l 750 117 l 750 0 l 174 0 l 174 967 l 750 967 l 750 850 l 296 850 z "},"É":{"ha":889,"x_min":174,"x_max":750,"o":"m 296 850 l 296 544 l 719 544 l 719 433 l 296 433 l 296 117 l 750 117 l 750 0 l 174 0 l 174 967 l 750 967 l 750 850 l 296 850 m 575 1290 l 731 1290 l 536 1086 l 424 1086 l 575 1290 z "},"Ĕ":{"ha":889,"x_min":174,"x_max":750,"o":"m 296 850 l 296 544 l 719 544 l 719 433 l 296 433 l 296 117 l 750 117 l 750 0 l 174 0 l 174 967 l 750 967 l 750 850 l 296 850 m 471 1111 q 328 1156 383 1111 q 272 1289 272 1200 l 356 1289 q 386 1216 356 1240 q 471 1192 417 1192 q 556 1216 525 1192 q 586 1289 586 1240 l 669 1289 q 614 1156 669 1200 q 471 1111 558 1111 z "},"Ě":{"ha":889,"x_min":174,"x_max":750,"o":"m 296 850 l 296 544 l 719 544 l 719 433 l 296 433 l 296 117 l 750 117 l 750 0 l 174 0 l 174 967 l 750 967 l 750 850 l 296 850 m 374 1289 l 469 1156 l 568 1289 l 675 1289 l 544 1071 l 397 1071 l 267 1289 l 374 1289 z "},"Ê":{"ha":889,"x_min":174,"x_max":750,"o":"m 296 850 l 296 544 l 719 544 l 719 433 l 296 433 l 296 117 l 750 117 l 750 0 l 174 0 l 174 967 l 750 967 l 750 850 l 296 850 m 397 1289 l 544 1289 l 675 1071 l 568 1071 l 469 1204 l 374 1071 l 267 1071 l 397 1289 z "},"Ȅ":{"ha":889,"x_min":150,"x_max":750,"o":"m 296 850 l 296 544 l 719 544 l 719 433 l 296 433 l 296 117 l 750 117 l 750 0 l 174 0 l 174 967 l 750 967 l 750 850 l 296 850 m 150 1289 l 299 1289 l 415 1071 l 303 1071 l 150 1289 m 393 1289 l 542 1289 l 658 1071 l 546 1071 l 393 1289 z "},"Ë":{"ha":889,"x_min":174,"x_max":750,"o":"m 296 850 l 296 544 l 719 544 l 719 433 l 296 433 l 296 117 l 750 117 l 750 0 l 174 0 l 174 967 l 750 967 l 750 850 l 296 850 m 338 1090 q 281 1113 303 1090 q 260 1169 260 1135 q 281 1226 260 1204 q 338 1249 303 1249 q 394 1226 372 1249 q 415 1169 415 1204 q 394 1113 415 1135 q 338 1090 372 1090 m 604 1090 q 548 1113 569 1090 q 526 1169 526 1135 q 548 1226 526 1204 q 604 1249 569 1249 q 660 1226 639 1249 q 682 1169 682 1204 q 660 1113 682 1135 q 604 1090 639 1090 z "},"Ė":{"ha":889,"x_min":174,"x_max":750,"o":"m 296 850 l 296 544 l 719 544 l 719 433 l 296 433 l 296 117 l 750 117 l 750 0 l 174 0 l 174 967 l 750 967 l 750 850 l 296 850 m 471 1083 q 408 1108 432 1083 q 383 1172 383 1133 q 408 1236 383 1211 q 471 1261 432 1261 q 534 1236 510 1261 q 558 1172 558 1211 q 534 1108 558 1133 q 471 1083 510 1083 z "},"Ẹ":{"ha":889,"x_min":174,"x_max":750,"o":"m 296 850 l 296 544 l 719 544 l 719 433 l 296 433 l 296 117 l 750 117 l 750 0 l 174 0 l 174 967 l 750 967 l 750 850 l 296 850 m 444 -340 q 388 -318 410 -340 q 367 -261 367 -296 q 388 -204 367 -226 q 444 -182 410 -182 q 501 -204 479 -182 q 522 -261 522 -226 q 501 -318 522 -296 q 444 -340 479 -340 z "},"È":{"ha":889,"x_min":174,"x_max":750,"o":"m 296 850 l 296 544 l 719 544 l 719 433 l 296 433 l 296 117 l 750 117 l 750 0 l 174 0 l 174 967 l 750 967 l 750 850 l 296 850 m 406 1086 l 211 1290 l 367 1290 l 518 1086 l 406 1086 z "},"Ȇ":{"ha":889,"x_min":174,"x_max":750,"o":"m 296 850 l 296 544 l 719 544 l 719 433 l 296 433 l 296 117 l 750 117 l 750 0 l 174 0 l 174 967 l 750 967 l 750 850 l 296 850 m 272 1111 q 328 1244 272 1200 q 471 1289 383 1289 q 614 1244 558 1289 q 669 1111 669 1200 l 586 1111 q 556 1184 586 1160 q 471 1208 525 1208 q 386 1184 417 1208 q 356 1111 356 1160 l 272 1111 z "},"Ē":{"ha":889,"x_min":174,"x_max":750,"o":"m 296 850 l 296 544 l 719 544 l 719 433 l 296 433 l 296 117 l 750 117 l 750 0 l 174 0 l 174 967 l 750 967 l 750 850 l 296 850 m 681 1226 l 681 1129 l 261 1129 l 261 1226 l 681 1226 z "},"Ę":{"ha":889,"x_min":174,"x_max":750,"o":"m 296 850 l 296 544 l 719 544 l 719 433 l 296 433 l 296 117 l 750 117 l 750 0 q 699 -37 743 -6 q 633 -102 654 -69 q 611 -169 611 -135 q 657 -225 611 -225 q 700 -215 676 -225 q 744 -187 724 -204 l 750 -187 l 750 -275 q 644 -310 703 -310 q 552 -276 590 -310 q 514 -181 514 -242 q 542 -80 514 -128 q 618 0 571 -32 l 174 0 l 174 967 l 750 967 l 750 850 l 296 850 z "},"Ẽ":{"ha":889,"x_min":174,"x_max":750,"o":"m 296 850 l 296 544 l 719 544 l 719 433 l 296 433 l 296 117 l 750 117 l 750 0 l 174 0 l 174 967 l 750 967 l 750 850 l 296 850 m 567 1093 q 517 1102 540 1093 q 464 1128 494 1111 q 410 1153 429 1146 q 368 1160 392 1160 q 242 1093 303 1160 l 242 1189 q 375 1263 306 1263 q 424 1253 401 1263 q 478 1228 447 1244 q 531 1203 513 1210 q 574 1196 550 1196 q 700 1247 639 1196 l 700 1151 q 567 1093 636 1093 z "},"F":{"ha":833,"x_min":174,"x_max":738,"o":"m 296 850 l 296 528 l 646 528 l 646 417 l 296 417 l 296 0 l 174 0 l 174 967 l 738 967 l 738 850 l 296 850 z "},"G":{"ha":1083,"x_min":140,"x_max":924,"o":"m 140 482 q 193 745 140 632 q 349 921 246 858 q 599 983 453 983 q 756 963 682 983 q 886 908 829 943 l 885 771 l 879 771 q 751 845 825 818 q 594 872 676 872 q 352 767 432 872 q 272 482 272 663 q 351 199 272 303 q 588 94 429 94 q 707 112 653 94 q 801 161 761 129 l 801 368 l 597 368 l 597 475 l 924 475 l 924 97 q 760 12 838 40 q 586 -17 683 -17 q 344 46 444 -17 q 192 221 243 108 q 140 482 140 333 z "},"Ǵ":{"ha":1083,"x_min":140,"x_max":924,"o":"m 140 482 q 193 745 140 632 q 349 921 246 858 q 599 983 453 983 q 756 963 682 983 q 886 908 829 943 l 885 771 l 879 771 q 751 845 825 818 q 594 872 676 872 q 352 767 432 872 q 272 482 272 663 q 351 199 272 303 q 588 94 429 94 q 707 112 653 94 q 801 161 761 129 l 801 368 l 597 368 l 597 475 l 924 475 l 924 97 q 760 12 838 40 q 586 -17 683 -17 q 344 46 444 -17 q 192 221 243 108 q 140 482 140 333 m 699 1290 l 854 1290 l 660 1086 l 547 1086 l 699 1290 z "},"Ğ":{"ha":1083,"x_min":140,"x_max":924,"o":"m 140 482 q 193 745 140 632 q 349 921 246 858 q 599 983 453 983 q 756 963 682 983 q 886 908 829 943 l 885 771 l 879 771 q 751 845 825 818 q 594 872 676 872 q 352 767 432 872 q 272 482 272 663 q 351 199 272 303 q 588 94 429 94 q 707 112 653 94 q 801 161 761 129 l 801 368 l 597 368 l 597 475 l 924 475 l 924 97 q 760 12 838 40 q 586 -17 683 -17 q 344 46 444 -17 q 192 221 243 108 q 140 482 140 333 m 594 1111 q 451 1156 507 1111 q 396 1289 396 1200 l 479 1289 q 510 1216 479 1240 q 594 1192 540 1192 q 679 1216 649 1192 q 710 1289 710 1240 l 793 1289 q 738 1156 793 1200 q 594 1111 682 1111 z "},"Ĝ":{"ha":1083,"x_min":140,"x_max":924,"o":"m 140 482 q 193 745 140 632 q 349 921 246 858 q 599 983 453 983 q 756 963 682 983 q 886 908 829 943 l 885 771 l 879 771 q 751 845 825 818 q 594 872 676 872 q 352 767 432 872 q 272 482 272 663 q 351 199 272 303 q 588 94 429 94 q 707 112 653 94 q 801 161 761 129 l 801 368 l 597 368 l 597 475 l 924 475 l 924 97 q 760 12 838 40 q 586 -17 683 -17 q 344 46 444 -17 q 192 221 243 108 q 140 482 140 333 m 521 1289 l 668 1289 l 799 1071 l 692 1071 l 593 1204 l 497 1071 l 390 1071 l 521 1289 z "},"Ģ":{"ha":1083,"x_min":140,"x_max":924,"o":"m 140 482 q 193 745 140 632 q 349 921 246 858 q 599 983 453 983 q 756 963 682 983 q 886 908 829 943 l 885 771 l 879 771 q 751 845 825 818 q 594 872 676 872 q 352 767 432 872 q 272 482 272 663 q 351 199 272 303 q 588 94 429 94 q 707 112 653 94 q 801 161 761 129 l 801 368 l 597 368 l 597 475 l 924 475 l 924 97 q 760 12 838 40 q 586 -17 683 -17 q 344 46 444 -17 q 192 221 243 108 q 140 482 140 333 m 606 -96 q 610 -146 610 -119 q 594 -247 610 -194 q 547 -350 578 -300 l 446 -350 q 497 -165 497 -269 q 492 -96 497 -124 l 606 -96 z "},"Ġ":{"ha":1083,"x_min":140,"x_max":924,"o":"m 140 482 q 193 745 140 632 q 349 921 246 858 q 599 983 453 983 q 756 963 682 983 q 886 908 829 943 l 885 771 l 879 771 q 751 845 825 818 q 594 872 676 872 q 352 767 432 872 q 272 482 272 663 q 351 199 272 303 q 588 94 429 94 q 707 112 653 94 q 801 161 761 129 l 801 368 l 597 368 l 597 475 l 924 475 l 924 97 q 760 12 838 40 q 586 -17 683 -17 q 344 46 444 -17 q 192 221 243 108 q 140 482 140 333 m 594 1083 q 531 1108 556 1083 q 507 1172 507 1133 q 531 1236 507 1211 q 594 1261 556 1261 q 658 1236 633 1261 q 682 1172 682 1211 q 658 1108 682 1133 q 594 1083 633 1083 z "},"H":{"ha":1111,"x_min":174,"x_max":938,"o":"m 938 967 l 938 0 l 815 0 l 815 447 l 296 447 l 296 0 l 174 0 l 174 967 l 296 967 l 296 561 l 815 561 l 815 967 l 938 967 z "},"Ħ":{"ha":1111,"x_min":69,"x_max":1042,"o":"m 1042 694 l 938 694 l 938 0 l 815 0 l 815 447 l 296 447 l 296 0 l 174 0 l 174 694 l 69 694 l 69 800 l 174 800 l 174 967 l 296 967 l 296 800 l 815 800 l 815 967 l 938 967 l 938 800 l 1042 800 l 1042 694 m 815 694 l 296 694 l 296 561 l 815 561 l 815 694 z "},"Ĥ":{"ha":1111,"x_min":174,"x_max":938,"o":"m 938 967 l 938 0 l 815 0 l 815 447 l 296 447 l 296 0 l 174 0 l 174 967 l 296 967 l 296 561 l 815 561 l 815 967 l 938 967 m 482 1289 l 629 1289 l 760 1071 l 653 1071 l 554 1204 l 458 1071 l 351 1071 l 482 1289 z "},"Ḥ":{"ha":1111,"x_min":174,"x_max":938,"o":"m 938 967 l 938 0 l 815 0 l 815 447 l 296 447 l 296 0 l 174 0 l 174 967 l 296 967 l 296 561 l 815 561 l 815 967 l 938 967 m 556 -340 q 499 -318 521 -340 q 478 -261 478 -296 q 499 -204 478 -226 q 556 -182 521 -182 q 612 -204 590 -182 q 633 -261 633 -226 q 612 -318 633 -296 q 556 -340 590 -340 z "},"I":{"ha":444,"x_min":161,"x_max":283,"o":"m 161 967 l 283 967 l 283 0 l 161 0 l 161 967 z "},"Ĳ":{"ha":1056,"x_min":161,"x_max":897,"o":"m 161 967 l 283 967 l 283 0 l 161 0 l 161 967 m 668 -17 q 510 29 579 -17 l 510 151 q 658 96 583 96 q 751 149 726 96 q 775 329 775 203 l 775 967 l 897 967 l 897 311 q 844 63 897 142 q 668 -17 790 -17 z "},"Í":{"ha":444,"x_min":161,"x_max":482,"o":"m 161 967 l 283 967 l 283 0 l 161 0 l 161 967 m 326 1290 l 482 1290 l 288 1086 l 175 1086 l 326 1290 z "},"Ĭ":{"ha":444,"x_min":24,"x_max":421,"o":"m 161 967 l 283 967 l 283 0 l 161 0 l 161 967 m 222 1111 q 79 1156 135 1111 q 24 1289 24 1200 l 107 1289 q 138 1216 107 1240 q 222 1192 168 1192 q 307 1216 276 1192 q 338 1289 338 1240 l 421 1289 q 365 1156 421 1200 q 222 1111 310 1111 z "},"Î":{"ha":444,"x_min":18,"x_max":426,"o":"m 161 967 l 283 967 l 283 0 l 161 0 l 161 967 m 149 1289 l 296 1289 l 426 1071 l 319 1071 l 221 1204 l 125 1071 l 18 1071 l 149 1289 z "},"Ȉ":{"ha":444,"x_min":-99,"x_max":410,"o":"m 161 967 l 283 967 l 283 0 l 161 0 l 161 967 m -99 1289 l 50 1289 l 167 1071 l 54 1071 l -99 1289 m 144 1289 l 293 1289 l 410 1071 l 297 1071 l 144 1289 z "},"Ï":{"ha":444,"x_min":11,"x_max":433,"o":"m 161 967 l 283 967 l 283 0 l 161 0 l 161 967 m 89 1090 q 33 1113 54 1090 q 11 1169 11 1135 q 33 1226 11 1204 q 89 1249 54 1249 q 145 1226 124 1249 q 167 1169 167 1204 q 145 1113 167 1135 q 89 1090 124 1090 m 356 1090 q 299 1113 321 1090 q 278 1169 278 1135 q 299 1226 278 1204 q 356 1249 321 1249 q 412 1226 390 1249 q 433 1169 433 1204 q 412 1113 433 1135 q 356 1090 390 1090 z "},"İ":{"ha":444,"x_min":135,"x_max":310,"o":"m 161 967 l 283 967 l 283 0 l 161 0 l 161 967 m 222 1083 q 159 1108 183 1083 q 135 1172 135 1133 q 159 1236 135 1211 q 222 1261 183 1261 q 285 1236 261 1261 q 310 1172 310 1211 q 285 1108 310 1133 q 222 1083 261 1083 z "},"Ị":{"ha":444,"x_min":144,"x_max":300,"o":"m 161 967 l 283 967 l 283 0 l 161 0 l 161 967 m 222 -340 q 166 -318 188 -340 q 144 -261 144 -296 q 166 -204 144 -226 q 222 -182 188 -182 q 278 -204 257 -182 q 300 -261 300 -226 q 278 -318 300 -296 q 222 -340 257 -340 z "},"Ì":{"ha":444,"x_min":-37,"x_max":283,"o":"m 161 967 l 283 967 l 283 0 l 161 0 l 161 967 m 157 1086 l -37 1290 l 118 1290 l 269 1086 l 157 1086 z "},"Ȋ":{"ha":444,"x_min":24,"x_max":421,"o":"m 161 967 l 283 967 l 283 0 l 161 0 l 161 967 m 24 1111 q 79 1244 24 1200 q 222 1289 135 1289 q 365 1244 310 1289 q 421 1111 421 1200 l 338 1111 q 307 1184 338 1160 q 222 1208 276 1208 q 138 1184 168 1208 q 107 1111 107 1160 l 24 1111 z "},"Ī":{"ha":444,"x_min":13,"x_max":432,"o":"m 161 967 l 283 967 l 283 0 l 161 0 l 161 967 m 432 1226 l 432 1129 l 13 1129 l 13 1226 l 432 1226 z "},"Į":{"ha":444,"x_min":47,"x_max":283,"o":"m 283 0 q 232 -37 276 -6 q 166 -102 188 -69 q 144 -169 144 -135 q 190 -225 144 -225 q 233 -215 210 -225 q 278 -187 257 -204 l 283 -187 l 283 -275 q 178 -310 236 -310 q 85 -276 124 -310 q 47 -181 47 -242 q 78 -76 47 -125 q 161 6 110 -26 l 161 967 l 283 967 l 283 0 z "},"Ĩ":{"ha":444,"x_min":-7,"x_max":451,"o":"m 161 967 l 283 967 l 283 0 l 161 0 l 161 967 m 318 1093 q 269 1102 292 1093 q 215 1128 246 1111 q 162 1153 181 1146 q 119 1160 143 1160 q -7 1093 54 1160 l -7 1189 q 126 1263 57 1263 q 176 1253 153 1263 q 229 1228 199 1244 q 283 1203 264 1210 q 325 1196 301 1196 q 451 1247 390 1196 l 451 1151 q 318 1093 388 1093 z "},"J":{"ha":611,"x_min":65,"x_max":453,"o":"m 224 -17 q 65 29 135 -17 l 65 151 q 214 96 139 96 q 306 149 282 96 q 331 329 331 203 l 331 967 l 453 967 l 453 311 q 399 63 453 142 q 224 -17 346 -17 z "},"Ĵ":{"ha":611,"x_min":65,"x_max":596,"o":"m 224 -17 q 65 29 135 -17 l 65 151 q 214 96 139 96 q 306 149 282 96 q 331 329 331 203 l 331 967 l 453 967 l 453 311 q 399 63 453 142 q 224 -17 346 -17 m 318 1289 l 465 1289 l 596 1071 l 489 1071 l 390 1204 l 294 1071 l 188 1071 l 318 1289 z "},"K":{"ha":972,"x_min":174,"x_max":913,"o":"m 436 446 l 296 283 l 296 0 l 174 0 l 174 967 l 296 967 l 296 461 l 732 967 l 882 967 l 522 547 l 913 0 l 756 0 l 436 446 z "},"Ķ":{"ha":972,"x_min":174,"x_max":913,"o":"m 436 446 l 296 283 l 296 0 l 174 0 l 174 967 l 296 967 l 296 461 l 732 967 l 882 967 l 522 547 l 913 0 l 756 0 l 436 446 m 550 -96 q 554 -146 554 -119 q 538 -247 554 -194 q 492 -350 522 -300 l 390 -350 q 442 -165 442 -269 q 436 -96 442 -124 l 550 -96 z "},"L":{"ha":806,"x_min":174,"x_max":732,"o":"m 174 967 l 296 967 l 296 117 l 732 117 l 732 0 l 174 0 l 174 967 z "},"Ǉ":{"ha":1417,"x_min":174,"x_max":1258,"o":"m 174 967 l 296 967 l 296 117 l 732 117 l 732 0 l 174 0 l 174 967 m 1029 -17 q 871 29 940 -17 l 871 151 q 1019 96 944 96 q 1112 149 1088 96 q 1136 329 1136 203 l 1136 967 l 1258 967 l 1258 311 q 1205 63 1258 142 q 1029 -17 1151 -17 z "},"Ĺ":{"ha":806,"x_min":174,"x_max":732,"o":"m 174 967 l 296 967 l 296 117 l 732 117 l 732 0 l 174 0 l 174 967 m 340 1290 l 496 1290 l 301 1086 l 189 1086 l 340 1290 z "},"Ľ":{"ha":806,"x_min":174,"x_max":732,"o":"m 174 967 l 296 967 l 296 117 l 732 117 l 732 0 l 174 0 l 174 967 m 728 1086 q 709 958 728 1024 q 642 807 690 893 l 531 807 q 588 949 576 888 q 600 1086 600 1010 l 728 1086 z "},"Ļ":{"ha":806,"x_min":174,"x_max":732,"o":"m 174 967 l 296 967 l 296 117 l 732 117 l 732 0 l 174 0 l 174 967 m 467 -96 q 471 -146 471 -119 q 455 -247 471 -194 q 408 -350 439 -300 l 307 -350 q 358 -165 358 -269 q 353 -96 358 -124 l 467 -96 z "},"Ŀ":{"ha":806,"x_min":174,"x_max":757,"o":"m 174 967 l 296 967 l 296 117 l 732 117 l 732 0 l 174 0 l 174 967 m 663 447 q 595 474 622 447 q 568 543 568 500 q 595 613 568 586 q 663 639 622 639 q 730 613 703 639 q 757 543 757 586 q 730 474 757 500 q 663 447 703 447 z "},"ǈ":{"ha":1194,"x_min":174,"x_max":1096,"o":"m 174 967 l 296 967 l 296 117 l 732 117 l 732 0 l 174 0 l 174 967 m 1008 889 q 945 914 969 889 q 921 978 921 939 q 945 1042 921 1017 q 1008 1067 969 1067 q 1072 1042 1047 1067 q 1096 978 1096 1017 q 1072 914 1096 939 q 1008 889 1047 889 m 849 -339 q 785 -335 808 -339 q 733 -315 761 -331 l 733 -210 q 781 -228 760 -224 q 832 -232 801 -232 q 919 -192 892 -232 q 947 -83 947 -153 l 947 725 l 1069 725 l 1069 -83 q 1014 -272 1069 -204 q 849 -339 958 -339 z "},"Ł":{"ha":806,"x_min":83,"x_max":732,"o":"m 732 117 l 732 0 l 174 0 l 174 324 l 83 272 l 83 401 l 174 453 l 174 967 l 296 967 l 296 524 l 556 674 l 556 544 l 296 394 l 296 117 l 732 117 z "},"M":{"ha":1361,"x_min":174,"x_max":1188,"o":"m 1188 0 l 1065 0 l 1065 861 l 750 0 l 617 0 l 296 856 l 296 0 l 174 0 l 174 967 l 388 967 l 686 171 l 978 967 l 1188 967 l 1188 0 z "},"N":{"ha":1111,"x_min":174,"x_max":938,"o":"m 938 967 l 938 0 l 815 0 l 296 746 l 296 0 l 174 0 l 174 967 l 296 967 l 815 221 l 815 967 l 938 967 z "},"Ǌ":{"ha":1722,"x_min":174,"x_max":1564,"o":"m 938 967 l 938 0 l 815 0 l 296 746 l 296 0 l 174 0 l 174 967 l 296 967 l 815 221 l 815 967 l 938 967 m 1335 -17 q 1176 29 1246 -17 l 1176 151 q 1325 96 1250 96 q 1417 149 1393 96 q 1442 329 1442 203 l 1442 967 l 1564 967 l 1564 311 q 1510 63 1564 142 q 1335 -17 1457 -17 z "},"Ń":{"ha":1111,"x_min":174,"x_max":938,"o":"m 938 967 l 938 0 l 815 0 l 296 746 l 296 0 l 174 0 l 174 967 l 296 967 l 815 221 l 815 967 l 938 967 m 660 1290 l 815 1290 l 621 1086 l 508 1086 l 660 1290 z "},"Ň":{"ha":1111,"x_min":174,"x_max":938,"o":"m 938 967 l 938 0 l 815 0 l 296 746 l 296 0 l 174 0 l 174 967 l 296 967 l 815 221 l 815 967 l 938 967 m 458 1289 l 554 1156 l 653 1289 l 760 1289 l 629 1071 l 482 1071 l 351 1289 l 458 1289 z "},"Ņ":{"ha":1111,"x_min":174,"x_max":938,"o":"m 938 967 l 938 0 l 815 0 l 296 746 l 296 0 l 174 0 l 174 967 l 296 967 l 815 221 l 815 967 l 938 967 m 619 -96 q 624 -146 624 -119 q 608 -247 624 -194 q 561 -350 592 -300 l 460 -350 q 511 -165 511 -269 q 506 -96 511 -124 l 619 -96 z "},"Ṅ":{"ha":1111,"x_min":174,"x_max":938,"o":"m 938 967 l 938 0 l 815 0 l 296 746 l 296 0 l 174 0 l 174 967 l 296 967 l 815 221 l 815 967 l 938 967 m 556 1083 q 492 1108 517 1083 q 468 1172 468 1133 q 492 1236 468 1211 q 556 1261 517 1261 q 619 1236 594 1261 q 643 1172 643 1211 q 619 1108 643 1133 q 556 1083 594 1083 z "},"Ŋ":{"ha":1111,"x_min":174,"x_max":938,"o":"m 938 967 l 938 -83 q 882 -272 938 -204 q 717 -339 826 -339 q 653 -335 676 -339 q 601 -315 629 -331 l 601 -210 q 649 -228 628 -224 q 700 -232 669 -232 q 788 -192 760 -232 q 815 -83 815 -153 l 815 0 l 296 746 l 296 0 l 174 0 l 174 967 l 296 967 l 815 221 l 815 967 l 938 967 z "},"ǋ":{"ha":1500,"x_min":174,"x_max":1401,"o":"m 938 967 l 938 0 l 815 0 l 296 746 l 296 0 l 174 0 l 174 967 l 296 967 l 815 221 l 815 967 l 938 967 m 1314 889 q 1251 914 1275 889 q 1226 978 1226 939 q 1251 1042 1226 1017 q 1314 1067 1275 1067 q 1377 1042 1353 1067 q 1401 978 1401 1017 q 1377 914 1401 939 q 1314 889 1353 889 m 1154 -339 q 1090 -335 1114 -339 q 1039 -315 1067 -331 l 1039 -210 q 1086 -228 1065 -224 q 1138 -232 1107 -232 q 1225 -192 1197 -232 q 1253 -83 1253 -153 l 1253 725 l 1375 725 l 1375 -83 q 1319 -272 1375 -204 q 1154 -339 1264 -339 z "},"Ñ":{"ha":1111,"x_min":174,"x_max":938,"o":"m 938 967 l 938 0 l 815 0 l 296 746 l 296 0 l 174 0 l 174 967 l 296 967 l 815 221 l 815 967 l 938 967 m 651 1093 q 602 1102 625 1093 q 549 1128 579 1111 q 495 1153 514 1146 q 453 1160 476 1160 q 326 1093 388 1160 l 326 1189 q 460 1263 390 1263 q 509 1253 486 1263 q 563 1228 532 1244 q 616 1203 597 1210 q 658 1196 635 1196 q 785 1247 724 1196 l 785 1151 q 651 1093 721 1093 z "},"O":{"ha":1167,"x_min":140,"x_max":1026,"o":"m 583 -17 q 344 46 443 -17 q 192 221 244 108 q 140 483 140 333 q 192 746 140 633 q 344 921 244 858 q 583 983 443 983 q 823 921 724 983 q 974 746 922 858 q 1026 483 1026 633 q 974 221 1026 333 q 823 46 922 108 q 583 -17 724 -17 m 583 94 q 817 199 739 94 q 894 483 894 304 q 817 767 894 663 q 583 872 739 872 q 350 767 428 872 q 272 483 272 663 q 350 199 272 304 q 583 94 428 94 z "},"Ó":{"ha":1167,"x_min":140,"x_max":1026,"o":"m 583 -17 q 344 46 443 -17 q 192 221 244 108 q 140 483 140 333 q 192 746 140 633 q 344 921 244 858 q 583 983 443 983 q 823 921 724 983 q 974 746 922 858 q 1026 483 1026 633 q 974 221 1026 333 q 823 46 922 108 q 583 -17 724 -17 m 583 94 q 817 199 739 94 q 894 483 894 304 q 817 767 894 663 q 583 872 739 872 q 350 767 428 872 q 272 483 272 663 q 350 199 272 304 q 583 94 428 94 m 688 1290 l 843 1290 l 649 1086 l 536 1086 l 688 1290 z "},"Ŏ":{"ha":1167,"x_min":140,"x_max":1026,"o":"m 583 -17 q 344 46 443 -17 q 192 221 244 108 q 140 483 140 333 q 192 746 140 633 q 344 921 244 858 q 583 983 443 983 q 823 921 724 983 q 974 746 922 858 q 1026 483 1026 633 q 974 221 1026 333 q 823 46 922 108 q 583 -17 724 -17 m 583 94 q 817 199 739 94 q 894 483 894 304 q 817 767 894 663 q 583 872 739 872 q 350 767 428 872 q 272 483 272 663 q 350 199 272 304 q 583 94 428 94 m 583 1111 q 440 1156 496 1111 q 385 1289 385 1200 l 468 1289 q 499 1216 468 1240 q 583 1192 529 1192 q 668 1216 638 1192 q 699 1289 699 1240 l 782 1289 q 726 1156 782 1200 q 583 1111 671 1111 z "},"Ô":{"ha":1167,"x_min":140,"x_max":1026,"o":"m 583 -17 q 344 46 443 -17 q 192 221 244 108 q 140 483 140 333 q 192 746 140 633 q 344 921 244 858 q 583 983 443 983 q 823 921 724 983 q 974 746 922 858 q 1026 483 1026 633 q 974 221 1026 333 q 823 46 922 108 q 583 -17 724 -17 m 583 94 q 817 199 739 94 q 894 483 894 304 q 817 767 894 663 q 583 872 739 872 q 350 767 428 872 q 272 483 272 663 q 350 199 272 304 q 583 94 428 94 m 510 1289 l 657 1289 l 788 1071 l 681 1071 l 582 1204 l 486 1071 l 379 1071 l 510 1289 z "},"Ȍ":{"ha":1167,"x_min":140,"x_max":1026,"o":"m 583 -17 q 344 46 443 -17 q 192 221 244 108 q 140 483 140 333 q 192 746 140 633 q 344 921 244 858 q 583 983 443 983 q 823 921 724 983 q 974 746 922 858 q 1026 483 1026 633 q 974 221 1026 333 q 823 46 922 108 q 583 -17 724 -17 m 583 94 q 817 199 739 94 q 894 483 894 304 q 817 767 894 663 q 583 872 739 872 q 350 767 428 872 q 272 483 272 663 q 350 199 272 304 q 583 94 428 94 m 263 1289 l 411 1289 l 528 1071 l 415 1071 l 263 1289 m 506 1289 l 654 1289 l 771 1071 l 658 1071 l 506 1289 z "},"Ö":{"ha":1167,"x_min":140,"x_max":1026,"o":"m 583 -17 q 344 46 443 -17 q 192 221 244 108 q 140 483 140 333 q 192 746 140 633 q 344 921 244 858 q 583 983 443 983 q 823 921 724 983 q 974 746 922 858 q 1026 483 1026 633 q 974 221 1026 333 q 823 46 922 108 q 583 -17 724 -17 m 583 94 q 817 199 739 94 q 894 483 894 304 q 817 767 894 663 q 583 872 739 872 q 350 767 428 872 q 272 483 272 663 q 350 199 272 304 q 583 94 428 94 m 450 1090 q 394 1113 415 1090 q 372 1169 372 1135 q 394 1226 372 1204 q 450 1249 415 1249 q 506 1226 485 1249 q 528 1169 528 1204 q 506 1113 528 1135 q 450 1090 485 1090 m 717 1090 q 660 1113 682 1090 q 639 1169 639 1135 q 660 1226 639 1204 q 717 1249 682 1249 q 773 1226 751 1249 q 794 1169 794 1204 q 773 1113 794 1135 q 717 1090 751 1090 z "},"Ọ":{"ha":1167,"x_min":140,"x_max":1026,"o":"m 583 -17 q 344 46 443 -17 q 192 221 244 108 q 140 483 140 333 q 192 746 140 633 q 344 921 244 858 q 583 983 443 983 q 823 921 724 983 q 974 746 922 858 q 1026 483 1026 633 q 974 221 1026 333 q 823 46 922 108 q 583 -17 724 -17 m 583 94 q 817 199 739 94 q 894 483 894 304 q 817 767 894 663 q 583 872 739 872 q 350 767 428 872 q 272 483 272 663 q 350 199 272 304 q 583 94 428 94 m 583 -340 q 527 -318 549 -340 q 506 -261 506 -296 q 527 -204 506 -226 q 583 -182 549 -182 q 640 -204 618 -182 q 661 -261 661 -226 q 640 -318 661 -296 q 583 -340 618 -340 z "},"Ò":{"ha":1167,"x_min":140,"x_max":1026,"o":"m 583 -17 q 344 46 443 -17 q 192 221 244 108 q 140 483 140 333 q 192 746 140 633 q 344 921 244 858 q 583 983 443 983 q 823 921 724 983 q 974 746 922 858 q 1026 483 1026 633 q 974 221 1026 333 q 823 46 922 108 q 583 -17 724 -17 m 583 94 q 817 199 739 94 q 894 483 894 304 q 817 767 894 663 q 583 872 739 872 q 350 767 428 872 q 272 483 272 663 q 350 199 272 304 q 583 94 428 94 m 518 1086 l 324 1290 l 479 1290 l 631 1086 l 518 1086 z "},"Ő":{"ha":1167,"x_min":140,"x_max":1026,"o":"m 583 -17 q 344 46 443 -17 q 192 221 244 108 q 140 483 140 333 q 192 746 140 633 q 344 921 244 858 q 583 983 443 983 q 823 921 724 983 q 974 746 922 858 q 1026 483 1026 633 q 974 221 1026 333 q 823 46 922 108 q 583 -17 724 -17 m 583 94 q 817 199 739 94 q 894 483 894 304 q 817 767 894 663 q 583 872 739 872 q 350 767 428 872 q 272 483 272 663 q 350 199 272 304 q 583 94 428 94 m 510 1289 l 658 1289 l 506 1071 l 393 1071 l 510 1289 m 753 1289 l 901 1289 l 749 1071 l 636 1071 l 753 1289 z "},"Ȏ":{"ha":1167,"x_min":140,"x_max":1026,"o":"m 583 -17 q 344 46 443 -17 q 192 221 244 108 q 140 483 140 333 q 192 746 140 633 q 344 921 244 858 q 583 983 443 983 q 823 921 724 983 q 974 746 922 858 q 1026 483 1026 633 q 974 221 1026 333 q 823 46 922 108 q 583 -17 724 -17 m 583 94 q 817 199 739 94 q 894 483 894 304 q 817 767 894 663 q 583 872 739 872 q 350 767 428 872 q 272 483 272 663 q 350 199 272 304 q 583 94 428 94 m 385 1111 q 440 1244 385 1200 q 583 1289 496 1289 q 726 1244 671 1289 q 782 1111 782 1200 l 699 1111 q 668 1184 699 1160 q 583 1208 638 1208 q 499 1184 529 1208 q 468 1111 468 1160 l 385 1111 z "},"Ō":{"ha":1167,"x_min":140,"x_max":1026,"o":"m 583 -17 q 344 46 443 -17 q 192 221 244 108 q 140 483 140 333 q 192 746 140 633 q 344 921 244 858 q 583 983 443 983 q 823 921 724 983 q 974 746 922 858 q 1026 483 1026 633 q 974 221 1026 333 q 823 46 922 108 q 583 -17 724 -17 m 583 94 q 817 199 739 94 q 894 483 894 304 q 817 767 894 663 q 583 872 739 872 q 350 767 428 872 q 272 483 272 663 q 350 199 272 304 q 583 94 428 94 m 793 1226 l 793 1129 l 374 1129 l 374 1226 l 793 1226 z "},"Ǫ":{"ha":1167,"x_min":140,"x_max":1026,"o":"m 696 -6 q 595 -89 626 -56 q 564 -169 564 -122 q 610 -225 564 -225 q 653 -215 629 -225 q 697 -187 676 -204 l 703 -187 l 703 -275 q 597 -310 656 -310 q 505 -276 543 -310 q 467 -181 467 -242 q 489 -92 467 -135 q 550 -15 511 -49 q 328 56 421 -8 q 188 230 236 119 q 140 483 140 340 q 192 746 140 633 q 344 921 244 858 q 583 983 443 983 q 823 921 724 983 q 974 746 922 858 q 1026 483 1026 633 q 940 159 1026 289 q 696 -6 854 29 m 272 483 q 350 199 272 304 q 583 94 428 94 q 817 199 739 94 q 894 483 894 304 q 817 767 894 663 q 583 872 739 872 q 350 767 428 872 q 272 483 272 663 z "},"Ø":{"ha":1167,"x_min":133,"x_max":1033,"o":"m 926 828 q 1026 483 1026 693 q 974 221 1026 333 q 823 46 922 108 q 583 -17 724 -17 q 329 54 435 -17 l 288 0 l 133 0 l 242 139 q 140 483 140 272 q 192 746 140 633 q 344 921 244 858 q 583 983 443 983 q 839 911 732 983 l 882 967 l 1033 967 l 926 828 m 272 483 q 322 243 272 340 l 767 817 q 583 872 694 872 q 350 767 428 872 q 272 483 272 663 m 894 483 q 844 722 894 626 l 401 149 q 583 94 475 94 q 817 199 739 94 q 894 483 894 304 z "},"Ǿ":{"ha":1167,"x_min":133,"x_max":1033,"o":"m 926 828 q 1026 483 1026 693 q 974 221 1026 333 q 823 46 922 108 q 583 -17 724 -17 q 329 54 435 -17 l 288 0 l 133 0 l 242 139 q 140 483 140 272 q 192 746 140 633 q 344 921 244 858 q 583 983 443 983 q 839 911 732 983 l 882 967 l 1033 967 l 926 828 m 272 483 q 322 243 272 340 l 767 817 q 583 872 694 872 q 350 767 428 872 q 272 483 272 663 m 894 483 q 844 722 894 626 l 401 149 q 583 94 475 94 q 817 199 739 94 q 894 483 894 304 m 688 1290 l 843 1290 l 649 1086 l 536 1086 l 688 1290 z "},"Õ":{"ha":1167,"x_min":140,"x_max":1026,"o":"m 583 -17 q 344 46 443 -17 q 192 221 244 108 q 140 483 140 333 q 192 746 140 633 q 344 921 244 858 q 583 983 443 983 q 823 921 724 983 q 974 746 922 858 q 1026 483 1026 633 q 974 221 1026 333 q 823 46 922 108 q 583 -17 724 -17 m 583 94 q 817 199 739 94 q 894 483 894 304 q 817 767 894 663 q 583 872 739 872 q 350 767 428 872 q 272 483 272 663 q 350 199 272 304 q 583 94 428 94 m 679 1093 q 630 1102 653 1093 q 576 1128 607 1111 q 523 1153 542 1146 q 481 1160 504 1160 q 354 1093 415 1160 l 354 1189 q 488 1263 418 1263 q 537 1253 514 1263 q 590 1228 560 1244 q 644 1203 625 1210 q 686 1196 663 1196 q 813 1247 751 1196 l 813 1151 q 679 1093 749 1093 z "},"Œ":{"ha":1472,"x_min":140,"x_max":1333,"o":"m 586 -17 q 344 46 444 -17 q 192 221 243 108 q 140 483 140 333 q 192 746 140 633 q 344 921 244 858 q 583 983 443 983 q 757 967 644 983 l 1333 967 l 1333 850 l 879 850 l 879 544 l 1303 544 l 1303 433 l 879 433 l 879 117 l 1333 117 l 1333 0 l 757 0 q 586 -17 657 -17 m 586 94 q 757 126 672 94 l 757 840 q 589 872 674 872 q 351 768 429 872 q 272 483 272 664 q 350 199 272 304 q 586 94 428 94 z "},"P":{"ha":917,"x_min":174,"x_max":849,"o":"m 174 967 l 488 967 q 849 650 849 967 q 759 406 849 490 q 497 322 669 322 l 296 322 l 296 0 l 174 0 l 174 967 m 493 436 q 665 485 613 436 q 717 644 717 533 q 665 803 717 756 q 488 850 613 850 l 296 850 l 296 436 l 493 436 z "},"Þ":{"ha":917,"x_min":174,"x_max":849,"o":"m 296 967 l 296 804 l 488 804 q 849 488 849 804 q 759 244 849 328 q 497 160 669 160 l 296 160 l 296 0 l 174 0 l 174 967 l 296 967 m 493 274 q 665 322 613 274 q 717 482 717 371 q 665 640 717 593 q 488 688 613 688 l 296 688 l 296 274 l 493 274 z "},"Q":{"ha":1167,"x_min":140,"x_max":1026,"o":"m 1026 483 q 964 198 1026 318 q 783 24 901 78 l 925 -236 l 799 -236 l 675 -10 q 583 -17 626 -17 q 344 46 443 -17 q 192 221 244 108 q 140 483 140 333 q 192 746 140 633 q 344 921 244 858 q 583 983 443 983 q 823 921 724 983 q 974 746 922 858 q 1026 483 1026 633 m 272 483 q 350 199 272 304 q 583 94 428 94 q 817 199 739 94 q 894 483 894 304 q 817 767 894 663 q 583 872 739 872 q 350 767 428 872 q 272 483 272 663 z "},"R":{"ha":972,"x_min":174,"x_max":875,"o":"m 728 0 l 532 379 l 518 379 l 296 379 l 296 0 l 174 0 l 174 967 l 501 967 q 760 894 675 967 q 844 681 844 821 q 799 504 844 576 q 664 401 753 432 l 875 0 l 728 0 m 503 494 q 662 537 611 494 q 713 681 713 579 q 662 812 713 774 q 501 850 611 850 l 296 850 l 296 494 l 503 494 z "},"Ŕ":{"ha":972,"x_min":174,"x_max":875,"o":"m 728 0 l 532 379 l 518 379 l 296 379 l 296 0 l 174 0 l 174 967 l 501 967 q 760 894 675 967 q 844 681 844 821 q 799 504 844 576 q 664 401 753 432 l 875 0 l 728 0 m 503 494 q 662 537 611 494 q 713 681 713 579 q 662 812 713 774 q 501 850 611 850 l 296 850 l 296 494 l 503 494 m 590 1290 l 746 1290 l 551 1086 l 439 1086 l 590 1290 z "},"Ř":{"ha":972,"x_min":174,"x_max":875,"o":"m 728 0 l 532 379 l 518 379 l 296 379 l 296 0 l 174 0 l 174 967 l 501 967 q 760 894 675 967 q 844 681 844 821 q 799 504 844 576 q 664 401 753 432 l 875 0 l 728 0 m 503 494 q 662 537 611 494 q 713 681 713 579 q 662 812 713 774 q 501 850 611 850 l 296 850 l 296 494 l 503 494 m 389 1289 l 485 1156 l 583 1289 l 690 1289 l 560 1071 l 413 1071 l 282 1289 l 389 1289 z "},"Ŗ":{"ha":972,"x_min":174,"x_max":875,"o":"m 728 0 l 532 379 l 518 379 l 296 379 l 296 0 l 174 0 l 174 967 l 501 967 q 760 894 675 967 q 844 681 844 821 q 799 504 844 576 q 664 401 753 432 l 875 0 l 728 0 m 503 494 q 662 537 611 494 q 713 681 713 579 q 662 812 713 774 q 501 850 611 850 l 296 850 l 296 494 l 503 494 m 550 -96 q 554 -146 554 -119 q 538 -247 554 -194 q 492 -350 522 -300 l 390 -350 q 442 -165 442 -269 q 436 -96 442 -124 l 550 -96 z "},"Ȑ":{"ha":972,"x_min":165,"x_max":875,"o":"m 728 0 l 532 379 l 518 379 l 296 379 l 296 0 l 174 0 l 174 967 l 501 967 q 760 894 675 967 q 844 681 844 821 q 799 504 844 576 q 664 401 753 432 l 875 0 l 728 0 m 503 494 q 662 537 611 494 q 713 681 713 579 q 662 812 713 774 q 501 850 611 850 l 296 850 l 296 494 l 503 494 m 165 1289 l 314 1289 l 431 1071 l 318 1071 l 165 1289 m 408 1289 l 557 1289 l 674 1071 l 561 1071 l 408 1289 z "},"Ṛ":{"ha":972,"x_min":174,"x_max":875,"o":"m 728 0 l 532 379 l 518 379 l 296 379 l 296 0 l 174 0 l 174 967 l 501 967 q 760 894 675 967 q 844 681 844 821 q 799 504 844 576 q 664 401 753 432 l 875 0 l 728 0 m 503 494 q 662 537 611 494 q 713 681 713 579 q 662 812 713 774 q 501 850 611 850 l 296 850 l 296 494 l 503 494 m 486 -340 q 430 -318 451 -340 q 408 -261 408 -296 q 430 -204 408 -226 q 486 -182 451 -182 q 542 -204 521 -182 q 564 -261 564 -226 q 542 -318 564 -296 q 486 -340 521 -340 z "},"Ȓ":{"ha":972,"x_min":174,"x_max":875,"o":"m 728 0 l 532 379 l 518 379 l 296 379 l 296 0 l 174 0 l 174 967 l 501 967 q 760 894 675 967 q 844 681 844 821 q 799 504 844 576 q 664 401 753 432 l 875 0 l 728 0 m 503 494 q 662 537 611 494 q 713 681 713 579 q 662 812 713 774 q 501 850 611 850 l 296 850 l 296 494 l 503 494 m 288 1111 q 343 1244 288 1200 q 486 1289 399 1289 q 629 1244 574 1289 q 685 1111 685 1200 l 601 1111 q 571 1184 601 1160 q 486 1208 540 1208 q 401 1184 432 1208 q 371 1111 371 1160 l 288 1111 z "},"S":{"ha":889,"x_min":119,"x_max":769,"o":"m 453 -17 q 285 4 372 -17 q 119 61 197 25 l 119 193 q 290 119 211 143 q 444 96 368 96 q 593 139 540 96 q 646 257 646 182 q 617 343 646 308 q 543 399 588 378 q 424 444 499 419 q 278 503 333 475 q 185 582 224 531 q 146 715 146 633 q 235 910 146 838 q 474 983 324 983 q 742 921 619 983 l 742 793 q 474 871 604 871 q 324 833 378 871 q 269 728 269 794 q 297 651 269 682 q 365 602 325 621 q 479 557 406 583 q 629 497 571 526 q 728 413 688 468 q 769 269 769 357 q 731 119 769 183 q 619 19 692 54 q 453 -17 547 -17 z "},"Ś":{"ha":889,"x_min":119,"x_max":769,"o":"m 453 -17 q 285 4 372 -17 q 119 61 197 25 l 119 193 q 290 119 211 143 q 444 96 368 96 q 593 139 540 96 q 646 257 646 182 q 617 343 646 308 q 543 399 588 378 q 424 444 499 419 q 278 503 333 475 q 185 582 224 531 q 146 715 146 633 q 235 910 146 838 q 474 983 324 983 q 742 921 619 983 l 742 793 q 474 871 604 871 q 324 833 378 871 q 269 728 269 794 q 297 651 269 682 q 365 602 325 621 q 479 557 406 583 q 629 497 571 526 q 728 413 688 468 q 769 269 769 357 q 731 119 769 183 q 619 19 692 54 q 453 -17 547 -17 m 549 1290 l 704 1290 l 510 1086 l 397 1086 l 549 1290 z "},"Š":{"ha":889,"x_min":119,"x_max":769,"o":"m 453 -17 q 285 4 372 -17 q 119 61 197 25 l 119 193 q 290 119 211 143 q 444 96 368 96 q 593 139 540 96 q 646 257 646 182 q 617 343 646 308 q 543 399 588 378 q 424 444 499 419 q 278 503 333 475 q 185 582 224 531 q 146 715 146 633 q 235 910 146 838 q 474 983 324 983 q 742 921 619 983 l 742 793 q 474 871 604 871 q 324 833 378 871 q 269 728 269 794 q 297 651 269 682 q 365 602 325 621 q 479 557 406 583 q 629 497 571 526 q 728 413 688 468 q 769 269 769 357 q 731 119 769 183 q 619 19 692 54 q 453 -17 547 -17 m 347 1289 l 443 1156 l 542 1289 l 649 1289 l 518 1071 l 371 1071 l 240 1289 l 347 1289 z "},"Ş":{"ha":889,"x_min":119,"x_max":769,"o":"m 769 269 q 712 92 769 165 q 554 -6 654 19 q 626 -190 626 -106 q 579 -300 626 -261 q 463 -339 532 -339 q 333 -303 400 -339 l 333 -221 l 339 -221 q 453 -256 401 -256 q 528 -182 528 -256 q 508 -102 528 -146 q 451 -17 489 -58 q 285 4 372 -17 q 119 61 197 25 l 119 193 q 290 119 211 143 q 444 96 368 96 q 593 139 540 96 q 646 257 646 182 q 617 343 646 308 q 543 399 588 378 q 424 444 499 419 q 278 503 333 475 q 185 582 224 531 q 146 715 146 633 q 235 910 146 838 q 474 983 324 983 q 742 921 619 983 l 742 793 q 474 871 604 871 q 324 833 378 871 q 269 728 269 794 q 297 651 269 682 q 365 602 325 621 q 479 557 406 583 q 629 497 571 526 q 728 413 688 468 q 769 269 769 357 z "},"Ŝ":{"ha":889,"x_min":119,"x_max":769,"o":"m 453 -17 q 285 4 372 -17 q 119 61 197 25 l 119 193 q 290 119 211 143 q 444 96 368 96 q 593 139 540 96 q 646 257 646 182 q 617 343 646 308 q 543 399 588 378 q 424 444 499 419 q 278 503 333 475 q 185 582 224 531 q 146 715 146 633 q 235 910 146 838 q 474 983 324 983 q 742 921 619 983 l 742 793 q 474 871 604 871 q 324 833 378 871 q 269 728 269 794 q 297 651 269 682 q 365 602 325 621 q 479 557 406 583 q 629 497 571 526 q 728 413 688 468 q 769 269 769 357 q 731 119 769 183 q 619 19 692 54 q 453 -17 547 -17 m 371 1289 l 518 1289 l 649 1071 l 542 1071 l 443 1204 l 347 1071 l 240 1071 l 371 1289 z "},"Ș":{"ha":889,"x_min":119,"x_max":769,"o":"m 453 -17 q 285 4 372 -17 q 119 61 197 25 l 119 193 q 290 119 211 143 q 444 96 368 96 q 593 139 540 96 q 646 257 646 182 q 617 343 646 308 q 543 399 588 378 q 424 444 499 419 q 278 503 333 475 q 185 582 224 531 q 146 715 146 633 q 235 910 146 838 q 474 983 324 983 q 742 921 619 983 l 742 793 q 474 871 604 871 q 324 833 378 871 q 269 728 269 794 q 297 651 269 682 q 365 602 325 621 q 479 557 406 583 q 629 497 571 526 q 728 413 688 468 q 769 269 769 357 q 731 119 769 183 q 619 19 692 54 q 453 -17 547 -17 m 550 -96 q 554 -146 554 -119 q 538 -247 554 -194 q 492 -350 522 -300 l 390 -350 q 442 -165 442 -269 q 436 -96 442 -124 l 550 -96 z "},"Ṣ":{"ha":889,"x_min":119,"x_max":769,"o":"m 453 -17 q 285 4 372 -17 q 119 61 197 25 l 119 193 q 290 119 211 143 q 444 96 368 96 q 593 139 540 96 q 646 257 646 182 q 617 343 646 308 q 543 399 588 378 q 424 444 499 419 q 278 503 333 475 q 185 582 224 531 q 146 715 146 633 q 235 910 146 838 q 474 983 324 983 q 742 921 619 983 l 742 793 q 474 871 604 871 q 324 833 378 871 q 269 728 269 794 q 297 651 269 682 q 365 602 325 621 q 479 557 406 583 q 629 497 571 526 q 728 413 688 468 q 769 269 769 357 q 731 119 769 183 q 619 19 692 54 q 453 -17 547 -17 m 486 -340 q 430 -318 451 -340 q 408 -261 408 -296 q 430 -204 408 -226 q 486 -182 451 -182 q 542 -204 521 -182 q 564 -261 564 -226 q 542 -318 564 -296 q 486 -340 521 -340 z "},"Ə":{"ha":1083,"x_min":118,"x_max":943,"o":"m 478 983 q 730 920 625 983 q 889 743 835 857 q 943 482 943 629 q 893 227 943 340 q 748 49 843 114 q 524 -17 653 -17 q 306 44 399 -17 q 166 210 214 106 q 118 443 118 315 l 118 483 l 811 483 q 726 770 811 668 q 481 872 642 872 q 154 771 321 872 l 149 771 l 149 892 q 311 960 226 938 q 478 983 396 983 m 524 96 q 672 135 606 96 q 774 238 738 174 q 810 374 810 301 l 253 374 q 335 176 265 256 q 524 96 404 96 z "},"T":{"ha":889,"x_min":92,"x_max":797,"o":"m 383 844 l 92 844 l 92 967 l 797 967 l 797 844 l 506 844 l 506 0 l 383 0 l 383 844 z "},"Ŧ":{"ha":889,"x_min":92,"x_max":797,"o":"m 506 844 l 506 536 l 653 536 l 653 431 l 506 431 l 506 0 l 383 0 l 383 431 l 264 431 l 264 536 l 383 536 l 383 844 l 92 844 l 92 967 l 797 967 l 797 844 l 506 844 z "},"Ť":{"ha":889,"x_min":92,"x_max":797,"o":"m 383 844 l 92 844 l 92 967 l 797 967 l 797 844 l 506 844 l 506 0 l 383 0 l 383 844 m 347 1289 l 443 1156 l 542 1289 l 649 1289 l 518 1071 l 371 1071 l 240 1289 l 347 1289 z "},"Ţ":{"ha":889,"x_min":92,"x_max":797,"o":"m 506 844 l 506 4 q 585 -190 585 -104 q 538 -300 585 -261 q 421 -339 490 -339 q 292 -303 358 -339 l 292 -221 l 297 -221 q 411 -256 360 -256 q 486 -182 486 -256 q 463 -94 486 -142 q 394 0 440 -46 l 383 0 l 383 844 l 92 844 l 92 967 l 797 967 l 797 844 l 506 844 z "},"Ț":{"ha":889,"x_min":92,"x_max":797,"o":"m 383 844 l 92 844 l 92 967 l 797 967 l 797 844 l 506 844 l 506 0 l 383 0 l 383 844 m 508 -96 q 513 -146 513 -119 q 497 -247 513 -194 q 450 -350 481 -300 l 349 -350 q 400 -165 400 -269 q 394 -96 400 -124 l 508 -96 z "},"Ṭ":{"ha":889,"x_min":92,"x_max":797,"o":"m 383 844 l 92 844 l 92 967 l 797 967 l 797 844 l 506 844 l 506 0 l 383 0 l 383 844 m 444 -340 q 388 -318 410 -340 q 367 -261 367 -296 q 388 -204 367 -226 q 444 -182 410 -182 q 501 -204 479 -182 q 522 -261 522 -226 q 501 -318 522 -296 q 444 -340 479 -340 z "},"U":{"ha":1083,"x_min":174,"x_max":910,"o":"m 542 -17 q 270 95 367 -17 q 174 400 174 207 l 174 967 l 296 967 l 296 404 q 359 180 296 263 q 542 97 422 97 q 724 180 661 97 q 788 404 788 263 l 788 967 l 910 967 l 910 400 q 813 95 910 207 q 542 -17 717 -17 z "},"Ú":{"ha":1083,"x_min":174,"x_max":910,"o":"m 542 -17 q 270 95 367 -17 q 174 400 174 207 l 174 967 l 296 967 l 296 404 q 359 180 296 263 q 542 97 422 97 q 724 180 661 97 q 788 404 788 263 l 788 967 l 910 967 l 910 400 q 813 95 910 207 q 542 -17 717 -17 m 646 1290 l 801 1290 l 607 1086 l 494 1086 l 646 1290 z "},"Ŭ":{"ha":1083,"x_min":174,"x_max":910,"o":"m 542 -17 q 270 95 367 -17 q 174 400 174 207 l 174 967 l 296 967 l 296 404 q 359 180 296 263 q 542 97 422 97 q 724 180 661 97 q 788 404 788 263 l 788 967 l 910 967 l 910 400 q 813 95 910 207 q 542 -17 717 -17 m 542 1111 q 399 1156 454 1111 q 343 1289 343 1200 l 426 1289 q 457 1216 426 1240 q 542 1192 488 1192 q 626 1216 596 1192 q 657 1289 657 1240 l 740 1289 q 685 1156 740 1200 q 542 1111 629 1111 z "},"Û":{"ha":1083,"x_min":174,"x_max":910,"o":"m 542 -17 q 270 95 367 -17 q 174 400 174 207 l 174 967 l 296 967 l 296 404 q 359 180 296 263 q 542 97 422 97 q 724 180 661 97 q 788 404 788 263 l 788 967 l 910 967 l 910 400 q 813 95 910 207 q 542 -17 717 -17 m 468 1289 l 615 1289 l 746 1071 l 639 1071 l 540 1204 l 444 1071 l 338 1071 l 468 1289 z "},"Ȕ":{"ha":1083,"x_min":174,"x_max":910,"o":"m 542 -17 q 270 95 367 -17 q 174 400 174 207 l 174 967 l 296 967 l 296 404 q 359 180 296 263 q 542 97 422 97 q 724 180 661 97 q 788 404 788 263 l 788 967 l 910 967 l 910 400 q 813 95 910 207 q 542 -17 717 -17 m 221 1289 l 369 1289 l 486 1071 l 374 1071 l 221 1289 m 464 1289 l 613 1289 l 729 1071 l 617 1071 l 464 1289 z "},"Ü":{"ha":1083,"x_min":174,"x_max":910,"o":"m 542 -17 q 270 95 367 -17 q 174 400 174 207 l 174 967 l 296 967 l 296 404 q 359 180 296 263 q 542 97 422 97 q 724 180 661 97 q 788 404 788 263 l 788 967 l 910 967 l 910 400 q 813 95 910 207 q 542 -17 717 -17 m 408 1090 q 352 1113 374 1090 q 331 1169 331 1135 q 352 1226 331 1204 q 408 1249 374 1249 q 465 1226 443 1249 q 486 1169 486 1204 q 465 1113 486 1135 q 408 1090 443 1090 m 675 1090 q 619 1113 640 1090 q 597 1169 597 1135 q 619 1226 597 1204 q 675 1249 640 1249 q 731 1226 710 1249 q 753 1169 753 1204 q 731 1113 753 1135 q 675 1090 710 1090 z "},"Ụ":{"ha":1083,"x_min":174,"x_max":910,"o":"m 542 -17 q 270 95 367 -17 q 174 400 174 207 l 174 967 l 296 967 l 296 404 q 359 180 296 263 q 542 97 422 97 q 724 180 661 97 q 788 404 788 263 l 788 967 l 910 967 l 910 400 q 813 95 910 207 q 542 -17 717 -17 m 542 -340 q 485 -318 507 -340 q 464 -261 464 -296 q 485 -204 464 -226 q 542 -182 507 -182 q 598 -204 576 -182 q 619 -261 619 -226 q 598 -318 619 -296 q 542 -340 576 -340 z "},"Ù":{"ha":1083,"x_min":174,"x_max":910,"o":"m 542 -17 q 270 95 367 -17 q 174 400 174 207 l 174 967 l 296 967 l 296 404 q 359 180 296 263 q 542 97 422 97 q 724 180 661 97 q 788 404 788 263 l 788 967 l 910 967 l 910 400 q 813 95 910 207 q 542 -17 717 -17 m 476 1086 l 282 1290 l 438 1290 l 589 1086 l 476 1086 z "},"Ű":{"ha":1083,"x_min":174,"x_max":910,"o":"m 542 -17 q 270 95 367 -17 q 174 400 174 207 l 174 967 l 296 967 l 296 404 q 359 180 296 263 q 542 97 422 97 q 724 180 661 97 q 788 404 788 263 l 788 967 l 910 967 l 910 400 q 813 95 910 207 q 542 -17 717 -17 m 468 1289 l 617 1289 l 464 1071 l 351 1071 l 468 1289 m 711 1289 l 860 1289 l 707 1071 l 594 1071 l 711 1289 z "},"Ȗ":{"ha":1083,"x_min":174,"x_max":910,"o":"m 542 -17 q 270 95 367 -17 q 174 400 174 207 l 174 967 l 296 967 l 296 404 q 359 180 296 263 q 542 97 422 97 q 724 180 661 97 q 788 404 788 263 l 788 967 l 910 967 l 910 400 q 813 95 910 207 q 542 -17 717 -17 m 343 1111 q 399 1244 343 1200 q 542 1289 454 1289 q 685 1244 629 1289 q 740 1111 740 1200 l 657 1111 q 626 1184 657 1160 q 542 1208 596 1208 q 457 1184 488 1208 q 426 1111 426 1160 l 343 1111 z "},"Ū":{"ha":1083,"x_min":174,"x_max":910,"o":"m 542 -17 q 270 95 367 -17 q 174 400 174 207 l 174 967 l 296 967 l 296 404 q 359 180 296 263 q 542 97 422 97 q 724 180 661 97 q 788 404 788 263 l 788 967 l 910 967 l 910 400 q 813 95 910 207 q 542 -17 717 -17 m 751 1226 l 751 1129 l 332 1129 l 332 1226 l 751 1226 z "},"Ų":{"ha":1083,"x_min":174,"x_max":910,"o":"m 910 967 l 910 400 q 842 133 910 239 q 649 -4 775 28 q 599 -41 642 -10 q 535 -104 556 -72 q 515 -169 515 -136 q 561 -225 515 -225 q 604 -215 581 -225 q 649 -187 628 -204 l 654 -187 l 654 -275 q 549 -310 607 -310 q 456 -276 494 -310 q 418 -181 418 -242 q 441 -91 418 -135 q 503 -15 464 -47 q 260 108 346 -3 q 174 400 174 218 l 174 967 l 296 967 l 296 404 q 359 180 296 263 q 542 97 422 97 q 724 180 661 97 q 788 404 788 263 l 788 967 l 910 967 z "},"Ů":{"ha":1083,"x_min":174,"x_max":910,"o":"m 542 -17 q 270 95 367 -17 q 174 400 174 207 l 174 967 l 296 967 l 296 404 q 359 180 296 263 q 542 97 422 97 q 724 180 661 97 q 788 404 788 263 l 788 967 l 910 967 l 910 400 q 813 95 910 207 q 542 -17 717 -17 m 404 1151 q 442 1251 404 1214 q 542 1289 481 1289 q 641 1251 603 1289 q 679 1151 679 1214 q 641 1051 679 1089 q 542 1014 603 1014 q 442 1051 481 1014 q 404 1151 404 1089 m 475 1153 q 492 1101 475 1119 q 542 1082 510 1082 q 590 1101 572 1082 q 607 1153 607 1119 q 590 1201 607 1185 q 542 1218 574 1218 q 492 1201 510 1218 q 475 1153 475 1185 z "},"Ũ":{"ha":1083,"x_min":174,"x_max":910,"o":"m 542 -17 q 270 95 367 -17 q 174 400 174 207 l 174 967 l 296 967 l 296 404 q 359 180 296 263 q 542 97 422 97 q 724 180 661 97 q 788 404 788 263 l 788 967 l 910 967 l 910 400 q 813 95 910 207 q 542 -17 717 -17 m 638 1093 q 588 1102 611 1093 q 535 1128 565 1111 q 481 1153 500 1146 q 439 1160 463 1160 q 313 1093 374 1160 l 313 1189 q 446 1263 376 1263 q 495 1253 472 1263 q 549 1228 518 1244 q 602 1203 583 1210 q 644 1196 621 1196 q 771 1247 710 1196 l 771 1151 q 638 1093 707 1093 z "},"V":{"ha":972,"x_min":56,"x_max":917,"o":"m 917 967 l 563 0 l 410 0 l 56 967 l 185 967 l 490 135 l 794 967 l 917 967 z "},"W":{"ha":1472,"x_min":69,"x_max":1403,"o":"m 1403 967 l 1114 0 l 961 0 l 736 760 l 511 0 l 358 0 l 69 967 l 199 967 l 438 165 l 675 967 l 804 967 l 1042 165 l 1281 967 l 1403 967 z "},"Ẃ":{"ha":1472,"x_min":69,"x_max":1403,"o":"m 1403 967 l 1114 0 l 961 0 l 736 760 l 511 0 l 358 0 l 69 967 l 199 967 l 438 165 l 675 967 l 804 967 l 1042 165 l 1281 967 l 1403 967 m 840 1290 l 996 1290 l 801 1086 l 689 1086 l 840 1290 z "},"Ŵ":{"ha":1472,"x_min":69,"x_max":1403,"o":"m 1403 967 l 1114 0 l 961 0 l 736 760 l 511 0 l 358 0 l 69 967 l 199 967 l 438 165 l 675 967 l 804 967 l 1042 165 l 1281 967 l 1403 967 m 663 1289 l 810 1289 l 940 1071 l 833 1071 l 735 1204 l 639 1071 l 532 1071 l 663 1289 z "},"Ẅ":{"ha":1472,"x_min":69,"x_max":1403,"o":"m 1403 967 l 1114 0 l 961 0 l 736 760 l 511 0 l 358 0 l 69 967 l 199 967 l 438 165 l 675 967 l 804 967 l 1042 165 l 1281 967 l 1403 967 m 603 1090 q 547 1113 568 1090 q 525 1169 525 1135 q 547 1226 525 1204 q 603 1249 568 1249 q 659 1226 638 1249 q 681 1169 681 1204 q 659 1113 681 1135 q 603 1090 638 1090 m 869 1090 q 813 1113 835 1090 q 792 1169 792 1135 q 813 1226 792 1204 q 869 1249 835 1249 q 926 1226 904 1249 q 947 1169 947 1204 q 926 1113 947 1135 q 869 1090 904 1090 z "},"Ẁ":{"ha":1472,"x_min":69,"x_max":1403,"o":"m 1403 967 l 1114 0 l 961 0 l 736 760 l 511 0 l 358 0 l 69 967 l 199 967 l 438 165 l 675 967 l 804 967 l 1042 165 l 1281 967 l 1403 967 m 671 1086 l 476 1290 l 632 1290 l 783 1086 l 671 1086 z "},"X":{"ha":972,"x_min":74,"x_max":899,"o":"m 753 0 l 481 397 l 213 0 l 74 0 l 411 499 l 90 967 l 236 967 l 492 594 l 743 967 l 882 967 l 561 493 l 899 0 l 753 0 z "},"Y":{"ha":917,"x_min":56,"x_max":861,"o":"m 861 967 l 519 353 l 519 0 l 397 0 l 397 353 l 56 967 l 199 967 l 458 483 l 725 967 l 861 967 z "},"Ý":{"ha":917,"x_min":56,"x_max":861,"o":"m 861 967 l 519 353 l 519 0 l 397 0 l 397 353 l 56 967 l 199 967 l 458 483 l 725 967 l 861 967 m 563 1290 l 718 1290 l 524 1086 l 411 1086 l 563 1290 z "},"Ŷ":{"ha":917,"x_min":56,"x_max":861,"o":"m 861 967 l 519 353 l 519 0 l 397 0 l 397 353 l 56 967 l 199 967 l 458 483 l 725 967 l 861 967 m 385 1289 l 532 1289 l 663 1071 l 556 1071 l 457 1204 l 361 1071 l 254 1071 l 385 1289 z "},"Ÿ":{"ha":917,"x_min":56,"x_max":861,"o":"m 861 967 l 519 353 l 519 0 l 397 0 l 397 353 l 56 967 l 199 967 l 458 483 l 725 967 l 861 967 m 325 1090 q 269 1113 290 1090 q 247 1169 247 1135 q 269 1226 247 1204 q 325 1249 290 1249 q 381 1226 360 1249 q 403 1169 403 1204 q 381 1113 403 1135 q 325 1090 360 1090 m 592 1090 q 535 1113 557 1090 q 514 1169 514 1135 q 535 1226 514 1204 q 592 1249 557 1249 q 648 1226 626 1249 q 669 1169 669 1204 q 648 1113 669 1135 q 592 1090 626 1090 z "},"Ỳ":{"ha":917,"x_min":56,"x_max":861,"o":"m 861 967 l 519 353 l 519 0 l 397 0 l 397 353 l 56 967 l 199 967 l 458 483 l 725 967 l 861 967 m 393 1086 l 199 1290 l 354 1290 l 506 1086 l 393 1086 z "},"Ỹ":{"ha":917,"x_min":56,"x_max":861,"o":"m 861 967 l 519 353 l 519 0 l 397 0 l 397 353 l 56 967 l 199 967 l 458 483 l 725 967 l 861 967 m 554 1093 q 505 1102 528 1093 q 451 1128 482 1111 q 398 1153 417 1146 q 356 1160 379 1160 q 229 1093 290 1160 l 229 1189 q 363 1263 293 1263 q 412 1253 389 1263 q 465 1228 435 1244 q 519 1203 500 1210 q 561 1196 538 1196 q 688 1247 626 1196 l 688 1151 q 554 1093 624 1093 z "},"Z":{"ha":917,"x_min":119,"x_max":797,"o":"m 797 106 l 797 0 l 119 0 l 119 90 l 615 861 l 149 861 l 149 967 l 768 967 l 768 876 l 275 106 l 797 106 z "},"Ź":{"ha":917,"x_min":119,"x_max":797,"o":"m 797 106 l 797 0 l 119 0 l 119 90 l 615 861 l 149 861 l 149 967 l 768 967 l 768 876 l 275 106 l 797 106 m 563 1290 l 718 1290 l 524 1086 l 411 1086 l 563 1290 z "},"Ž":{"ha":917,"x_min":119,"x_max":797,"o":"m 797 106 l 797 0 l 119 0 l 119 90 l 615 861 l 149 861 l 149 967 l 768 967 l 768 876 l 275 106 l 797 106 m 361 1289 l 457 1156 l 556 1289 l 663 1289 l 532 1071 l 385 1071 l 254 1289 l 361 1289 z "},"Ż":{"ha":917,"x_min":119,"x_max":797,"o":"m 797 106 l 797 0 l 119 0 l 119 90 l 615 861 l 149 861 l 149 967 l 768 967 l 768 876 l 275 106 l 797 106 m 458 1083 q 395 1108 419 1083 q 371 1172 371 1133 q 395 1236 371 1211 q 458 1261 419 1261 q 522 1236 497 1261 q 546 1172 546 1211 q 522 1108 546 1133 q 458 1083 497 1083 z "},"Ẓ":{"ha":917,"x_min":119,"x_max":797,"o":"m 797 106 l 797 0 l 119 0 l 119 90 l 615 861 l 149 861 l 149 967 l 768 967 l 768 876 l 275 106 l 797 106 m 458 -340 q 402 -318 424 -340 q 381 -261 381 -296 q 402 -204 381 -226 q 458 -182 424 -182 q 515 -204 493 -182 q 536 -261 536 -226 q 515 -318 536 -296 q 458 -340 493 -340 z "},"a":{"ha":806,"x_min":90,"x_max":713,"o":"m 590 0 l 571 104 q 453 14 517 44 q 311 -17 390 -17 q 151 40 213 -17 q 90 189 90 96 q 188 367 90 310 q 438 424 285 424 q 560 417 493 424 l 560 467 q 519 587 560 542 q 413 632 478 632 q 272 611 335 632 q 142 546 208 590 l 142 664 q 275 724 207 707 q 431 742 343 742 q 612 671 542 742 q 682 483 682 600 l 682 161 l 713 0 l 590 0 m 336 86 q 456 114 403 86 q 560 194 508 142 l 560 331 l 432 331 q 222 196 222 331 q 254 116 222 146 q 336 86 286 86 z "},"á":{"ha":806,"x_min":90,"x_max":713,"o":"m 590 0 l 571 104 q 453 14 517 44 q 311 -17 390 -17 q 151 40 213 -17 q 90 189 90 96 q 188 367 90 310 q 438 424 285 424 q 560 417 493 424 l 560 467 q 519 587 560 542 q 413 632 478 632 q 272 611 335 632 q 142 546 208 590 l 142 664 q 275 724 207 707 q 431 742 343 742 q 612 671 542 742 q 682 483 682 600 l 682 161 l 713 0 l 590 0 m 336 86 q 456 114 403 86 q 560 194 508 142 l 560 331 l 432 331 q 222 196 222 331 q 254 116 222 146 q 336 86 286 86 m 496 1086 l 646 1086 l 463 868 l 349 868 l 496 1086 z "},"ă":{"ha":806,"x_min":90,"x_max":713,"o":"m 590 0 l 571 104 q 453 14 517 44 q 311 -17 390 -17 q 151 40 213 -17 q 90 189 90 96 q 188 367 90 310 q 438 424 285 424 q 560 417 493 424 l 560 467 q 519 587 560 542 q 413 632 478 632 q 272 611 335 632 q 142 546 208 590 l 142 664 q 275 724 207 707 q 431 742 343 742 q 612 671 542 742 q 682 483 682 600 l 682 161 l 713 0 l 590 0 m 336 86 q 456 114 403 86 q 560 194 508 142 l 560 331 l 432 331 q 222 196 222 331 q 254 116 222 146 q 336 86 286 86 m 403 889 q 260 933 315 889 q 204 1067 204 978 l 288 1067 q 318 994 288 1018 q 403 969 349 969 q 488 994 457 969 q 518 1067 518 1018 l 601 1067 q 546 933 601 978 q 403 889 490 889 z "},"â":{"ha":806,"x_min":90,"x_max":713,"o":"m 590 0 l 571 104 q 453 14 517 44 q 311 -17 390 -17 q 151 40 213 -17 q 90 189 90 96 q 188 367 90 310 q 438 424 285 424 q 560 417 493 424 l 560 467 q 519 587 560 542 q 413 632 478 632 q 272 611 335 632 q 142 546 208 590 l 142 664 q 275 724 207 707 q 431 742 343 742 q 612 671 542 742 q 682 483 682 600 l 682 161 l 713 0 l 590 0 m 336 86 q 456 114 403 86 q 560 194 508 142 l 560 331 l 432 331 q 222 196 222 331 q 254 116 222 146 q 336 86 286 86 m 329 1086 l 476 1086 l 607 868 l 500 868 l 401 1001 l 306 868 l 199 868 l 329 1086 z "},"ȁ":{"ha":806,"x_min":83,"x_max":713,"o":"m 590 0 l 571 104 q 453 14 517 44 q 311 -17 390 -17 q 151 40 213 -17 q 90 189 90 96 q 188 367 90 310 q 438 424 285 424 q 560 417 493 424 l 560 467 q 519 587 560 542 q 413 632 478 632 q 272 611 335 632 q 142 546 208 590 l 142 664 q 275 724 207 707 q 431 742 343 742 q 612 671 542 742 q 682 483 682 600 l 682 161 l 713 0 l 590 0 m 336 86 q 456 114 403 86 q 560 194 508 142 l 560 331 l 432 331 q 222 196 222 331 q 254 116 222 146 q 336 86 286 86 m 83 1086 l 232 1086 l 349 868 l 236 868 l 83 1086 m 326 1086 l 475 1086 l 592 868 l 479 868 l 326 1086 z "},"ä":{"ha":806,"x_min":90,"x_max":713,"o":"m 590 0 l 571 104 q 453 14 517 44 q 311 -17 390 -17 q 151 40 213 -17 q 90 189 90 96 q 188 367 90 310 q 438 424 285 424 q 560 417 493 424 l 560 467 q 519 587 560 542 q 413 632 478 632 q 272 611 335 632 q 142 546 208 590 l 142 664 q 275 724 207 707 q 431 742 343 742 q 612 671 542 742 q 682 483 682 600 l 682 161 l 713 0 l 590 0 m 336 86 q 456 114 403 86 q 560 194 508 142 l 560 331 l 432 331 q 222 196 222 331 q 254 116 222 146 q 336 86 286 86 m 269 899 q 213 921 235 899 q 192 978 192 943 q 213 1035 192 1013 q 269 1057 235 1057 q 326 1035 304 1057 q 347 978 347 1013 q 326 921 347 943 q 269 899 304 899 m 536 899 q 480 921 501 899 q 458 978 458 943 q 480 1035 458 1013 q 536 1057 501 1057 q 592 1035 571 1057 q 614 978 614 1013 q 592 921 614 943 q 536 899 571 899 z "},"à":{"ha":806,"x_min":90,"x_max":713,"o":"m 590 0 l 571 104 q 453 14 517 44 q 311 -17 390 -17 q 151 40 213 -17 q 90 189 90 96 q 188 367 90 310 q 438 424 285 424 q 560 417 493 424 l 560 467 q 519 587 560 542 q 413 632 478 632 q 272 611 335 632 q 142 546 208 590 l 142 664 q 275 724 207 707 q 431 742 343 742 q 612 671 542 742 q 682 483 682 600 l 682 161 l 713 0 l 590 0 m 336 86 q 456 114 403 86 q 560 194 508 142 l 560 331 l 432 331 q 222 196 222 331 q 254 116 222 146 q 336 86 286 86 m 133 1086 l 289 1086 l 447 868 l 328 868 l 133 1086 z "},"ȃ":{"ha":806,"x_min":90,"x_max":713,"o":"m 590 0 l 571 104 q 453 14 517 44 q 311 -17 390 -17 q 151 40 213 -17 q 90 189 90 96 q 188 367 90 310 q 438 424 285 424 q 560 417 493 424 l 560 467 q 519 587 560 542 q 413 632 478 632 q 272 611 335 632 q 142 546 208 590 l 142 664 q 275 724 207 707 q 431 742 343 742 q 612 671 542 742 q 682 483 682 600 l 682 161 l 713 0 l 590 0 m 336 86 q 456 114 403 86 q 560 194 508 142 l 560 331 l 432 331 q 222 196 222 331 q 254 116 222 146 q 336 86 286 86 m 204 889 q 260 1022 204 978 q 403 1067 315 1067 q 546 1022 490 1067 q 601 889 601 978 l 518 889 q 488 962 518 938 q 403 986 457 986 q 318 962 349 986 q 288 889 288 938 l 204 889 z "},"ā":{"ha":806,"x_min":90,"x_max":713,"o":"m 590 0 l 571 104 q 453 14 517 44 q 311 -17 390 -17 q 151 40 213 -17 q 90 189 90 96 q 188 367 90 310 q 438 424 285 424 q 560 417 493 424 l 560 467 q 519 587 560 542 q 413 632 478 632 q 272 611 335 632 q 142 546 208 590 l 142 664 q 275 724 207 707 q 431 742 343 742 q 612 671 542 742 q 682 483 682 600 l 682 161 l 713 0 l 590 0 m 336 86 q 456 114 403 86 q 560 194 508 142 l 560 331 l 432 331 q 222 196 222 331 q 254 116 222 146 q 336 86 286 86 m 613 1026 l 613 929 l 193 929 l 193 1026 l 613 1026 z "},"ą":{"ha":806,"x_min":90,"x_max":713,"o":"m 619 -225 q 663 -215 639 -225 q 707 -187 686 -204 l 713 -187 l 713 -275 q 607 -310 665 -310 q 515 -276 553 -310 q 476 -181 476 -242 q 508 -76 476 -126 q 589 6 539 -26 l 571 104 q 453 14 517 44 q 311 -17 390 -17 q 151 40 213 -17 q 90 189 90 96 q 188 367 90 310 q 438 424 285 424 q 560 417 493 424 l 560 467 q 519 587 560 542 q 413 632 478 632 q 272 611 335 632 q 142 546 208 590 l 142 664 q 275 724 207 707 q 431 742 343 742 q 612 671 542 742 q 682 483 682 600 l 682 161 l 713 0 q 661 -37 706 -6 q 595 -102 617 -69 q 574 -169 574 -135 q 619 -225 574 -225 m 336 86 q 456 114 403 86 q 560 194 508 142 l 560 331 l 432 331 q 222 196 222 331 q 254 116 222 146 q 336 86 286 86 z "},"å":{"ha":806,"x_min":90,"x_max":713,"o":"m 590 0 l 571 104 q 453 14 517 44 q 311 -17 390 -17 q 151 40 213 -17 q 90 189 90 96 q 188 367 90 310 q 438 424 285 424 q 560 417 493 424 l 560 467 q 519 587 560 542 q 413 632 478 632 q 272 611 335 632 q 142 546 208 590 l 142 664 q 275 724 207 707 q 431 742 343 742 q 612 671 542 742 q 682 483 682 600 l 682 161 l 713 0 l 590 0 m 336 86 q 456 114 403 86 q 560 194 508 142 l 560 331 l 432 331 q 222 196 222 331 q 254 116 222 146 q 336 86 286 86 m 265 976 q 303 1076 265 1039 q 403 1114 342 1114 q 502 1076 464 1114 q 540 976 540 1039 q 502 876 540 914 q 403 839 464 839 q 303 876 342 839 q 265 976 265 914 m 336 978 q 353 926 336 944 q 403 907 371 907 q 451 926 433 907 q 468 978 468 944 q 451 1026 468 1010 q 403 1043 435 1043 q 353 1026 371 1043 q 336 978 336 1010 z "},"ǻ":{"ha":806,"x_min":90,"x_max":713,"o":"m 403 839 q 303 876 342 839 q 265 976 265 914 q 291 1062 265 1026 q 361 1108 317 1097 l 492 1289 l 631 1289 l 464 1101 q 520 1053 500 1086 q 540 976 540 1021 q 502 876 540 914 q 403 839 464 839 m 403 907 q 451 926 433 907 q 468 978 468 944 q 451 1026 468 1010 q 403 1043 435 1043 q 353 1026 371 1043 q 336 978 336 1010 q 353 926 336 944 q 403 907 371 907 m 590 0 l 571 104 q 453 14 517 44 q 311 -17 390 -17 q 151 40 213 -17 q 90 189 90 96 q 188 367 90 310 q 438 424 285 424 q 560 417 493 424 l 560 467 q 519 587 560 542 q 413 632 478 632 q 272 611 335 632 q 142 546 208 590 l 142 664 q 275 724 207 707 q 431 742 343 742 q 612 671 542 742 q 682 483 682 600 l 682 161 l 713 0 l 590 0 m 336 86 q 456 114 403 86 q 560 194 508 142 l 560 331 l 432 331 q 222 196 222 331 q 254 116 222 146 q 336 86 286 86 z "},"ã":{"ha":806,"x_min":90,"x_max":713,"o":"m 590 0 l 571 104 q 453 14 517 44 q 311 -17 390 -17 q 151 40 213 -17 q 90 189 90 96 q 188 367 90 310 q 438 424 285 424 q 560 417 493 424 l 560 467 q 519 587 560 542 q 413 632 478 632 q 272 611 335 632 q 142 546 208 590 l 142 664 q 275 724 207 707 q 431 742 343 742 q 612 671 542 742 q 682 483 682 600 l 682 161 l 713 0 l 590 0 m 336 86 q 456 114 403 86 q 560 194 508 142 l 560 331 l 432 331 q 222 196 222 331 q 254 116 222 146 q 336 86 286 86 m 499 881 q 449 890 472 881 q 396 915 426 899 q 342 940 361 933 q 300 947 324 947 q 174 881 235 947 l 174 982 q 307 1056 238 1056 q 356 1047 333 1056 q 410 1021 379 1038 q 463 996 444 1003 q 506 989 482 989 q 632 1040 571 989 l 632 939 q 499 881 568 881 z "},"æ":{"ha":1315,"x_min":90,"x_max":1221,"o":"m 942 -17 q 772 18 846 -17 q 651 118 699 53 q 509 17 586 51 q 331 -17 432 -17 q 157 43 224 -17 q 90 204 90 103 q 185 371 90 318 q 429 424 279 424 q 579 415 503 424 l 579 467 q 533 588 579 542 q 414 635 488 635 q 278 613 339 635 q 151 546 217 592 l 151 664 q 281 724 215 707 q 432 742 347 742 q 567 712 508 742 q 661 628 626 682 q 766 712 704 682 q 904 742 828 742 q 1076 692 1004 742 q 1184 557 1147 643 q 1221 363 1221 471 l 1221 322 l 706 322 q 778 153 717 217 q 943 89 839 89 q 1065 115 1006 89 q 1185 190 1124 140 l 1190 190 l 1190 68 q 1069 3 1129 24 q 942 -17 1010 -17 m 906 640 q 768 578 819 640 q 707 417 717 515 l 1094 417 q 1039 578 1086 517 q 906 640 992 640 m 356 86 q 492 112 432 86 q 614 186 551 138 q 579 331 586 249 l 424 331 q 222 211 222 331 q 260 120 222 154 q 356 86 297 86 z "},"ǽ":{"ha":1315,"x_min":90,"x_max":1221,"o":"m 942 -17 q 772 18 846 -17 q 651 118 699 53 q 509 17 586 51 q 331 -17 432 -17 q 157 43 224 -17 q 90 204 90 103 q 185 371 90 318 q 429 424 279 424 q 579 415 503 424 l 579 467 q 533 588 579 542 q 414 635 488 635 q 278 613 339 635 q 151 546 217 592 l 151 664 q 281 724 215 707 q 432 742 347 742 q 567 712 508 742 q 661 628 626 682 q 766 712 704 682 q 904 742 828 742 q 1076 692 1004 742 q 1184 557 1147 643 q 1221 363 1221 471 l 1221 322 l 706 322 q 778 153 717 217 q 943 89 839 89 q 1065 115 1006 89 q 1185 190 1124 140 l 1190 190 l 1190 68 q 1069 3 1129 24 q 942 -17 1010 -17 m 906 640 q 768 578 819 640 q 707 417 717 515 l 1094 417 q 1039 578 1086 517 q 906 640 992 640 m 356 86 q 492 112 432 86 q 614 186 551 138 q 579 331 586 249 l 424 331 q 222 211 222 331 q 260 120 222 154 q 356 86 297 86 m 749 1086 l 899 1086 l 715 868 l 601 868 l 749 1086 z "},"b":{"ha":889,"x_min":142,"x_max":783,"o":"m 488 742 q 649 692 582 742 q 749 556 715 642 q 783 361 783 469 q 744 167 783 253 q 630 33 704 82 q 454 -15 556 -15 q 358 -4 403 -15 q 264 28 314 7 l 264 0 l 142 0 l 142 1047 l 264 1047 l 264 647 q 488 742 354 742 m 442 93 q 597 168 542 93 q 651 361 651 243 q 609 554 651 479 q 476 629 567 629 q 362 603 413 629 q 264 525 311 576 l 264 121 q 442 93 354 93 z "},"c":{"ha":750,"x_min":82,"x_max":663,"o":"m 417 -17 q 239 32 315 -17 q 122 166 163 81 q 82 360 82 251 q 122 556 82 469 q 239 692 163 643 q 418 742 315 742 q 544 726 490 742 q 647 671 599 711 l 647 553 l 642 553 q 538 613 592 594 q 417 631 485 631 q 265 554 318 631 q 211 358 211 478 q 265 169 211 243 q 415 94 318 94 q 544 117 488 94 q 657 190 601 140 l 663 190 l 663 72 q 552 3 611 24 q 417 -17 493 -17 z "},"ć":{"ha":750,"x_min":82,"x_max":663,"o":"m 417 -17 q 239 32 315 -17 q 122 166 163 81 q 82 360 82 251 q 122 556 82 469 q 239 692 163 643 q 418 742 315 742 q 544 726 490 742 q 647 671 599 711 l 647 553 l 642 553 q 538 613 592 594 q 417 631 485 631 q 265 554 318 631 q 211 358 211 478 q 265 169 211 243 q 415 94 318 94 q 544 117 488 94 q 657 190 601 140 l 663 190 l 663 72 q 552 3 611 24 q 417 -17 493 -17 m 511 1086 l 661 1086 l 478 868 l 364 868 l 511 1086 z "},"č":{"ha":750,"x_min":82,"x_max":663,"o":"m 417 -17 q 239 32 315 -17 q 122 166 163 81 q 82 360 82 251 q 122 556 82 469 q 239 692 163 643 q 418 742 315 742 q 544 726 490 742 q 647 671 599 711 l 647 553 l 642 553 q 538 613 592 594 q 417 631 485 631 q 265 554 318 631 q 211 358 211 478 q 265 169 211 243 q 415 94 318 94 q 544 117 488 94 q 657 190 601 140 l 663 190 l 663 72 q 552 3 611 24 q 417 -17 493 -17 m 321 1086 l 417 953 l 515 1086 l 622 1086 l 492 868 l 344 868 l 214 1086 l 321 1086 z "},"ç":{"ha":750,"x_min":82,"x_max":663,"o":"m 663 72 q 489 -11 588 4 q 557 -190 557 -110 q 510 -300 557 -261 q 393 -339 463 -339 q 264 -303 331 -339 l 264 -221 l 269 -221 q 383 -256 332 -256 q 458 -182 458 -256 q 439 -102 458 -146 q 381 -15 419 -58 q 222 44 289 -7 q 118 176 154 94 q 82 360 82 258 q 122 556 82 469 q 239 692 163 643 q 418 742 315 742 q 544 726 490 742 q 647 671 599 711 l 647 553 l 642 553 q 538 613 592 594 q 417 631 485 631 q 265 554 318 631 q 211 358 211 478 q 265 169 211 243 q 415 94 318 94 q 544 117 488 94 q 657 190 601 140 l 663 190 l 663 72 z "},"ĉ":{"ha":750,"x_min":82,"x_max":663,"o":"m 417 -17 q 239 32 315 -17 q 122 166 163 81 q 82 360 82 251 q 122 556 82 469 q 239 692 163 643 q 418 742 315 742 q 544 726 490 742 q 647 671 599 711 l 647 553 l 642 553 q 538 613 592 594 q 417 631 485 631 q 265 554 318 631 q 211 358 211 478 q 265 169 211 243 q 415 94 318 94 q 544 117 488 94 q 657 190 601 140 l 663 190 l 663 72 q 552 3 611 24 q 417 -17 493 -17 m 344 1086 l 492 1086 l 622 868 l 515 868 l 417 1001 l 321 868 l 214 868 l 344 1086 z "},"ċ":{"ha":750,"x_min":82,"x_max":663,"o":"m 417 -17 q 239 32 315 -17 q 122 166 163 81 q 82 360 82 251 q 122 556 82 469 q 239 692 163 643 q 418 742 315 742 q 544 726 490 742 q 647 671 599 711 l 647 553 l 642 553 q 538 613 592 594 q 417 631 485 631 q 265 554 318 631 q 211 358 211 478 q 265 169 211 243 q 415 94 318 94 q 544 117 488 94 q 657 190 601 140 l 663 190 l 663 72 q 552 3 611 24 q 417 -17 493 -17 m 418 889 q 355 914 379 889 q 331 978 331 939 q 355 1042 331 1017 q 418 1067 379 1067 q 481 1042 457 1067 q 506 978 506 1017 q 481 914 506 939 q 418 889 457 889 z "},"d":{"ha":889,"x_min":101,"x_max":774,"o":"m 651 0 l 633 96 q 521 13 583 40 q 381 -15 458 -15 q 174 89 246 -15 q 101 356 101 193 q 141 554 101 467 q 255 692 181 642 q 432 742 329 742 q 526 730 482 742 q 621 696 571 718 l 621 1047 l 743 1047 l 743 161 l 774 0 l 651 0 m 400 97 q 519 124 467 97 q 621 204 571 151 l 621 603 q 444 633 532 633 q 288 556 343 633 q 233 358 233 479 q 273 170 233 243 q 400 97 313 97 z "},"ð":{"ha":833,"x_min":96,"x_max":768,"o":"m 768 858 l 667 839 q 768 443 768 672 q 677 104 768 225 q 418 -17 586 -17 q 182 78 268 -17 q 96 335 96 172 q 188 595 96 503 q 438 688 279 688 q 617 640 540 688 q 539 817 593 738 l 340 779 l 340 876 l 467 900 q 296 1026 397 968 l 296 1032 l 431 1063 q 603 925 529 1010 l 768 956 l 768 858 m 419 96 q 636 453 636 96 q 635 514 636 494 q 436 576 536 576 q 281 514 336 576 q 226 333 226 451 q 276 158 226 221 q 419 96 326 96 z "},"ď":{"ha":1028,"x_min":101,"x_max":1071,"o":"m 651 0 l 633 96 q 521 13 583 40 q 381 -15 458 -15 q 174 89 246 -15 q 101 356 101 193 q 141 554 101 467 q 255 692 181 642 q 432 742 329 742 q 526 730 482 742 q 621 696 571 718 l 621 1047 l 743 1047 l 743 161 l 774 0 l 651 0 m 400 97 q 519 124 467 97 q 621 204 571 151 l 621 603 q 444 633 532 633 q 288 556 343 633 q 233 358 233 479 q 273 170 233 243 q 400 97 313 97 m 1071 1086 q 1052 958 1071 1024 q 985 807 1033 893 l 874 807 q 931 949 919 888 q 943 1086 943 1010 l 1071 1086 z "},"đ":{"ha":889,"x_min":101,"x_max":863,"o":"m 743 829 l 743 161 l 774 0 l 651 0 l 633 96 q 521 13 583 40 q 381 -15 458 -15 q 174 89 246 -15 q 101 356 101 193 q 141 554 101 467 q 255 692 181 642 q 432 742 329 742 q 526 730 482 742 q 621 696 571 718 l 621 829 l 474 829 l 474 935 l 621 935 l 621 1047 l 743 1047 l 743 935 l 863 935 l 863 829 l 743 829 m 400 97 q 519 124 467 97 q 621 204 571 151 l 621 603 q 444 633 532 633 q 288 556 343 633 q 233 358 233 479 q 273 170 233 243 q 400 97 313 97 z "},"ḍ":{"ha":889,"x_min":101,"x_max":774,"o":"m 651 0 l 633 96 q 521 13 583 40 q 381 -15 458 -15 q 174 89 246 -15 q 101 356 101 193 q 141 554 101 467 q 255 692 181 642 q 432 742 329 742 q 526 730 482 742 q 621 696 571 718 l 621 1047 l 743 1047 l 743 161 l 774 0 l 651 0 m 400 97 q 519 124 467 97 q 621 204 571 151 l 621 603 q 444 633 532 633 q 288 556 343 633 q 233 358 233 479 q 273 170 233 243 q 400 97 313 97 m 444 -340 q 388 -318 410 -340 q 367 -261 367 -296 q 388 -204 367 -226 q 444 -182 410 -182 q 501 -204 479 -182 q 522 -261 522 -226 q 501 -318 522 -296 q 444 -340 479 -340 z "},"ǳ":{"ha":1611,"x_min":101,"x_max":1557,"o":"m 651 0 l 633 96 q 521 13 583 40 q 381 -15 458 -15 q 174 89 246 -15 q 101 356 101 193 q 141 554 101 467 q 255 692 181 642 q 432 742 329 742 q 526 730 482 742 q 621 696 571 718 l 621 1047 l 743 1047 l 743 161 l 774 0 l 651 0 m 400 97 q 519 124 467 97 q 621 204 571 151 l 621 603 q 444 633 532 633 q 288 556 343 633 q 233 358 233 479 q 273 170 233 243 q 400 97 313 97 m 1557 96 l 1557 0 l 943 0 l 943 82 l 1371 629 l 974 629 l 974 725 l 1526 725 l 1526 643 l 1100 96 l 1557 96 z "},"ǆ":{"ha":1611,"x_min":101,"x_max":1557,"o":"m 651 0 l 633 96 q 521 13 583 40 q 381 -15 458 -15 q 174 89 246 -15 q 101 356 101 193 q 141 554 101 467 q 255 692 181 642 q 432 742 329 742 q 526 730 482 742 q 621 696 571 718 l 621 1047 l 743 1047 l 743 161 l 774 0 l 651 0 m 400 97 q 519 124 467 97 q 621 204 571 151 l 621 603 q 444 633 532 633 q 288 556 343 633 q 233 358 233 479 q 273 170 233 243 q 400 97 313 97 m 1557 96 l 1557 0 l 943 0 l 943 82 l 1371 629 l 974 629 l 974 725 l 1526 725 l 1526 643 l 1100 96 l 1557 96 m 1153 1086 l 1249 953 l 1347 1086 l 1454 1086 l 1324 868 l 1176 868 l 1046 1086 l 1153 1086 z "},"e":{"ha":833,"x_min":97,"x_max":739,"o":"m 739 322 l 225 322 q 297 152 236 215 q 461 89 357 89 q 583 115 524 89 q 703 190 642 140 l 708 190 l 708 68 q 588 3 647 24 q 460 -17 528 -17 q 267 32 349 -17 q 141 167 185 81 q 97 367 97 254 q 137 559 97 474 q 250 693 176 644 q 422 742 324 742 q 594 692 522 742 q 702 557 665 643 q 739 363 739 471 l 739 322 m 424 640 q 286 578 338 640 q 225 417 235 515 l 613 417 q 556 579 603 518 q 424 640 510 640 z "},"é":{"ha":833,"x_min":97,"x_max":739,"o":"m 739 322 l 225 322 q 297 152 236 215 q 461 89 357 89 q 583 115 524 89 q 703 190 642 140 l 708 190 l 708 68 q 588 3 647 24 q 460 -17 528 -17 q 267 32 349 -17 q 141 167 185 81 q 97 367 97 254 q 137 559 97 474 q 250 693 176 644 q 422 742 324 742 q 594 692 522 742 q 702 557 665 643 q 739 363 739 471 l 739 322 m 424 640 q 286 578 338 640 q 225 417 235 515 l 613 417 q 556 579 603 518 q 424 640 510 640 m 515 1086 l 665 1086 l 482 868 l 368 868 l 515 1086 z "},"ĕ":{"ha":833,"x_min":97,"x_max":739,"o":"m 739 322 l 225 322 q 297 152 236 215 q 461 89 357 89 q 583 115 524 89 q 703 190 642 140 l 708 190 l 708 68 q 588 3 647 24 q 460 -17 528 -17 q 267 32 349 -17 q 141 167 185 81 q 97 367 97 254 q 137 559 97 474 q 250 693 176 644 q 422 742 324 742 q 594 692 522 742 q 702 557 665 643 q 739 363 739 471 l 739 322 m 424 640 q 286 578 338 640 q 225 417 235 515 l 613 417 q 556 579 603 518 q 424 640 510 640 m 422 889 q 279 933 335 889 q 224 1067 224 978 l 307 1067 q 338 994 307 1018 q 422 969 368 969 q 507 994 476 969 q 538 1067 538 1018 l 621 1067 q 565 933 621 978 q 422 889 510 889 z "},"ě":{"ha":833,"x_min":97,"x_max":739,"o":"m 739 322 l 225 322 q 297 152 236 215 q 461 89 357 89 q 583 115 524 89 q 703 190 642 140 l 708 190 l 708 68 q 588 3 647 24 q 460 -17 528 -17 q 267 32 349 -17 q 141 167 185 81 q 97 367 97 254 q 137 559 97 474 q 250 693 176 644 q 422 742 324 742 q 594 692 522 742 q 702 557 665 643 q 739 363 739 471 l 739 322 m 424 640 q 286 578 338 640 q 225 417 235 515 l 613 417 q 556 579 603 518 q 424 640 510 640 m 325 1086 l 421 953 l 519 1086 l 626 1086 l 496 868 l 349 868 l 218 1086 l 325 1086 z "},"ê":{"ha":833,"x_min":97,"x_max":739,"o":"m 739 322 l 225 322 q 297 152 236 215 q 461 89 357 89 q 583 115 524 89 q 703 190 642 140 l 708 190 l 708 68 q 588 3 647 24 q 460 -17 528 -17 q 267 32 349 -17 q 141 167 185 81 q 97 367 97 254 q 137 559 97 474 q 250 693 176 644 q 422 742 324 742 q 594 692 522 742 q 702 557 665 643 q 739 363 739 471 l 739 322 m 424 640 q 286 578 338 640 q 225 417 235 515 l 613 417 q 556 579 603 518 q 424 640 510 640 m 349 1086 l 496 1086 l 626 868 l 519 868 l 421 1001 l 325 868 l 218 868 l 349 1086 z "},"ȅ":{"ha":833,"x_min":97,"x_max":739,"o":"m 739 322 l 225 322 q 297 152 236 215 q 461 89 357 89 q 583 115 524 89 q 703 190 642 140 l 708 190 l 708 68 q 588 3 647 24 q 460 -17 528 -17 q 267 32 349 -17 q 141 167 185 81 q 97 367 97 254 q 137 559 97 474 q 250 693 176 644 q 422 742 324 742 q 594 692 522 742 q 702 557 665 643 q 739 363 739 471 l 739 322 m 424 640 q 286 578 338 640 q 225 417 235 515 l 613 417 q 556 579 603 518 q 424 640 510 640 m 103 1086 l 251 1086 l 368 868 l 256 868 l 103 1086 m 346 1086 l 494 1086 l 611 868 l 499 868 l 346 1086 z "},"ë":{"ha":833,"x_min":97,"x_max":739,"o":"m 739 322 l 225 322 q 297 152 236 215 q 461 89 357 89 q 583 115 524 89 q 703 190 642 140 l 708 190 l 708 68 q 588 3 647 24 q 460 -17 528 -17 q 267 32 349 -17 q 141 167 185 81 q 97 367 97 254 q 137 559 97 474 q 250 693 176 644 q 422 742 324 742 q 594 692 522 742 q 702 557 665 643 q 739 363 739 471 l 739 322 m 424 640 q 286 578 338 640 q 225 417 235 515 l 613 417 q 556 579 603 518 q 424 640 510 640 m 289 899 q 233 921 254 899 q 211 978 211 943 q 233 1035 211 1013 q 289 1057 254 1057 q 345 1035 324 1057 q 367 978 367 1013 q 345 921 367 943 q 289 899 324 899 m 556 899 q 499 921 521 899 q 478 978 478 943 q 499 1035 478 1013 q 556 1057 521 1057 q 612 1035 590 1057 q 633 978 633 1013 q 612 921 633 943 q 556 899 590 899 z "},"ė":{"ha":833,"x_min":97,"x_max":739,"o":"m 739 322 l 225 322 q 297 152 236 215 q 461 89 357 89 q 583 115 524 89 q 703 190 642 140 l 708 190 l 708 68 q 588 3 647 24 q 460 -17 528 -17 q 267 32 349 -17 q 141 167 185 81 q 97 367 97 254 q 137 559 97 474 q 250 693 176 644 q 422 742 324 742 q 594 692 522 742 q 702 557 665 643 q 739 363 739 471 l 739 322 m 424 640 q 286 578 338 640 q 225 417 235 515 l 613 417 q 556 579 603 518 q 424 640 510 640 m 422 889 q 359 914 383 889 q 335 978 335 939 q 359 1042 335 1017 q 422 1067 383 1067 q 485 1042 461 1067 q 510 978 510 1017 q 485 914 510 939 q 422 889 461 889 z "},"ẹ":{"ha":833,"x_min":97,"x_max":739,"o":"m 739 322 l 225 322 q 297 152 236 215 q 461 89 357 89 q 583 115 524 89 q 703 190 642 140 l 708 190 l 708 68 q 588 3 647 24 q 460 -17 528 -17 q 267 32 349 -17 q 141 167 185 81 q 97 367 97 254 q 137 559 97 474 q 250 693 176 644 q 422 742 324 742 q 594 692 522 742 q 702 557 665 643 q 739 363 739 471 l 739 322 m 424 640 q 286 578 338 640 q 225 417 235 515 l 613 417 q 556 579 603 518 q 424 640 510 640 m 417 -340 q 360 -318 382 -340 q 339 -261 339 -296 q 360 -204 339 -226 q 417 -182 382 -182 q 473 -204 451 -182 q 494 -261 494 -226 q 473 -318 494 -296 q 417 -340 451 -340 z "},"è":{"ha":833,"x_min":97,"x_max":739,"o":"m 739 322 l 225 322 q 297 152 236 215 q 461 89 357 89 q 583 115 524 89 q 703 190 642 140 l 708 190 l 708 68 q 588 3 647 24 q 460 -17 528 -17 q 267 32 349 -17 q 141 167 185 81 q 97 367 97 254 q 137 559 97 474 q 250 693 176 644 q 422 742 324 742 q 594 692 522 742 q 702 557 665 643 q 739 363 739 471 l 739 322 m 424 640 q 286 578 338 640 q 225 417 235 515 l 613 417 q 556 579 603 518 q 424 640 510 640 m 153 1086 l 308 1086 l 467 868 l 347 868 l 153 1086 z "},"ȇ":{"ha":833,"x_min":97,"x_max":739,"o":"m 739 322 l 225 322 q 297 152 236 215 q 461 89 357 89 q 583 115 524 89 q 703 190 642 140 l 708 190 l 708 68 q 588 3 647 24 q 460 -17 528 -17 q 267 32 349 -17 q 141 167 185 81 q 97 367 97 254 q 137 559 97 474 q 250 693 176 644 q 422 742 324 742 q 594 692 522 742 q 702 557 665 643 q 739 363 739 471 l 739 322 m 424 640 q 286 578 338 640 q 225 417 235 515 l 613 417 q 556 579 603 518 q 424 640 510 640 m 224 889 q 279 1022 224 978 q 422 1067 335 1067 q 565 1022 510 1067 q 621 889 621 978 l 538 889 q 507 962 538 938 q 422 986 476 986 q 338 962 368 986 q 307 889 307 938 l 224 889 z "},"ē":{"ha":833,"x_min":97,"x_max":739,"o":"m 739 322 l 225 322 q 297 152 236 215 q 461 89 357 89 q 583 115 524 89 q 703 190 642 140 l 708 190 l 708 68 q 588 3 647 24 q 460 -17 528 -17 q 267 32 349 -17 q 141 167 185 81 q 97 367 97 254 q 137 559 97 474 q 250 693 176 644 q 422 742 324 742 q 594 692 522 742 q 702 557 665 643 q 739 363 739 471 l 739 322 m 424 640 q 286 578 338 640 q 225 417 235 515 l 613 417 q 556 579 603 518 q 424 640 510 640 m 632 1026 l 632 929 l 213 929 l 213 1026 l 632 1026 z "},"ę":{"ha":833,"x_min":97,"x_max":739,"o":"m 739 322 l 225 322 q 297 152 236 215 q 461 89 357 89 q 583 115 524 89 q 703 190 642 140 l 708 190 l 708 68 l 697 60 q 608 -7 638 18 q 560 -62 578 -32 q 542 -135 542 -93 q 562 -203 542 -179 q 614 -226 582 -226 q 703 -189 656 -226 l 708 -189 l 708 -276 q 603 -311 661 -311 q 491 -266 538 -311 q 444 -144 444 -221 q 486 -15 444 -75 q 460 -17 476 -17 q 267 32 349 -17 q 141 167 185 81 q 97 367 97 254 q 137 559 97 474 q 250 693 176 644 q 422 742 324 742 q 594 692 522 742 q 702 557 665 643 q 739 363 739 471 l 739 322 m 424 640 q 286 578 338 640 q 225 417 235 515 l 613 417 q 556 579 603 518 q 424 640 510 640 z "},"ẽ":{"ha":833,"x_min":97,"x_max":739,"o":"m 739 322 l 225 322 q 297 152 236 215 q 461 89 357 89 q 583 115 524 89 q 703 190 642 140 l 708 190 l 708 68 q 588 3 647 24 q 460 -17 528 -17 q 267 32 349 -17 q 141 167 185 81 q 97 367 97 254 q 137 559 97 474 q 250 693 176 644 q 422 742 324 742 q 594 692 522 742 q 702 557 665 643 q 739 363 739 471 l 739 322 m 424 640 q 286 578 338 640 q 225 417 235 515 l 613 417 q 556 579 603 518 q 424 640 510 640 m 518 881 q 469 890 492 881 q 415 915 446 899 q 362 940 381 933 q 319 947 343 947 q 193 881 254 947 l 193 982 q 326 1056 257 1056 q 376 1047 353 1056 q 429 1021 399 1038 q 483 996 464 1003 q 525 989 501 989 q 651 1040 590 989 l 651 939 q 518 881 588 881 z "},"f":{"ha":500,"x_min":32,"x_max":507,"o":"m 171 619 l 32 619 l 32 725 l 171 725 l 171 808 q 227 997 171 929 q 396 1064 283 1064 q 450 1058 426 1064 q 507 1040 474 1053 l 507 935 q 461 952 479 947 q 421 957 443 957 q 324 920 354 957 q 293 822 293 883 l 293 725 l 493 725 l 493 619 l 293 619 l 293 0 l 171 0 l 171 619 z "},"g":{"ha":861,"x_min":92,"x_max":764,"o":"m 764 726 l 733 565 l 733 47 q 649 -237 733 -136 q 397 -339 564 -339 q 244 -321 304 -339 q 121 -249 185 -303 l 121 -125 q 249 -203 189 -182 q 397 -225 308 -225 q 558 -158 504 -225 q 611 31 611 -90 l 611 67 q 519 23 565 36 q 408 10 472 10 q 172 104 251 10 q 92 369 92 199 q 175 644 92 546 q 422 742 258 742 q 526 730 482 742 q 632 690 569 718 l 642 726 l 764 726 m 410 122 q 517 138 471 122 q 611 186 563 153 l 611 606 q 527 627 567 621 q 436 633 488 633 q 276 564 328 633 q 224 371 224 494 q 410 122 224 122 z "},"ǵ":{"ha":861,"x_min":92,"x_max":764,"o":"m 764 726 l 733 565 l 733 47 q 649 -237 733 -136 q 397 -339 564 -339 q 244 -321 304 -339 q 121 -249 185 -303 l 121 -125 q 249 -203 189 -182 q 397 -225 308 -225 q 558 -158 504 -225 q 611 31 611 -90 l 611 67 q 519 23 565 36 q 408 10 472 10 q 172 104 251 10 q 92 369 92 199 q 175 644 92 546 q 422 742 258 742 q 526 730 482 742 q 632 690 569 718 l 642 726 l 764 726 m 410 122 q 517 138 471 122 q 611 186 563 153 l 611 606 q 527 627 567 621 q 436 633 488 633 q 276 564 328 633 q 224 371 224 494 q 410 122 224 122 m 549 1086 l 699 1086 l 515 868 l 401 868 l 549 1086 z "},"ğ":{"ha":861,"x_min":92,"x_max":764,"o":"m 764 726 l 733 565 l 733 47 q 649 -237 733 -136 q 397 -339 564 -339 q 244 -321 304 -339 q 121 -249 185 -303 l 121 -125 q 249 -203 189 -182 q 397 -225 308 -225 q 558 -158 504 -225 q 611 31 611 -90 l 611 67 q 519 23 565 36 q 408 10 472 10 q 172 104 251 10 q 92 369 92 199 q 175 644 92 546 q 422 742 258 742 q 526 730 482 742 q 632 690 569 718 l 642 726 l 764 726 m 410 122 q 517 138 471 122 q 611 186 563 153 l 611 606 q 527 627 567 621 q 436 633 488 633 q 276 564 328 633 q 224 371 224 494 q 410 122 224 122 m 456 889 q 313 933 368 889 q 257 1067 257 978 l 340 1067 q 371 994 340 1018 q 456 969 401 969 q 540 994 510 969 q 571 1067 571 1018 l 654 1067 q 599 933 654 978 q 456 889 543 889 z "},"ĝ":{"ha":861,"x_min":92,"x_max":764,"o":"m 764 726 l 733 565 l 733 47 q 649 -237 733 -136 q 397 -339 564 -339 q 244 -321 304 -339 q 121 -249 185 -303 l 121 -125 q 249 -203 189 -182 q 397 -225 308 -225 q 558 -158 504 -225 q 611 31 611 -90 l 611 67 q 519 23 565 36 q 408 10 472 10 q 172 104 251 10 q 92 369 92 199 q 175 644 92 546 q 422 742 258 742 q 526 730 482 742 q 632 690 569 718 l 642 726 l 764 726 m 410 122 q 517 138 471 122 q 611 186 563 153 l 611 606 q 527 627 567 621 q 436 633 488 633 q 276 564 328 633 q 224 371 224 494 q 410 122 224 122 m 382 1086 l 529 1086 l 660 868 l 553 868 l 454 1001 l 358 868 l 251 868 l 382 1086 z "},"ģ":{"ha":861,"x_min":92,"x_max":764,"o":"m 764 726 l 733 565 l 733 47 q 649 -237 733 -136 q 397 -339 564 -339 q 244 -321 304 -339 q 121 -249 185 -303 l 121 -125 q 249 -203 189 -182 q 397 -225 308 -225 q 558 -158 504 -225 q 611 31 611 -90 l 611 67 q 519 23 565 36 q 408 10 472 10 q 172 104 251 10 q 92 369 92 199 q 175 644 92 546 q 422 742 258 742 q 526 730 482 742 q 632 690 569 718 l 642 726 l 764 726 m 410 122 q 517 138 471 122 q 611 186 563 153 l 611 606 q 527 627 567 621 q 436 633 488 633 q 276 564 328 633 q 224 371 224 494 q 410 122 224 122 m 401 868 q 420 968 401 917 q 488 1086 439 1019 l 599 1086 q 541 975 553 1022 q 529 868 529 928 l 401 868 z "},"ġ":{"ha":861,"x_min":92,"x_max":764,"o":"m 764 726 l 733 565 l 733 47 q 649 -237 733 -136 q 397 -339 564 -339 q 244 -321 304 -339 q 121 -249 185 -303 l 121 -125 q 249 -203 189 -182 q 397 -225 308 -225 q 558 -158 504 -225 q 611 31 611 -90 l 611 67 q 519 23 565 36 q 408 10 472 10 q 172 104 251 10 q 92 369 92 199 q 175 644 92 546 q 422 742 258 742 q 526 730 482 742 q 632 690 569 718 l 642 726 l 764 726 m 410 122 q 517 138 471 122 q 611 186 563 153 l 611 606 q 527 627 567 621 q 436 633 488 633 q 276 564 328 633 q 224 371 224 494 q 410 122 224 122 m 456 889 q 392 914 417 889 q 368 978 368 939 q 392 1042 368 1017 q 456 1067 417 1067 q 519 1042 494 1067 q 543 978 543 1017 q 519 914 543 939 q 456 889 494 889 z "},"h":{"ha":889,"x_min":154,"x_max":735,"o":"m 526 742 q 682 678 629 742 q 735 503 735 615 l 735 0 l 613 0 l 613 486 q 583 594 613 556 q 494 632 554 632 q 380 610 426 632 q 276 538 333 588 l 276 0 l 154 0 l 154 1047 l 276 1047 l 276 635 q 392 716 338 690 q 526 742 447 742 z "},"ħ":{"ha":889,"x_min":63,"x_max":735,"o":"m 526 742 q 682 678 629 742 q 735 503 735 615 l 735 0 l 613 0 l 613 486 q 583 594 613 556 q 494 632 554 632 q 380 610 426 632 q 276 538 333 588 l 276 0 l 154 0 l 154 829 l 63 829 l 63 935 l 154 935 l 154 1047 l 276 1047 l 276 935 l 451 935 l 451 829 l 276 829 l 276 635 q 392 716 338 690 q 526 742 447 742 z "},"ĥ":{"ha":889,"x_min":154,"x_max":735,"o":"m 526 742 q 682 678 629 742 q 735 503 735 615 l 735 0 l 613 0 l 613 486 q 583 594 613 556 q 494 632 554 632 q 380 610 426 632 q 276 538 333 588 l 276 0 l 154 0 l 154 1047 l 276 1047 l 276 635 q 392 716 338 690 q 526 742 447 742 m 371 1289 l 518 1289 l 649 1071 l 542 1071 l 443 1204 l 347 1071 l 240 1071 l 371 1289 z "},"ḥ":{"ha":889,"x_min":154,"x_max":735,"o":"m 526 742 q 682 678 629 742 q 735 503 735 615 l 735 0 l 613 0 l 613 486 q 583 594 613 556 q 494 632 554 632 q 380 610 426 632 q 276 538 333 588 l 276 0 l 154 0 l 154 1047 l 276 1047 l 276 635 q 392 716 338 690 q 526 742 447 742 m 444 -340 q 388 -318 410 -340 q 367 -261 367 -296 q 388 -204 367 -226 q 444 -182 410 -182 q 501 -204 479 -182 q 522 -261 522 -226 q 501 -318 522 -296 q 444 -340 479 -340 z "},"i":{"ha":389,"x_min":107,"x_max":282,"o":"m 194 889 q 131 914 156 889 q 107 978 107 939 q 131 1042 107 1017 q 194 1067 156 1067 q 258 1042 233 1067 q 282 978 282 1017 q 258 914 282 939 q 194 889 233 889 m 256 725 l 256 0 l 133 0 l 133 725 l 256 725 z "},"ı":{"ha":389,"x_min":133,"x_max":256,"o":"m 256 725 l 256 0 l 133 0 l 133 725 l 256 725 z "},"í":{"ha":389,"x_min":133,"x_max":438,"o":"m 256 725 l 256 0 l 133 0 l 133 725 l 256 725 m 288 1086 l 438 1086 l 254 868 l 140 868 l 288 1086 z "},"ĭ":{"ha":389,"x_min":-4,"x_max":393,"o":"m 256 725 l 256 0 l 133 0 l 133 725 l 256 725 m 194 889 q 51 933 107 889 q -4 1067 -4 978 l 79 1067 q 110 994 79 1018 q 194 969 140 969 q 279 994 249 969 q 310 1067 310 1018 l 393 1067 q 338 933 393 978 q 194 889 282 889 z "},"î":{"ha":389,"x_min":-10,"x_max":399,"o":"m 256 725 l 256 0 l 133 0 l 133 725 l 256 725 m 121 1086 l 268 1086 l 399 868 l 292 868 l 193 1001 l 97 868 l -10 868 l 121 1086 z "},"ȉ":{"ha":389,"x_min":-125,"x_max":383,"o":"m 256 725 l 256 0 l 133 0 l 133 725 l 256 725 m -125 1086 l 24 1086 l 140 868 l 28 868 l -125 1086 m 118 1086 l 267 1086 l 383 868 l 271 868 l 118 1086 z "},"ï":{"ha":389,"x_min":-17,"x_max":406,"o":"m 256 725 l 256 0 l 133 0 l 133 725 l 256 725 m 61 899 q 5 921 26 899 q -17 978 -17 943 q 5 1035 -17 1013 q 61 1057 26 1057 q 117 1035 96 1057 q 139 978 139 1013 q 117 921 139 943 q 61 899 96 899 m 328 899 q 272 921 293 899 q 250 978 250 943 q 272 1035 250 1013 q 328 1057 293 1057 q 384 1035 363 1057 q 406 978 406 1013 q 384 921 406 943 q 328 899 363 899 z "},"ị":{"ha":389,"x_min":107,"x_max":282,"o":"m 194 889 q 131 914 156 889 q 107 978 107 939 q 131 1042 107 1017 q 194 1067 156 1067 q 258 1042 233 1067 q 282 978 282 1017 q 258 914 282 939 q 194 889 233 889 m 256 725 l 256 0 l 133 0 l 133 725 l 256 725 m 194 -340 q 138 -318 160 -340 q 117 -261 117 -296 q 138 -204 117 -226 q 194 -182 160 -182 q 251 -204 229 -182 q 272 -261 272 -226 q 251 -318 272 -296 q 194 -340 229 -340 z "},"ì":{"ha":389,"x_min":-75,"x_max":256,"o":"m 256 725 l 256 0 l 133 0 l 133 725 l 256 725 m -75 1086 l 81 1086 l 239 868 l 119 868 l -75 1086 z "},"ȋ":{"ha":389,"x_min":-4,"x_max":393,"o":"m 256 725 l 256 0 l 133 0 l 133 725 l 256 725 m -4 889 q 51 1022 -4 978 q 194 1067 107 1067 q 338 1022 282 1067 q 393 889 393 978 l 310 889 q 279 962 310 938 q 194 986 249 986 q 110 962 140 986 q 79 889 79 938 l -4 889 z "},"ĳ":{"ha":778,"x_min":107,"x_max":679,"o":"m 194 889 q 131 914 156 889 q 107 978 107 939 q 131 1042 107 1017 q 194 1067 156 1067 q 258 1042 233 1067 q 282 978 282 1017 q 258 914 282 939 q 194 889 233 889 m 256 725 l 256 0 l 133 0 l 133 725 l 256 725 m 592 889 q 528 914 553 889 q 504 978 504 939 q 528 1042 504 1017 q 592 1067 553 1067 q 655 1042 631 1067 q 679 978 679 1017 q 655 914 679 939 q 592 889 631 889 m 432 -339 q 368 -335 392 -339 q 317 -315 344 -331 l 317 -210 q 364 -228 343 -224 q 415 -232 385 -232 q 503 -192 475 -232 q 531 -83 531 -153 l 531 725 l 653 725 l 653 -83 q 597 -272 653 -204 q 432 -339 542 -339 z "},"ī":{"ha":389,"x_min":-15,"x_max":404,"o":"m 256 725 l 256 0 l 133 0 l 133 725 l 256 725 m 404 1026 l 404 929 l -15 929 l -15 1026 l 404 1026 z "},"į":{"ha":389,"x_min":19,"x_max":282,"o":"m 194 1067 q 258 1042 233 1067 q 282 978 282 1017 q 258 914 282 939 q 194 889 233 889 q 131 914 156 889 q 107 978 107 939 q 131 1042 107 1017 q 194 1067 156 1067 m 133 725 l 256 725 l 256 0 q 204 -37 249 -6 q 138 -102 160 -69 q 117 -169 117 -135 q 163 -225 117 -225 q 206 -215 182 -225 q 250 -187 229 -204 l 256 -187 l 256 -275 q 150 -310 208 -310 q 58 -276 96 -310 q 19 -181 19 -242 q 51 -76 19 -125 q 133 6 82 -26 l 133 725 z "},"ĩ":{"ha":389,"x_min":-35,"x_max":424,"o":"m 256 725 l 256 0 l 133 0 l 133 725 l 256 725 m 290 881 q 241 890 264 881 q 188 915 218 899 q 134 940 153 933 q 92 947 115 947 q -35 881 26 947 l -35 982 q 99 1056 29 1056 q 148 1047 125 1056 q 201 1021 171 1038 q 255 996 236 1003 q 297 989 274 989 q 424 1040 363 989 l 424 939 q 290 881 360 881 z "},"j":{"ha":389,"x_min":-72,"x_max":290,"o":"m 203 889 q 140 914 164 889 q 115 978 115 939 q 140 1042 115 1017 q 203 1067 164 1067 q 266 1042 242 1067 q 290 978 290 1017 q 266 914 290 939 q 203 889 242 889 m 43 -339 q -21 -335 3 -339 q -72 -315 -44 -331 l -72 -210 q -25 -228 -46 -224 q 26 -232 -4 -232 q 114 -192 86 -232 q 142 -83 142 -153 l 142 725 l 264 725 l 264 -83 q 208 -272 264 -204 q 43 -339 153 -339 z "},"ȷ":{"ha":389,"x_min":-72,"x_max":264,"o":"m 43 -339 q -21 -335 3 -339 q -72 -315 -44 -331 l -72 -210 q -25 -228 -46 -224 q 26 -232 -4 -232 q 114 -192 86 -232 q 142 -83 142 -153 l 142 725 l 264 725 l 264 -83 q 208 -272 264 -204 q 43 -339 153 -339 z "},"ĵ":{"ha":389,"x_min":-72,"x_max":399,"o":"m 43 -339 q -21 -335 3 -339 q -72 -315 -44 -331 l -72 -210 q -25 -228 -46 -224 q 26 -232 -4 -232 q 114 -192 86 -232 q 142 -83 142 -153 l 142 725 l 264 725 l 264 -83 q 208 -272 264 -204 q 43 -339 153 -339 m 121 1086 l 268 1086 l 399 868 l 292 868 l 193 1001 l 97 868 l -10 868 l 121 1086 z "},"k":{"ha":806,"x_min":154,"x_max":754,"o":"m 390 339 l 276 211 l 276 0 l 154 0 l 154 1047 l 276 1047 l 276 371 l 593 725 l 738 725 l 472 429 l 754 0 l 604 0 l 390 339 z "},"ķ":{"ha":806,"x_min":154,"x_max":754,"o":"m 390 339 l 276 211 l 276 0 l 154 0 l 154 1047 l 276 1047 l 276 371 l 593 725 l 738 725 l 472 429 l 754 0 l 604 0 l 390 339 m 467 -96 q 471 -146 471 -119 q 455 -247 471 -194 q 408 -350 439 -300 l 307 -350 q 358 -165 358 -269 q 353 -96 358 -124 l 467 -96 z "},"ĸ":{"ha":806,"x_min":154,"x_max":754,"o":"m 390 339 l 276 211 l 276 0 l 154 0 l 154 725 l 276 725 l 276 371 l 593 725 l 738 725 l 472 429 l 754 0 l 604 0 l 390 339 z "},"l":{"ha":389,"x_min":133,"x_max":256,"o":"m 133 1047 l 256 1047 l 256 0 l 133 0 l 133 1047 z "},"ĺ":{"ha":389,"x_min":133,"x_max":449,"o":"m 133 1047 l 256 1047 l 256 0 l 133 0 l 133 1047 m 293 1290 l 449 1290 l 254 1086 l 142 1086 l 293 1290 z "},"ľ":{"ha":528,"x_min":133,"x_max":571,"o":"m 133 1047 l 256 1047 l 256 0 l 133 0 l 133 1047 m 571 1086 q 552 958 571 1024 q 485 807 533 893 l 374 807 q 431 949 419 888 q 443 1086 443 1010 l 571 1086 z "},"ļ":{"ha":389,"x_min":99,"x_max":263,"o":"m 133 1047 l 256 1047 l 256 0 l 133 0 l 133 1047 m 258 -96 q 263 -146 263 -119 q 247 -247 263 -194 q 200 -350 231 -300 l 99 -350 q 150 -165 150 -269 q 144 -96 150 -124 l 258 -96 z "},"ŀ":{"ha":472,"x_min":133,"x_max":532,"o":"m 133 1047 l 256 1047 l 256 0 l 133 0 l 133 1047 m 438 417 q 370 443 397 417 q 343 513 343 469 q 370 582 343 556 q 438 608 397 608 q 505 582 478 608 q 532 513 532 556 q 505 443 532 469 q 438 417 478 417 z "},"ǉ":{"ha":778,"x_min":133,"x_max":679,"o":"m 133 1047 l 256 1047 l 256 0 l 133 0 l 133 1047 m 592 889 q 528 914 553 889 q 504 978 504 939 q 528 1042 504 1017 q 592 1067 553 1067 q 655 1042 631 1067 q 679 978 679 1017 q 655 914 679 939 q 592 889 631 889 m 432 -339 q 368 -335 392 -339 q 317 -315 344 -331 l 317 -210 q 364 -228 343 -224 q 415 -232 385 -232 q 503 -192 475 -232 q 531 -83 531 -153 l 531 725 l 653 725 l 653 -83 q 597 -272 653 -204 q 432 -339 542 -339 z "},"ł":{"ha":389,"x_min":17,"x_max":371,"o":"m 371 524 l 256 436 l 256 0 l 133 0 l 133 344 l 17 256 l 17 394 l 133 483 l 133 1047 l 256 1047 l 256 575 l 371 663 l 371 524 z "},"m":{"ha":1306,"x_min":124,"x_max":1151,"o":"m 943 742 q 1099 678 1046 742 q 1151 503 1151 615 l 1151 0 l 1029 0 l 1029 486 q 1000 594 1029 556 q 911 632 971 632 q 808 610 850 632 q 713 538 767 588 q 714 503 714 526 l 714 0 l 592 0 l 592 486 q 563 594 592 556 q 474 632 533 632 q 371 610 413 632 q 276 539 329 589 l 276 0 l 154 0 l 154 564 l 124 725 l 246 725 l 265 625 q 378 715 328 688 q 506 742 429 742 q 626 710 578 742 q 696 618 674 678 q 814 713 763 685 q 943 742 865 742 z "},"n":{"ha":889,"x_min":124,"x_max":735,"o":"m 526 742 q 682 678 629 742 q 735 503 735 615 l 735 0 l 613 0 l 613 486 q 583 594 613 556 q 494 632 554 632 q 380 610 426 632 q 276 538 333 588 l 276 0 l 154 0 l 154 564 l 124 725 l 246 725 l 265 624 q 387 714 331 686 q 526 742 443 742 z "},"ń":{"ha":889,"x_min":124,"x_max":735,"o":"m 526 742 q 682 678 629 742 q 735 503 735 615 l 735 0 l 613 0 l 613 486 q 583 594 613 556 q 494 632 554 632 q 380 610 426 632 q 276 538 333 588 l 276 0 l 154 0 l 154 564 l 124 725 l 246 725 l 265 624 q 387 714 331 686 q 526 742 443 742 m 538 1086 l 688 1086 l 504 868 l 390 868 l 538 1086 z "},"ŉ":{"ha":833,"x_min":14,"x_max":735,"o":"m 211 1086 q 192 958 211 1024 q 125 807 174 893 l 14 807 q 72 949 60 888 q 83 1086 83 1010 l 211 1086 m 526 742 q 682 678 629 742 q 735 503 735 615 l 735 0 l 613 0 l 613 486 q 583 594 613 556 q 494 632 554 632 q 380 610 426 632 q 276 538 333 588 l 276 0 l 154 0 l 154 564 l 124 725 l 246 725 l 265 624 q 387 714 331 686 q 526 742 443 742 z "},"ň":{"ha":889,"x_min":124,"x_max":735,"o":"m 526 742 q 682 678 629 742 q 735 503 735 615 l 735 0 l 613 0 l 613 486 q 583 594 613 556 q 494 632 554 632 q 380 610 426 632 q 276 538 333 588 l 276 0 l 154 0 l 154 564 l 124 725 l 246 725 l 265 624 q 387 714 331 686 q 526 742 443 742 m 347 1086 l 443 953 l 542 1086 l 649 1086 l 518 868 l 371 868 l 240 1086 l 347 1086 z "},"ņ":{"ha":889,"x_min":124,"x_max":735,"o":"m 526 742 q 682 678 629 742 q 735 503 735 615 l 735 0 l 613 0 l 613 486 q 583 594 613 556 q 494 632 554 632 q 380 610 426 632 q 276 538 333 588 l 276 0 l 154 0 l 154 564 l 124 725 l 246 725 l 265 624 q 387 714 331 686 q 526 742 443 742 m 508 -96 q 513 -146 513 -119 q 497 -247 513 -194 q 450 -350 481 -300 l 349 -350 q 400 -165 400 -269 q 394 -96 400 -124 l 508 -96 z "},"ṅ":{"ha":889,"x_min":124,"x_max":735,"o":"m 526 742 q 682 678 629 742 q 735 503 735 615 l 735 0 l 613 0 l 613 486 q 583 594 613 556 q 494 632 554 632 q 380 610 426 632 q 276 538 333 588 l 276 0 l 154 0 l 154 564 l 124 725 l 246 725 l 265 624 q 387 714 331 686 q 526 742 443 742 m 444 889 q 381 914 406 889 q 357 978 357 939 q 381 1042 357 1017 q 444 1067 406 1067 q 508 1042 483 1067 q 532 978 532 1017 q 508 914 532 939 q 444 889 483 889 z "},"ŋ":{"ha":889,"x_min":124,"x_max":735,"o":"m 124 725 l 246 725 l 264 624 q 386 714 329 686 q 526 742 443 742 q 682 678 629 742 q 735 503 735 615 l 735 -83 q 679 -272 735 -204 q 514 -339 624 -339 q 450 -335 474 -339 q 399 -315 426 -331 l 399 -210 q 446 -228 425 -224 q 497 -232 467 -232 q 585 -192 557 -232 q 613 -83 613 -153 l 613 486 q 583 594 613 556 q 494 632 554 632 q 380 610 426 632 q 276 538 333 588 l 276 0 l 154 0 l 154 564 l 124 725 z "},"ǌ":{"ha":1278,"x_min":124,"x_max":1179,"o":"m 526 742 q 682 678 629 742 q 735 503 735 615 l 735 0 l 613 0 l 613 486 q 583 594 613 556 q 494 632 554 632 q 380 610 426 632 q 276 538 333 588 l 276 0 l 154 0 l 154 564 l 124 725 l 246 725 l 265 624 q 387 714 331 686 q 526 742 443 742 m 1092 889 q 1028 914 1053 889 q 1004 978 1004 939 q 1028 1042 1004 1017 q 1092 1067 1053 1067 q 1155 1042 1131 1067 q 1179 978 1179 1017 q 1155 914 1179 939 q 1092 889 1131 889 m 932 -339 q 868 -335 892 -339 q 817 -315 844 -331 l 817 -210 q 864 -228 843 -224 q 915 -232 885 -232 q 1003 -192 975 -232 q 1031 -83 1031 -153 l 1031 725 l 1153 725 l 1153 -83 q 1097 -272 1153 -204 q 932 -339 1042 -339 z "},"ñ":{"ha":889,"x_min":124,"x_max":735,"o":"m 526 742 q 682 678 629 742 q 735 503 735 615 l 735 0 l 613 0 l 613 486 q 583 594 613 556 q 494 632 554 632 q 380 610 426 632 q 276 538 333 588 l 276 0 l 154 0 l 154 564 l 124 725 l 246 725 l 265 624 q 387 714 331 686 q 526 742 443 742 m 540 881 q 491 890 514 881 q 438 915 468 899 q 384 940 403 933 q 342 947 365 947 q 215 881 276 947 l 215 982 q 349 1056 279 1056 q 398 1047 375 1056 q 451 1021 421 1038 q 505 996 486 1003 q 547 989 524 989 q 674 1040 613 989 l 674 939 q 540 881 610 881 z "},"o":{"ha":889,"x_min":108,"x_max":781,"o":"m 444 -17 q 197 87 286 -17 q 108 363 108 190 q 197 638 108 535 q 444 742 286 742 q 692 638 603 742 q 781 363 781 535 q 692 87 781 190 q 444 -17 603 -17 m 444 89 q 597 164 546 89 q 649 363 649 239 q 597 561 649 486 q 444 636 546 636 q 292 561 343 636 q 242 363 242 486 q 292 164 242 239 q 444 89 343 89 z "},"ó":{"ha":889,"x_min":108,"x_max":781,"o":"m 444 -17 q 197 87 286 -17 q 108 363 108 190 q 197 638 108 535 q 444 742 286 742 q 692 638 603 742 q 781 363 781 535 q 692 87 781 190 q 444 -17 603 -17 m 444 89 q 597 164 546 89 q 649 363 649 239 q 597 561 649 486 q 444 636 546 636 q 292 561 343 636 q 242 363 242 486 q 292 164 242 239 q 444 89 343 89 m 538 1086 l 688 1086 l 504 868 l 390 868 l 538 1086 z "},"ŏ":{"ha":889,"x_min":108,"x_max":781,"o":"m 444 -17 q 197 87 286 -17 q 108 363 108 190 q 197 638 108 535 q 444 742 286 742 q 692 638 603 742 q 781 363 781 535 q 692 87 781 190 q 444 -17 603 -17 m 444 89 q 597 164 546 89 q 649 363 649 239 q 597 561 649 486 q 444 636 546 636 q 292 561 343 636 q 242 363 242 486 q 292 164 242 239 q 444 89 343 89 m 444 889 q 301 933 357 889 q 246 1067 246 978 l 329 1067 q 360 994 329 1018 q 444 969 390 969 q 529 994 499 969 q 560 1067 560 1018 l 643 1067 q 588 933 643 978 q 444 889 532 889 z "},"ô":{"ha":889,"x_min":108,"x_max":781,"o":"m 444 -17 q 197 87 286 -17 q 108 363 108 190 q 197 638 108 535 q 444 742 286 742 q 692 638 603 742 q 781 363 781 535 q 692 87 781 190 q 444 -17 603 -17 m 444 89 q 597 164 546 89 q 649 363 649 239 q 597 561 649 486 q 444 636 546 636 q 292 561 343 636 q 242 363 242 486 q 292 164 242 239 q 444 89 343 89 m 371 1086 l 518 1086 l 649 868 l 542 868 l 443 1001 l 347 868 l 240 868 l 371 1086 z "},"ȍ":{"ha":889,"x_min":108,"x_max":781,"o":"m 444 -17 q 197 87 286 -17 q 108 363 108 190 q 197 638 108 535 q 444 742 286 742 q 692 638 603 742 q 781 363 781 535 q 692 87 781 190 q 444 -17 603 -17 m 444 89 q 597 164 546 89 q 649 363 649 239 q 597 561 649 486 q 444 636 546 636 q 292 561 343 636 q 242 363 242 486 q 292 164 242 239 q 444 89 343 89 m 125 1086 l 274 1086 l 390 868 l 278 868 l 125 1086 m 368 1086 l 517 1086 l 633 868 l 521 868 l 368 1086 z "},"ö":{"ha":889,"x_min":108,"x_max":781,"o":"m 444 -17 q 197 87 286 -17 q 108 363 108 190 q 197 638 108 535 q 444 742 286 742 q 692 638 603 742 q 781 363 781 535 q 692 87 781 190 q 444 -17 603 -17 m 444 89 q 597 164 546 89 q 649 363 649 239 q 597 561 649 486 q 444 636 546 636 q 292 561 343 636 q 242 363 242 486 q 292 164 242 239 q 444 89 343 89 m 311 899 q 255 921 276 899 q 233 978 233 943 q 255 1035 233 1013 q 311 1057 276 1057 q 367 1035 346 1057 q 389 978 389 1013 q 367 921 389 943 q 311 899 346 899 m 578 899 q 522 921 543 899 q 500 978 500 943 q 522 1035 500 1013 q 578 1057 543 1057 q 634 1035 613 1057 q 656 978 656 1013 q 634 921 656 943 q 578 899 613 899 z "},"ọ":{"ha":889,"x_min":108,"x_max":781,"o":"m 444 -17 q 197 87 286 -17 q 108 363 108 190 q 197 638 108 535 q 444 742 286 742 q 692 638 603 742 q 781 363 781 535 q 692 87 781 190 q 444 -17 603 -17 m 444 89 q 597 164 546 89 q 649 363 649 239 q 597 561 649 486 q 444 636 546 636 q 292 561 343 636 q 242 363 242 486 q 292 164 242 239 q 444 89 343 89 m 444 -340 q 388 -318 410 -340 q 367 -261 367 -296 q 388 -204 367 -226 q 444 -182 410 -182 q 501 -204 479 -182 q 522 -261 522 -226 q 501 -318 522 -296 q 444 -340 479 -340 z "},"ò":{"ha":889,"x_min":108,"x_max":781,"o":"m 444 -17 q 197 87 286 -17 q 108 363 108 190 q 197 638 108 535 q 444 742 286 742 q 692 638 603 742 q 781 363 781 535 q 692 87 781 190 q 444 -17 603 -17 m 444 89 q 597 164 546 89 q 649 363 649 239 q 597 561 649 486 q 444 636 546 636 q 292 561 343 636 q 242 363 242 486 q 292 164 242 239 q 444 89 343 89 m 175 1086 l 331 1086 l 489 868 l 369 868 l 175 1086 z "},"ő":{"ha":889,"x_min":108,"x_max":781,"o":"m 444 -17 q 197 87 286 -17 q 108 363 108 190 q 197 638 108 535 q 444 742 286 742 q 692 638 603 742 q 781 363 781 535 q 692 87 781 190 q 444 -17 603 -17 m 444 89 q 597 164 546 89 q 649 363 649 239 q 597 561 649 486 q 444 636 546 636 q 292 561 343 636 q 242 363 242 486 q 292 164 242 239 q 444 89 343 89 m 372 1086 l 521 1086 l 368 868 l 256 868 l 372 1086 m 615 1086 l 764 1086 l 611 868 l 499 868 l 615 1086 z "},"ȏ":{"ha":889,"x_min":108,"x_max":781,"o":"m 444 -17 q 197 87 286 -17 q 108 363 108 190 q 197 638 108 535 q 444 742 286 742 q 692 638 603 742 q 781 363 781 535 q 692 87 781 190 q 444 -17 603 -17 m 444 89 q 597 164 546 89 q 649 363 649 239 q 597 561 649 486 q 444 636 546 636 q 292 561 343 636 q 242 363 242 486 q 292 164 242 239 q 444 89 343 89 m 246 889 q 301 1022 246 978 q 444 1067 357 1067 q 588 1022 532 1067 q 643 889 643 978 l 560 889 q 529 962 560 938 q 444 986 499 986 q 360 962 390 986 q 329 889 329 938 l 246 889 z "},"ō":{"ha":889,"x_min":108,"x_max":781,"o":"m 444 -17 q 197 87 286 -17 q 108 363 108 190 q 197 638 108 535 q 444 742 286 742 q 692 638 603 742 q 781 363 781 535 q 692 87 781 190 q 444 -17 603 -17 m 444 89 q 597 164 546 89 q 649 363 649 239 q 597 561 649 486 q 444 636 546 636 q 292 561 343 636 q 242 363 242 486 q 292 164 242 239 q 444 89 343 89 m 654 1026 l 654 929 l 235 929 l 235 1026 l 654 1026 z "},"ǫ":{"ha":889,"x_min":108,"x_max":781,"o":"m 469 -15 q 398 -83 422 -51 q 374 -154 374 -114 q 419 -210 374 -210 q 463 -199 439 -210 q 507 -172 486 -189 l 513 -172 l 513 -260 q 407 -294 465 -294 q 315 -260 353 -294 q 276 -165 276 -226 q 297 -79 276 -121 q 353 -7 318 -37 q 172 120 236 22 q 108 363 108 218 q 197 638 108 535 q 444 742 286 742 q 692 638 603 742 q 781 363 781 535 q 699 95 781 197 q 469 -15 617 -7 m 242 363 q 292 164 242 239 q 444 89 343 89 q 597 164 546 89 q 649 363 649 239 q 597 561 649 486 q 444 636 546 636 q 292 561 343 636 q 242 363 242 486 z "},"ø":{"ha":889,"x_min":67,"x_max":822,"o":"m 718 604 q 781 363 781 506 q 692 87 781 190 q 444 -17 603 -17 q 236 50 319 -17 l 193 0 l 67 0 l 171 121 q 108 363 108 219 q 197 638 108 535 q 444 742 286 742 q 653 675 569 742 l 696 725 l 822 725 l 718 604 m 242 363 q 263 225 242 286 l 575 586 q 444 636 525 636 q 292 561 343 636 q 242 363 242 486 m 649 363 q 628 501 649 442 l 314 139 q 444 89 364 89 q 597 164 546 89 q 649 363 649 239 z "},"ǿ":{"ha":889,"x_min":67,"x_max":822,"o":"m 718 604 q 781 363 781 506 q 692 87 781 190 q 444 -17 603 -17 q 236 50 319 -17 l 193 0 l 67 0 l 171 121 q 108 363 108 219 q 197 638 108 535 q 444 742 286 742 q 653 675 569 742 l 696 725 l 822 725 l 718 604 m 242 363 q 263 225 242 286 l 575 586 q 444 636 525 636 q 292 561 343 636 q 242 363 242 486 m 649 363 q 628 501 649 442 l 314 139 q 444 89 364 89 q 597 164 546 89 q 649 363 649 239 m 538 1086 l 688 1086 l 504 868 l 390 868 l 538 1086 z "},"õ":{"ha":889,"x_min":108,"x_max":781,"o":"m 444 -17 q 197 87 286 -17 q 108 363 108 190 q 197 638 108 535 q 444 742 286 742 q 692 638 603 742 q 781 363 781 535 q 692 87 781 190 q 444 -17 603 -17 m 444 89 q 597 164 546 89 q 649 363 649 239 q 597 561 649 486 q 444 636 546 636 q 292 561 343 636 q 242 363 242 486 q 292 164 242 239 q 444 89 343 89 m 540 881 q 491 890 514 881 q 438 915 468 899 q 384 940 403 933 q 342 947 365 947 q 215 881 276 947 l 215 982 q 349 1056 279 1056 q 398 1047 375 1056 q 451 1021 421 1038 q 505 996 486 1003 q 547 989 524 989 q 674 1040 613 989 l 674 939 q 540 881 610 881 z "},"œ":{"ha":1388,"x_min":108,"x_max":1293,"o":"m 779 322 l 779 319 q 851 151 792 214 q 1015 89 911 89 q 1137 115 1078 89 q 1257 190 1196 140 l 1263 190 l 1263 68 q 1142 3 1201 24 q 1014 -17 1082 -17 q 842 20 918 -17 q 719 125 767 57 q 607 20 676 57 q 444 -17 538 -17 q 197 87 286 -17 q 108 363 108 190 q 197 638 108 535 q 444 742 286 742 q 603 706 535 742 q 717 606 672 671 q 826 706 760 669 q 976 742 892 742 q 1148 692 1076 742 q 1256 557 1219 643 q 1293 363 1293 471 l 1293 322 l 779 322 m 978 640 q 840 578 892 640 q 779 417 789 515 l 1167 417 q 1110 579 1157 518 q 978 640 1064 640 m 444 89 q 597 164 546 89 q 649 363 649 239 q 597 561 649 486 q 444 636 546 636 q 292 561 343 636 q 242 363 242 486 q 292 164 242 239 q 444 89 343 89 z "},"p":{"ha":889,"x_min":110,"x_max":782,"o":"m 486 742 q 647 692 581 742 q 748 556 714 642 q 782 361 782 469 q 742 167 782 253 q 628 33 703 82 q 453 -15 554 -15 q 357 -4 401 -15 q 263 28 313 7 l 263 -322 l 140 -322 l 140 564 l 110 725 l 232 725 l 250 632 q 486 742 344 742 m 440 93 q 595 168 540 93 q 650 361 650 243 q 608 554 650 479 q 475 629 565 629 q 360 603 411 629 q 263 525 310 576 l 263 121 q 440 93 353 93 z "},"þ":{"ha":889,"x_min":140,"x_max":782,"o":"m 140 1047 l 263 1047 l 263 647 q 486 742 353 742 q 647 692 581 742 q 748 556 714 642 q 782 361 782 469 q 742 167 782 253 q 628 33 703 82 q 453 -15 554 -15 q 357 -5 401 -15 q 263 26 313 6 l 263 -322 l 140 -322 l 140 1047 m 440 93 q 595 168 540 93 q 650 361 650 243 q 608 554 650 479 q 475 629 565 629 q 360 603 411 629 q 263 525 310 576 l 263 121 q 440 93 353 93 z "},"q":{"ha":889,"x_min":113,"x_max":785,"o":"m 785 726 l 754 565 l 754 -322 l 632 -322 l 632 82 q 392 -15 535 -15 q 185 89 257 -15 q 113 356 113 193 q 152 554 113 467 q 266 692 192 642 q 443 742 340 742 q 547 728 499 742 q 651 686 594 714 l 663 726 l 785 726 m 411 97 q 530 124 478 97 q 632 204 582 151 l 632 603 q 456 633 543 633 q 299 556 354 633 q 244 358 244 479 q 284 170 244 243 q 411 97 324 97 z "},"r":{"ha":583,"x_min":125,"x_max":503,"o":"m 503 742 l 503 607 l 482 607 q 365 583 417 607 q 278 515 313 560 l 278 0 l 156 0 l 156 564 l 125 725 l 247 725 l 272 596 q 369 710 329 679 q 460 742 408 742 l 503 742 z "},"ŕ":{"ha":583,"x_min":125,"x_max":535,"o":"m 503 742 l 503 607 l 482 607 q 365 583 417 607 q 278 515 313 560 l 278 0 l 156 0 l 156 564 l 125 725 l 247 725 l 272 596 q 369 710 329 679 q 460 742 408 742 l 503 742 m 385 1086 l 535 1086 l 351 868 l 238 868 l 385 1086 z "},"ř":{"ha":583,"x_min":88,"x_max":503,"o":"m 503 742 l 503 607 l 482 607 q 365 583 417 607 q 278 515 313 560 l 278 0 l 156 0 l 156 564 l 125 725 l 247 725 l 272 596 q 369 710 329 679 q 460 742 408 742 l 503 742 m 194 1086 l 290 953 l 389 1086 l 496 1086 l 365 868 l 218 868 l 88 1086 l 194 1086 z "},"ŗ":{"ha":583,"x_min":121,"x_max":503,"o":"m 503 742 l 503 607 l 482 607 q 365 583 417 607 q 278 515 313 560 l 278 0 l 156 0 l 156 564 l 125 725 l 247 725 l 272 596 q 369 710 329 679 q 460 742 408 742 l 503 742 m 281 -96 q 285 -146 285 -119 q 269 -247 285 -194 q 222 -350 253 -300 l 121 -350 q 172 -165 172 -269 q 167 -96 172 -124 l 281 -96 z "},"ȑ":{"ha":583,"x_min":-28,"x_max":503,"o":"m 503 742 l 503 607 l 482 607 q 365 583 417 607 q 278 515 313 560 l 278 0 l 156 0 l 156 564 l 125 725 l 247 725 l 272 596 q 369 710 329 679 q 460 742 408 742 l 503 742 m -28 1086 l 121 1086 l 238 868 l 125 868 l -28 1086 m 215 1086 l 364 1086 l 481 868 l 368 868 l 215 1086 z "},"ṛ":{"ha":583,"x_min":125,"x_max":503,"o":"m 503 742 l 503 607 l 482 607 q 365 583 417 607 q 278 515 313 560 l 278 0 l 156 0 l 156 564 l 125 725 l 247 725 l 272 596 q 369 710 329 679 q 460 742 408 742 l 503 742 m 217 -340 q 160 -318 182 -340 q 139 -261 139 -296 q 160 -204 139 -226 q 217 -182 182 -182 q 273 -204 251 -182 q 294 -261 294 -226 q 273 -318 294 -296 q 217 -340 251 -340 z "},"ȓ":{"ha":583,"x_min":93,"x_max":503,"o":"m 503 742 l 503 607 l 482 607 q 365 583 417 607 q 278 515 313 560 l 278 0 l 156 0 l 156 564 l 125 725 l 247 725 l 272 596 q 369 710 329 679 q 460 742 408 742 l 503 742 m 93 889 q 149 1022 93 978 q 292 1067 204 1067 q 435 1022 379 1067 q 490 889 490 978 l 407 889 q 376 962 407 938 q 292 986 346 986 q 207 962 238 986 q 176 889 176 938 l 93 889 z "},"s":{"ha":694,"x_min":81,"x_max":614,"o":"m 333 -17 q 202 3 267 -17 q 81 61 138 24 l 81 189 q 331 92 207 92 q 447 122 403 92 q 492 201 492 151 q 470 258 492 236 q 417 293 449 281 q 325 324 385 306 q 203 365 251 344 q 122 424 156 385 q 89 528 89 464 q 163 683 89 625 q 356 742 236 742 q 572 679 475 742 l 572 556 q 467 615 518 597 q 361 633 417 633 q 251 608 292 633 q 211 539 211 583 q 233 486 211 507 q 286 453 254 465 q 378 422 318 440 q 500 380 453 400 q 581 319 547 360 q 614 213 614 278 q 578 94 614 146 q 478 13 542 42 q 333 -17 414 -17 z "},"ś":{"ha":694,"x_min":81,"x_max":614,"o":"m 333 -17 q 202 3 267 -17 q 81 61 138 24 l 81 189 q 331 92 207 92 q 447 122 403 92 q 492 201 492 151 q 470 258 492 236 q 417 293 449 281 q 325 324 385 306 q 203 365 251 344 q 122 424 156 385 q 89 528 89 464 q 163 683 89 625 q 356 742 236 742 q 572 679 475 742 l 572 556 q 467 615 518 597 q 361 633 417 633 q 251 608 292 633 q 211 539 211 583 q 233 486 211 507 q 286 453 254 465 q 378 422 318 440 q 500 380 453 400 q 581 319 547 360 q 614 213 614 278 q 578 94 614 146 q 478 13 542 42 q 333 -17 414 -17 m 449 1086 l 599 1086 l 415 868 l 301 868 l 449 1086 z "},"š":{"ha":694,"x_min":81,"x_max":614,"o":"m 333 -17 q 202 3 267 -17 q 81 61 138 24 l 81 189 q 331 92 207 92 q 447 122 403 92 q 492 201 492 151 q 470 258 492 236 q 417 293 449 281 q 325 324 385 306 q 203 365 251 344 q 122 424 156 385 q 89 528 89 464 q 163 683 89 625 q 356 742 236 742 q 572 679 475 742 l 572 556 q 467 615 518 597 q 361 633 417 633 q 251 608 292 633 q 211 539 211 583 q 233 486 211 507 q 286 453 254 465 q 378 422 318 440 q 500 380 453 400 q 581 319 547 360 q 614 213 614 278 q 578 94 614 146 q 478 13 542 42 q 333 -17 414 -17 m 258 1086 l 354 953 l 453 1086 l 560 1086 l 429 868 l 282 868 l 151 1086 l 258 1086 z "},"ş":{"ha":694,"x_min":81,"x_max":614,"o":"m 614 213 q 565 76 614 133 q 431 -4 515 18 q 504 -190 504 -106 q 457 -300 504 -261 q 340 -339 410 -339 q 211 -303 278 -339 l 211 -221 l 217 -221 q 331 -256 279 -256 q 406 -182 406 -256 q 386 -102 406 -146 q 329 -17 367 -58 q 199 4 263 -15 q 81 61 135 24 l 81 189 q 331 92 207 92 q 447 122 403 92 q 492 201 492 151 q 470 258 492 236 q 417 293 449 281 q 325 324 385 306 q 203 365 251 344 q 122 424 156 385 q 89 528 89 464 q 163 683 89 625 q 356 742 236 742 q 572 679 475 742 l 572 556 q 467 615 518 597 q 361 633 417 633 q 251 608 292 633 q 211 539 211 583 q 233 486 211 507 q 286 453 254 465 q 378 422 318 440 q 500 380 453 400 q 581 319 547 360 q 614 213 614 278 z "},"ŝ":{"ha":694,"x_min":81,"x_max":614,"o":"m 333 -17 q 202 3 267 -17 q 81 61 138 24 l 81 189 q 331 92 207 92 q 447 122 403 92 q 492 201 492 151 q 470 258 492 236 q 417 293 449 281 q 325 324 385 306 q 203 365 251 344 q 122 424 156 385 q 89 528 89 464 q 163 683 89 625 q 356 742 236 742 q 572 679 475 742 l 572 556 q 467 615 518 597 q 361 633 417 633 q 251 608 292 633 q 211 539 211 583 q 233 486 211 507 q 286 453 254 465 q 378 422 318 440 q 500 380 453 400 q 581 319 547 360 q 614 213 614 278 q 578 94 614 146 q 478 13 542 42 q 333 -17 414 -17 m 282 1086 l 429 1086 l 560 868 l 453 868 l 354 1001 l 258 868 l 151 868 l 282 1086 z "},"ș":{"ha":694,"x_min":81,"x_max":614,"o":"m 333 -17 q 202 3 267 -17 q 81 61 138 24 l 81 189 q 331 92 207 92 q 447 122 403 92 q 492 201 492 151 q 470 258 492 236 q 417 293 449 281 q 325 324 385 306 q 203 365 251 344 q 122 424 156 385 q 89 528 89 464 q 163 683 89 625 q 356 742 236 742 q 572 679 475 742 l 572 556 q 467 615 518 597 q 361 633 417 633 q 251 608 292 633 q 211 539 211 583 q 233 486 211 507 q 286 453 254 465 q 378 422 318 440 q 500 380 453 400 q 581 319 547 360 q 614 213 614 278 q 578 94 614 146 q 478 13 542 42 q 333 -17 414 -17 m 428 -96 q 432 -146 432 -119 q 416 -247 432 -194 q 369 -350 400 -300 l 268 -350 q 319 -165 319 -269 q 314 -96 319 -124 l 428 -96 z "},"ṣ":{"ha":694,"x_min":81,"x_max":614,"o":"m 333 -17 q 202 3 267 -17 q 81 61 138 24 l 81 189 q 331 92 207 92 q 447 122 403 92 q 492 201 492 151 q 470 258 492 236 q 417 293 449 281 q 325 324 385 306 q 203 365 251 344 q 122 424 156 385 q 89 528 89 464 q 163 683 89 625 q 356 742 236 742 q 572 679 475 742 l 572 556 q 467 615 518 597 q 361 633 417 633 q 251 608 292 633 q 211 539 211 583 q 233 486 211 507 q 286 453 254 465 q 378 422 318 440 q 500 380 453 400 q 581 319 547 360 q 614 213 614 278 q 578 94 614 146 q 478 13 542 42 q 333 -17 414 -17 m 364 -340 q 308 -318 329 -340 q 286 -261 286 -296 q 308 -204 286 -226 q 364 -182 329 -182 q 420 -204 399 -182 q 442 -261 442 -226 q 420 -318 442 -296 q 364 -340 399 -340 z "},"ß":{"ha":917,"x_min":133,"x_max":836,"o":"m 483 575 q 500 618 483 599 q 554 669 517 638 q 638 754 608 714 q 668 856 668 794 q 637 960 668 913 q 545 1038 606 1008 q 400 1067 485 1067 q 202 998 271 1067 q 133 808 133 929 l 133 0 l 256 0 l 256 822 q 294 920 256 882 q 403 958 332 958 q 505 930 464 958 q 546 851 546 901 q 526 792 546 817 q 464 735 506 768 q 388 661 414 696 q 361 572 361 626 q 408 467 361 508 q 569 368 454 425 q 678 301 642 333 q 714 211 714 268 q 673 122 714 151 q 568 92 632 92 q 461 115 514 92 q 347 189 408 138 l 347 61 q 571 -17 457 -17 q 698 8 638 -17 q 797 86 758 33 q 836 221 836 139 q 810 330 836 286 q 742 401 783 374 q 622 469 700 429 q 533 518 561 500 q 494 548 504 536 q 483 575 483 560 z "},"ə":{"ha":833,"x_min":94,"x_max":736,"o":"m 374 742 q 567 693 485 742 q 692 558 649 644 q 736 358 736 471 q 697 166 736 251 q 583 32 657 81 q 411 -17 510 -17 q 240 33 311 -17 q 131 168 168 82 q 94 363 94 254 l 94 403 l 608 403 q 537 573 597 510 q 372 636 476 636 q 251 610 310 636 q 131 535 192 585 l 125 535 l 125 657 q 246 722 186 701 q 374 742 306 742 m 410 85 q 547 147 496 85 q 608 308 599 210 l 221 308 q 277 146 231 207 q 410 85 324 85 z "},"t":{"ha":556,"x_min":35,"x_max":496,"o":"m 296 725 l 496 725 l 496 619 l 296 619 l 296 204 q 319 122 296 153 q 386 90 342 90 q 441 97 417 90 q 496 117 465 103 l 496 8 q 435 -12 464 -7 q 364 -17 406 -17 q 224 40 275 -17 q 174 192 174 97 l 174 619 l 35 619 l 35 725 l 174 725 l 174 919 l 296 983 l 296 725 z "},"ŧ":{"ha":556,"x_min":35,"x_max":496,"o":"m 296 619 l 296 446 l 461 446 l 461 340 l 296 340 l 296 204 q 319 122 296 153 q 386 90 342 90 q 441 97 417 90 q 496 117 465 103 l 496 8 q 435 -12 464 -7 q 364 -17 406 -17 q 224 40 275 -17 q 174 192 174 97 l 174 340 l 72 340 l 72 446 l 174 446 l 174 619 l 35 619 l 35 725 l 174 725 l 174 919 l 296 983 l 296 725 l 496 725 l 496 619 l 296 619 z "},"ť":{"ha":694,"x_min":35,"x_max":738,"o":"m 296 725 l 496 725 l 496 619 l 296 619 l 296 204 q 319 122 296 153 q 386 90 342 90 q 441 97 417 90 q 496 117 465 103 l 496 8 q 435 -12 464 -7 q 364 -17 406 -17 q 224 40 275 -17 q 174 192 174 97 l 174 619 l 35 619 l 35 725 l 174 725 l 174 919 l 296 983 l 296 725 m 738 1086 q 719 958 738 1024 q 651 807 700 893 l 540 807 q 598 949 586 888 q 610 1086 610 1010 l 738 1086 z "},"ţ":{"ha":556,"x_min":35,"x_max":496,"o":"m 296 619 l 296 204 q 319 122 296 153 q 386 90 342 90 q 441 97 417 90 q 496 117 465 103 l 496 8 q 421 -14 457 -10 q 488 -190 488 -111 q 440 -300 488 -261 q 324 -339 393 -339 q 194 -303 261 -339 l 194 -221 l 200 -221 q 314 -256 263 -256 q 389 -182 389 -256 q 368 -99 389 -144 q 307 -10 347 -54 q 208 60 243 7 q 174 192 174 113 l 174 619 l 35 619 l 35 725 l 174 725 l 174 919 l 296 983 l 296 725 l 496 725 l 496 619 l 296 619 z "},"ț":{"ha":556,"x_min":35,"x_max":496,"o":"m 296 725 l 496 725 l 496 619 l 296 619 l 296 204 q 319 122 296 153 q 386 90 342 90 q 441 97 417 90 q 496 117 465 103 l 496 8 q 435 -12 464 -7 q 364 -17 406 -17 q 224 40 275 -17 q 174 192 174 97 l 174 619 l 35 619 l 35 725 l 174 725 l 174 919 l 296 983 l 296 725 m 411 -96 q 415 -146 415 -119 q 399 -247 415 -194 q 353 -350 383 -300 l 251 -350 q 303 -165 303 -269 q 297 -96 303 -124 l 411 -96 z "},"ṭ":{"ha":556,"x_min":35,"x_max":496,"o":"m 296 725 l 496 725 l 496 619 l 296 619 l 296 204 q 319 122 296 153 q 386 90 342 90 q 441 97 417 90 q 496 117 465 103 l 496 8 q 435 -12 464 -7 q 364 -17 406 -17 q 224 40 275 -17 q 174 192 174 97 l 174 619 l 35 619 l 35 725 l 174 725 l 174 919 l 296 983 l 296 725 m 347 -340 q 291 -318 313 -340 q 269 -261 269 -296 q 291 -204 269 -226 q 347 -182 313 -182 q 403 -204 382 -182 q 425 -261 425 -226 q 403 -318 425 -296 q 347 -340 382 -340 z "},"u":{"ha":889,"x_min":149,"x_max":760,"o":"m 638 0 l 618 101 q 495 13 554 42 q 357 -17 436 -17 q 203 49 258 -17 q 149 222 149 114 l 149 725 l 271 725 l 271 239 q 301 133 271 172 q 389 93 332 93 q 503 117 454 93 q 607 188 553 140 l 607 725 l 729 725 l 729 161 l 760 0 l 638 0 z "},"ú":{"ha":889,"x_min":149,"x_max":760,"o":"m 638 0 l 618 101 q 495 13 554 42 q 357 -17 436 -17 q 203 49 258 -17 q 149 222 149 114 l 149 725 l 271 725 l 271 239 q 301 133 271 172 q 389 93 332 93 q 503 117 454 93 q 607 188 553 140 l 607 725 l 729 725 l 729 161 l 760 0 l 638 0 m 532 1086 l 682 1086 l 499 868 l 385 868 l 532 1086 z "},"ŭ":{"ha":889,"x_min":149,"x_max":760,"o":"m 638 0 l 618 101 q 495 13 554 42 q 357 -17 436 -17 q 203 49 258 -17 q 149 222 149 114 l 149 725 l 271 725 l 271 239 q 301 133 271 172 q 389 93 332 93 q 503 117 454 93 q 607 188 553 140 l 607 725 l 729 725 l 729 161 l 760 0 l 638 0 m 439 889 q 296 933 351 889 q 240 1067 240 978 l 324 1067 q 354 994 324 1018 q 439 969 385 969 q 524 994 493 969 q 554 1067 554 1018 l 638 1067 q 582 933 638 978 q 439 889 526 889 z "},"û":{"ha":889,"x_min":149,"x_max":760,"o":"m 638 0 l 618 101 q 495 13 554 42 q 357 -17 436 -17 q 203 49 258 -17 q 149 222 149 114 l 149 725 l 271 725 l 271 239 q 301 133 271 172 q 389 93 332 93 q 503 117 454 93 q 607 188 553 140 l 607 725 l 729 725 l 729 161 l 760 0 l 638 0 m 365 1086 l 513 1086 l 643 868 l 536 868 l 438 1001 l 342 868 l 235 868 l 365 1086 z "},"ȕ":{"ha":889,"x_min":119,"x_max":760,"o":"m 638 0 l 618 101 q 495 13 554 42 q 357 -17 436 -17 q 203 49 258 -17 q 149 222 149 114 l 149 725 l 271 725 l 271 239 q 301 133 271 172 q 389 93 332 93 q 503 117 454 93 q 607 188 553 140 l 607 725 l 729 725 l 729 161 l 760 0 l 638 0 m 119 1086 l 268 1086 l 385 868 l 272 868 l 119 1086 m 363 1086 l 511 1086 l 628 868 l 515 868 l 363 1086 z "},"ü":{"ha":889,"x_min":149,"x_max":760,"o":"m 638 0 l 618 101 q 495 13 554 42 q 357 -17 436 -17 q 203 49 258 -17 q 149 222 149 114 l 149 725 l 271 725 l 271 239 q 301 133 271 172 q 389 93 332 93 q 503 117 454 93 q 607 188 553 140 l 607 725 l 729 725 l 729 161 l 760 0 l 638 0 m 306 899 q 249 921 271 899 q 228 978 228 943 q 249 1035 228 1013 q 306 1057 271 1057 q 362 1035 340 1057 q 383 978 383 1013 q 362 921 383 943 q 306 899 340 899 m 572 899 q 516 921 538 899 q 494 978 494 943 q 516 1035 494 1013 q 572 1057 538 1057 q 628 1035 607 1057 q 650 978 650 1013 q 628 921 650 943 q 572 899 607 899 z "},"ụ":{"ha":889,"x_min":149,"x_max":760,"o":"m 638 0 l 618 101 q 495 13 554 42 q 357 -17 436 -17 q 203 49 258 -17 q 149 222 149 114 l 149 725 l 271 725 l 271 239 q 301 133 271 172 q 389 93 332 93 q 503 117 454 93 q 607 188 553 140 l 607 725 l 729 725 l 729 161 l 760 0 l 638 0 m 444 -340 q 388 -318 410 -340 q 367 -261 367 -296 q 388 -204 367 -226 q 444 -182 410 -182 q 501 -204 479 -182 q 522 -261 522 -226 q 501 -318 522 -296 q 444 -340 479 -340 z "},"ù":{"ha":889,"x_min":149,"x_max":760,"o":"m 638 0 l 618 101 q 495 13 554 42 q 357 -17 436 -17 q 203 49 258 -17 q 149 222 149 114 l 149 725 l 271 725 l 271 239 q 301 133 271 172 q 389 93 332 93 q 503 117 454 93 q 607 188 553 140 l 607 725 l 729 725 l 729 161 l 760 0 l 638 0 m 169 1086 l 325 1086 l 483 868 l 364 868 l 169 1086 z "},"ű":{"ha":889,"x_min":149,"x_max":760,"o":"m 638 0 l 618 101 q 495 13 554 42 q 357 -17 436 -17 q 203 49 258 -17 q 149 222 149 114 l 149 725 l 271 725 l 271 239 q 301 133 271 172 q 389 93 332 93 q 503 117 454 93 q 607 188 553 140 l 607 725 l 729 725 l 729 161 l 760 0 l 638 0 m 367 1086 l 515 1086 l 363 868 l 250 868 l 367 1086 m 610 1086 l 758 1086 l 606 868 l 493 868 l 610 1086 z "},"ȗ":{"ha":889,"x_min":149,"x_max":760,"o":"m 638 0 l 618 101 q 495 13 554 42 q 357 -17 436 -17 q 203 49 258 -17 q 149 222 149 114 l 149 725 l 271 725 l 271 239 q 301 133 271 172 q 389 93 332 93 q 503 117 454 93 q 607 188 553 140 l 607 725 l 729 725 l 729 161 l 760 0 l 638 0 m 240 889 q 296 1022 240 978 q 439 1067 351 1067 q 582 1022 526 1067 q 638 889 638 978 l 554 889 q 524 962 554 938 q 439 986 493 986 q 354 962 385 986 q 324 889 324 938 l 240 889 z "},"ū":{"ha":889,"x_min":149,"x_max":760,"o":"m 638 0 l 618 101 q 495 13 554 42 q 357 -17 436 -17 q 203 49 258 -17 q 149 222 149 114 l 149 725 l 271 725 l 271 239 q 301 133 271 172 q 389 93 332 93 q 503 117 454 93 q 607 188 553 140 l 607 725 l 729 725 l 729 161 l 760 0 l 638 0 m 649 1026 l 649 929 l 229 929 l 229 1026 l 649 1026 z "},"ų":{"ha":889,"x_min":149,"x_max":760,"o":"m 667 -225 q 710 -215 686 -225 q 754 -187 733 -204 l 760 -187 l 760 -275 q 654 -310 713 -310 q 562 -276 600 -310 q 524 -181 524 -242 q 555 -76 524 -126 q 636 6 586 -26 l 618 101 q 495 13 554 42 q 357 -17 436 -17 q 203 49 258 -17 q 149 222 149 114 l 149 725 l 271 725 l 271 239 q 301 133 271 172 q 389 93 332 93 q 503 117 454 93 q 607 188 553 140 l 607 725 l 729 725 l 729 161 l 760 0 q 708 -37 753 -6 q 642 -102 664 -69 q 621 -169 621 -135 q 667 -225 621 -225 z "},"ů":{"ha":889,"x_min":149,"x_max":760,"o":"m 638 0 l 618 101 q 495 13 554 42 q 357 -17 436 -17 q 203 49 258 -17 q 149 222 149 114 l 149 725 l 271 725 l 271 239 q 301 133 271 172 q 389 93 332 93 q 503 117 454 93 q 607 188 553 140 l 607 725 l 729 725 l 729 161 l 760 0 l 638 0 m 301 976 q 340 1076 301 1039 q 439 1114 378 1114 q 538 1076 500 1114 q 576 976 576 1039 q 538 876 576 914 q 439 839 500 839 q 340 876 378 839 q 301 976 301 914 m 372 978 q 390 926 372 944 q 439 907 407 907 q 487 926 469 907 q 504 978 504 944 q 488 1026 504 1010 q 439 1043 471 1043 q 390 1026 407 1043 q 372 978 372 1010 z "},"ũ":{"ha":889,"x_min":149,"x_max":760,"o":"m 638 0 l 618 101 q 495 13 554 42 q 357 -17 436 -17 q 203 49 258 -17 q 149 222 149 114 l 149 725 l 271 725 l 271 239 q 301 133 271 172 q 389 93 332 93 q 503 117 454 93 q 607 188 553 140 l 607 725 l 729 725 l 729 161 l 760 0 l 638 0 m 535 881 q 485 890 508 881 q 432 915 463 899 q 378 940 397 933 q 336 947 360 947 q 210 881 271 947 l 210 982 q 343 1056 274 1056 q 392 1047 369 1056 q 446 1021 415 1038 q 499 996 481 1003 q 542 989 518 989 q 668 1040 607 989 l 668 939 q 535 881 604 881 z "},"v":{"ha":778,"x_min":38,"x_max":740,"o":"m 740 725 l 472 0 l 306 0 l 38 725 l 163 725 l 392 99 l 621 725 l 740 725 z "},"w":{"ha":1194,"x_min":42,"x_max":1153,"o":"m 1153 725 l 925 0 l 767 0 l 596 557 l 428 0 l 269 0 l 42 725 l 167 725 l 356 118 l 536 725 l 661 725 l 844 118 l 1033 725 l 1153 725 z "},"ẃ":{"ha":1194,"x_min":42,"x_max":1153,"o":"m 1153 725 l 925 0 l 767 0 l 596 557 l 428 0 l 269 0 l 42 725 l 167 725 l 356 118 l 536 725 l 661 725 l 844 118 l 1033 725 l 1153 725 m 690 1086 l 840 1086 l 657 868 l 543 868 l 690 1086 z "},"ŵ":{"ha":1194,"x_min":42,"x_max":1153,"o":"m 1153 725 l 925 0 l 767 0 l 596 557 l 428 0 l 269 0 l 42 725 l 167 725 l 356 118 l 536 725 l 661 725 l 844 118 l 1033 725 l 1153 725 m 524 1086 l 671 1086 l 801 868 l 694 868 l 596 1001 l 500 868 l 393 868 l 524 1086 z "},"ẅ":{"ha":1194,"x_min":42,"x_max":1153,"o":"m 1153 725 l 925 0 l 767 0 l 596 557 l 428 0 l 269 0 l 42 725 l 167 725 l 356 118 l 536 725 l 661 725 l 844 118 l 1033 725 l 1153 725 m 464 899 q 408 921 429 899 q 386 978 386 943 q 408 1035 386 1013 q 464 1057 429 1057 q 520 1035 499 1057 q 542 978 542 1013 q 520 921 542 943 q 464 899 499 899 m 731 899 q 674 921 696 899 q 653 978 653 943 q 674 1035 653 1013 q 731 1057 696 1057 q 787 1035 765 1057 q 808 978 808 1013 q 787 921 808 943 q 731 899 765 899 z "},"ẁ":{"ha":1194,"x_min":42,"x_max":1153,"o":"m 1153 725 l 925 0 l 767 0 l 596 557 l 428 0 l 269 0 l 42 725 l 167 725 l 356 118 l 536 725 l 661 725 l 844 118 l 1033 725 l 1153 725 m 328 1086 l 483 1086 l 642 868 l 522 868 l 328 1086 z "},"x":{"ha":778,"x_min":22,"x_max":756,"o":"m 608 0 l 379 300 l 157 0 l 22 0 l 314 383 l 53 725 l 200 725 l 399 465 l 590 725 l 725 725 l 464 381 l 756 0 l 608 0 z "},"y":{"ha":778,"x_min":38,"x_max":740,"o":"m 740 725 l 325 -322 l 200 -322 l 325 -8 l 38 725 l 163 725 l 389 131 l 610 725 l 740 725 z "},"ý":{"ha":778,"x_min":38,"x_max":740,"o":"m 740 725 l 325 -322 l 200 -322 l 325 -8 l 38 725 l 163 725 l 389 131 l 610 725 l 740 725 m 479 1086 l 629 1086 l 446 868 l 332 868 l 479 1086 z "},"ŷ":{"ha":778,"x_min":38,"x_max":740,"o":"m 740 725 l 325 -322 l 200 -322 l 325 -8 l 38 725 l 163 725 l 389 131 l 610 725 l 740 725 m 313 1086 l 460 1086 l 590 868 l 483 868 l 385 1001 l 289 868 l 182 868 l 313 1086 z "},"ÿ":{"ha":778,"x_min":38,"x_max":740,"o":"m 740 725 l 325 -322 l 200 -322 l 325 -8 l 38 725 l 163 725 l 389 131 l 610 725 l 740 725 m 253 899 q 197 921 218 899 q 175 978 175 943 q 197 1035 175 1013 q 253 1057 218 1057 q 309 1035 288 1057 q 331 978 331 1013 q 309 921 331 943 q 253 899 288 899 m 519 899 q 463 921 485 899 q 442 978 442 943 q 463 1035 442 1013 q 519 1057 485 1057 q 576 1035 554 1057 q 597 978 597 1013 q 576 921 597 943 q 519 899 554 899 z "},"ỳ":{"ha":778,"x_min":38,"x_max":740,"o":"m 740 725 l 325 -322 l 200 -322 l 325 -8 l 38 725 l 163 725 l 389 131 l 610 725 l 740 725 m 117 1086 l 272 1086 l 431 868 l 311 868 l 117 1086 z "},"ỹ":{"ha":778,"x_min":38,"x_max":740,"o":"m 740 725 l 325 -322 l 200 -322 l 325 -8 l 38 725 l 163 725 l 389 131 l 610 725 l 740 725 m 482 881 q 433 890 456 881 q 379 915 410 899 q 326 940 344 933 q 283 947 307 947 q 157 881 218 947 l 157 982 q 290 1056 221 1056 q 340 1047 317 1056 q 393 1021 363 1038 q 447 996 428 1003 q 489 989 465 989 q 615 1040 554 989 l 615 939 q 482 881 551 881 z "},"z":{"ha":722,"x_min":54,"x_max":668,"o":"m 668 96 l 668 0 l 54 0 l 54 82 l 482 629 l 85 629 l 85 725 l 638 725 l 638 643 l 211 96 l 668 96 z "},"ź":{"ha":722,"x_min":54,"x_max":668,"o":"m 668 96 l 668 0 l 54 0 l 54 82 l 482 629 l 85 629 l 85 725 l 638 725 l 638 643 l 211 96 l 668 96 m 454 1086 l 604 1086 l 421 868 l 307 868 l 454 1086 z "},"ž":{"ha":722,"x_min":54,"x_max":668,"o":"m 668 96 l 668 0 l 54 0 l 54 82 l 482 629 l 85 629 l 85 725 l 638 725 l 638 643 l 211 96 l 668 96 m 264 1086 l 360 953 l 458 1086 l 565 1086 l 435 868 l 288 868 l 157 1086 l 264 1086 z "},"ż":{"ha":722,"x_min":54,"x_max":668,"o":"m 668 96 l 668 0 l 54 0 l 54 82 l 482 629 l 85 629 l 85 725 l 638 725 l 638 643 l 211 96 l 668 96 m 361 889 q 298 914 322 889 q 274 978 274 939 q 298 1042 274 1017 q 361 1067 322 1067 q 424 1042 400 1067 q 449 978 449 1017 q 424 914 449 939 q 361 889 400 889 z "},"ẓ":{"ha":722,"x_min":54,"x_max":668,"o":"m 668 96 l 668 0 l 54 0 l 54 82 l 482 629 l 85 629 l 85 725 l 638 725 l 638 643 l 211 96 l 668 96 m 361 -340 q 305 -318 326 -340 q 283 -261 283 -296 q 305 -204 283 -226 q 361 -182 326 -182 q 417 -204 396 -182 q 439 -261 439 -226 q 417 -318 439 -296 q 361 -340 396 -340 z "},"ﬁ":{"ha":889,"x_min":32,"x_max":782,"o":"m 171 619 l 32 619 l 32 725 l 171 725 l 171 808 q 227 997 171 929 q 396 1064 283 1064 q 450 1058 426 1064 q 507 1040 474 1053 l 507 935 q 461 952 479 947 q 421 957 443 957 q 324 920 354 957 q 293 822 293 883 l 293 725 l 493 725 l 493 619 l 293 619 l 293 0 l 171 0 l 171 619 m 694 889 q 631 914 656 889 q 607 978 607 939 q 631 1042 607 1017 q 694 1067 656 1067 q 758 1042 733 1067 q 782 978 782 1017 q 758 914 782 939 q 694 889 733 889 m 756 725 l 756 0 l 633 0 l 633 725 l 756 725 z "},"ﬂ":{"ha":889,"x_min":32,"x_max":756,"o":"m 171 619 l 32 619 l 32 725 l 171 725 l 171 808 q 227 997 171 929 q 396 1064 283 1064 q 450 1058 426 1064 q 507 1040 474 1053 l 507 935 q 461 952 479 947 q 421 957 443 957 q 324 920 354 957 q 293 822 293 883 l 293 725 l 493 725 l 493 619 l 293 619 l 293 0 l 171 0 l 171 619 m 633 1047 l 756 1047 l 756 0 l 633 0 l 633 1047 z "},"ª":{"ha":458,"x_min":61,"x_max":413,"o":"m 326 593 l 317 639 q 190 583 261 583 q 97 616 132 583 q 61 704 61 649 q 111 797 61 769 q 251 825 161 825 q 310 822 286 825 l 310 838 q 288 885 310 868 q 225 903 267 903 q 93 856 161 903 l 93 942 q 235 983 153 983 q 354 946 311 983 q 397 846 397 908 l 397 678 l 413 593 l 326 593 m 154 703 q 168 671 154 682 q 210 660 182 660 q 310 704 261 660 l 310 761 l 238 761 q 178 747 201 761 q 154 703 154 732 z "},"º":{"ha":489,"x_min":61,"x_max":428,"o":"m 244 583 q 109 638 157 583 q 61 783 61 693 q 109 928 61 874 q 244 983 157 983 q 380 928 332 983 q 428 783 428 874 q 380 638 428 693 q 244 583 332 583 m 246 663 q 313 696 290 663 q 335 783 335 729 q 313 871 335 838 q 246 904 290 904 q 177 870 200 904 q 154 783 154 836 q 177 696 154 729 q 246 663 200 663 z "},"Δ":{"ha":917,"x_min":31,"x_max":886,"o":"m 886 0 l 31 0 l 382 967 l 535 967 l 886 0 m 719 104 l 456 831 l 190 104 l 719 104 z "},"Ω":{"ha":1069,"x_min":61,"x_max":1008,"o":"m 606 104 q 785 239 725 131 q 846 501 846 347 q 768 774 846 676 q 535 872 690 872 q 301 774 379 872 q 224 501 224 676 q 284 239 224 347 q 464 104 344 131 l 464 0 l 61 0 l 61 104 l 301 104 q 146 269 200 165 q 92 511 92 374 q 144 758 92 651 q 296 924 196 864 q 535 983 396 983 q 774 924 674 983 q 926 758 874 864 q 978 511 978 651 q 924 269 978 374 q 768 104 869 165 l 1008 104 l 1008 0 l 606 0 l 606 104 z "},"μ":{"ha":889,"x_min":149,"x_max":760,"o":"m 149 725 l 271 725 l 271 239 q 306 133 271 172 q 410 93 340 93 q 511 117 464 93 q 607 185 558 140 l 607 725 l 729 725 l 729 161 l 760 0 l 638 0 l 618 100 q 506 10 556 38 q 399 -17 456 -17 q 258 39 311 -17 l 271 -242 l 149 -242 l 149 725 z "},"π":{"ha":947,"x_min":61,"x_max":886,"o":"m 703 225 q 726 127 703 164 q 800 90 749 90 q 840 95 822 90 q 886 113 858 100 l 886 7 q 830 -11 854 -6 q 775 -17 806 -17 q 629 51 678 -17 q 581 239 581 118 l 581 619 l 367 619 l 367 0 l 244 0 l 244 619 l 61 619 l 61 725 l 886 725 l 886 619 l 703 619 l 703 225 z "},"ऄ":{"ha":1256,"x_min":36,"x_max":1286,"o":"m 1286 886 l 1286 806 l 1072 806 l 1072 0 l 950 0 l 950 401 l 575 401 q 631 249 631 332 q 599 136 631 186 q 510 57 567 86 q 383 28 454 28 q 185 90 278 28 q 36 260 93 153 l 36 265 l 85 326 l 90 326 q 222 183 156 229 q 361 136 289 136 q 477 177 433 136 q 521 283 521 218 q 495 372 521 333 q 427 433 469 411 q 336 454 385 454 l 288 454 l 288 536 l 328 536 q 422 558 379 536 q 489 618 464 581 q 514 700 514 656 q 478 778 514 751 q 379 806 443 806 q 248 774 311 806 q 136 685 185 743 l 131 685 l 89 761 l 89 767 q 218 867 139 831 q 386 903 297 903 q 561 846 497 903 q 625 690 625 789 q 469 483 625 546 l 950 483 l 950 806 l 736 806 l 736 886 l 957 886 q 920 1024 957 979 q 794 1078 883 1069 q 631 1110 692 1088 q 542 1174 571 1132 q 514 1289 514 1217 l 608 1289 q 628 1219 608 1243 q 696 1181 647 1194 q 844 1157 744 1168 q 1011 1067 958 1144 q 1064 886 1064 990 l 1286 886 z "},"ॲ":{"ha":1256,"x_min":36,"x_max":1314,"o":"m 1286 886 l 1286 806 l 1072 806 l 1072 0 l 950 0 l 950 401 l 575 401 q 631 249 631 332 q 599 136 631 186 q 510 57 567 86 q 383 28 454 28 q 185 90 278 28 q 36 260 93 153 l 36 265 l 85 326 l 90 326 q 222 183 156 229 q 361 136 289 136 q 477 177 433 136 q 521 283 521 218 q 495 372 521 333 q 427 433 469 411 q 336 454 385 454 l 288 454 l 288 536 l 328 536 q 422 558 379 536 q 489 618 464 581 q 514 700 514 656 q 478 778 514 751 q 379 806 443 806 q 248 774 311 806 q 136 685 185 743 l 131 685 l 89 761 l 89 767 q 218 867 139 831 q 386 903 297 903 q 561 846 497 903 q 625 690 625 789 q 469 483 625 546 l 950 483 l 950 806 l 736 806 l 736 886 l 1286 886 m 1008 953 q 856 983 925 953 q 744 1067 786 1013 q 703 1194 703 1122 l 810 1194 q 866 1089 810 1132 q 1008 1046 922 1046 q 1151 1088 1094 1046 q 1207 1194 1207 1131 l 1314 1194 q 1273 1067 1314 1122 q 1163 983 1232 1013 q 1008 953 1093 953 z "},"अ":{"ha":1256,"x_min":36,"x_max":1286,"o":"m 1286 886 l 1286 806 l 1072 806 l 1072 0 l 950 0 l 950 401 l 575 401 q 631 249 631 332 q 599 136 631 186 q 510 57 567 86 q 383 28 454 28 q 185 90 278 28 q 36 260 93 153 l 36 265 l 85 326 l 90 326 q 222 183 156 229 q 361 136 289 136 q 477 177 433 136 q 521 283 521 218 q 495 372 521 333 q 427 433 469 411 q 336 454 385 454 l 288 454 l 288 536 l 328 536 q 422 558 379 536 q 489 618 464 581 q 514 700 514 656 q 478 778 514 751 q 379 806 443 806 q 248 774 311 806 q 136 685 185 743 l 131 685 l 89 761 l 89 767 q 218 867 139 831 q 386 903 297 903 q 561 846 497 903 q 625 690 625 789 q 469 483 625 546 l 950 483 l 950 806 l 736 806 l 736 886 l 1286 886 z "},"आ":{"ha":1744,"x_min":36,"x_max":1775,"o":"m 1775 806 l 1561 806 l 1561 0 l 1439 0 l 1439 806 l 1072 806 l 1072 0 l 950 0 l 950 401 l 575 401 q 631 249 631 332 q 599 136 631 186 q 510 57 567 86 q 383 28 454 28 q 185 90 278 28 q 36 260 93 153 l 36 265 l 85 326 l 90 326 q 222 183 156 229 q 361 136 289 136 q 477 177 433 136 q 521 283 521 218 q 495 372 521 333 q 427 433 469 411 q 336 454 385 454 l 288 454 l 288 536 l 328 536 q 422 558 379 536 q 489 618 464 581 q 514 700 514 656 q 478 778 514 751 q 379 806 443 806 q 248 774 311 806 q 136 685 185 743 l 131 685 l 89 761 l 89 767 q 218 867 139 831 q 386 903 297 903 q 561 846 497 903 q 625 690 625 789 q 469 483 625 546 l 950 483 l 950 806 l 736 806 l 736 886 l 1775 886 l 1775 806 z "},"इ":{"ha":825,"x_min":-31,"x_max":856,"o":"m 271 582 q 204 531 204 582 q 228 463 204 500 q 279 403 251 426 q 357 418 313 407 q 442 434 410 429 q 518 439 475 439 q 674 381 613 439 q 735 232 735 324 q 660 90 735 136 q 471 43 585 43 q 324 61 403 43 q 492 -68 399 -3 q 665 -171 586 -133 l 576 -244 q 390 -99 492 -193 q 225 65 288 -6 l 104 97 q 75 182 75 136 q 81 214 75 201 l 178 267 l 247 157 q 335 133 286 142 q 435 124 385 124 q 573 151 518 124 q 628 233 628 178 q 589 313 628 283 q 493 342 550 342 q 388 337 432 342 q 272 318 344 332 q 185 381 226 338 q 117 475 143 424 q 92 569 92 526 q 121 643 92 615 q 210 671 150 671 l 519 671 l 519 806 l -31 806 l -31 886 l 856 886 l 856 806 l 642 806 l 642 582 l 271 582 z "},"ई":{"ha":825,"x_min":-31,"x_max":856,"o":"m 271 582 q 204 531 204 582 q 228 463 204 500 q 279 403 251 426 q 357 418 313 407 q 442 434 410 429 q 518 439 475 439 q 674 381 613 439 q 735 232 735 324 q 660 90 735 136 q 471 43 585 43 q 324 61 403 43 q 492 -68 399 -3 q 665 -171 586 -133 l 576 -244 q 390 -99 492 -193 q 225 65 288 -6 l 104 97 q 75 182 75 136 q 81 214 75 201 l 178 267 l 247 157 q 335 133 286 142 q 435 124 385 124 q 573 151 518 124 q 628 233 628 178 q 589 313 628 283 q 493 342 550 342 q 388 337 432 342 q 272 318 344 332 q 185 381 226 338 q 117 475 143 424 q 92 569 92 526 q 121 643 92 615 q 210 671 150 671 l 519 671 l 519 806 l -31 806 l -31 886 l 856 886 l 856 806 l 642 806 l 642 582 l 271 582 m 803 1093 q 696 1122 751 1122 q 616 1097 646 1122 q 586 1022 586 1071 q 601 952 586 988 q 643 886 615 917 l 529 886 q 481 1028 481 944 q 537 1160 481 1113 q 694 1208 593 1208 q 803 1186 758 1208 l 803 1093 z "},"उ":{"ha":794,"x_min":-31,"x_max":825,"o":"m 825 806 l 636 806 q 703 675 703 758 q 601 493 703 551 q 698 397 663 460 q 733 251 733 333 q 695 113 733 171 q 591 25 657 56 q 446 -6 525 -6 q 92 154 249 -6 l 122 256 q 296 128 221 167 q 449 89 371 89 q 574 130 528 89 q 619 253 619 171 q 576 377 619 332 q 463 422 532 422 l 268 422 l 268 519 l 406 519 q 537 565 489 519 q 585 686 585 610 q 551 776 585 747 q 457 806 518 806 l -31 806 l -31 886 l 825 886 l 825 806 z "},"ऊ":{"ha":1253,"x_min":-31,"x_max":1283,"o":"m 1283 806 l 636 806 q 703 665 703 758 q 600 493 703 553 q 699 396 663 460 q 929 550 797 550 q 1065 515 1004 550 q 1158 423 1125 481 q 1192 297 1192 365 q 1159 175 1192 228 q 1046 46 1126 122 l 958 114 q 1055 212 1031 171 q 1079 306 1079 253 q 1041 408 1079 372 q 935 443 1003 443 q 828 408 881 443 q 729 308 775 374 q 733 256 733 283 q 651 63 733 131 q 442 -6 568 -6 q 258 35 347 -6 q 92 154 169 75 l 122 256 q 296 128 221 167 q 446 89 371 89 q 573 129 526 89 q 619 251 619 169 q 576 377 619 332 q 463 422 532 422 l 268 422 l 268 519 l 406 519 q 536 565 488 519 q 585 685 585 610 q 457 806 585 806 l -31 806 l -31 886 l 1283 886 l 1283 806 z "},"ऋ":{"ha":1344,"x_min":-31,"x_max":1375,"o":"m 733 806 l 733 472 q 832 454 788 454 q 989 507 907 454 q 949 633 967 551 l 1046 688 q 1095 635 1076 661 q 1131 575 1114 610 l 1139 467 q 1219 361 1186 424 q 1253 242 1253 299 q 1169 45 1253 107 q 947 -17 1085 -17 l 947 94 q 1094 132 1044 94 q 1143 239 1143 169 q 1121 328 1143 290 q 1054 418 1099 367 q 966 376 1010 389 q 868 363 922 363 q 733 383 799 363 l 733 0 l 611 0 l 611 339 l 229 81 l 224 81 l 153 174 l 153 179 l 604 439 q 472 529 546 499 q 317 560 397 560 q 197 544 257 560 q 100 507 136 529 l 61 610 q 157 646 94 633 q 286 658 219 658 q 471 629 389 658 q 611 549 553 600 l 611 806 l -31 806 l -31 886 l 1375 886 l 1375 806 l 733 806 z "},"ॠ":{"ha":1344,"x_min":-31,"x_max":1375,"o":"m 733 806 l 733 472 q 832 454 788 454 q 994 510 910 454 l 949 633 l 1046 688 q 1096 635 1076 660 q 1131 575 1115 610 l 1114 457 q 1149 369 1133 403 q 1194 272 1164 335 l 1194 267 q 1117 251 1161 265 q 1041 210 1074 238 q 1008 143 1008 182 q 1029 97 1008 114 q 1093 81 1050 81 q 1167 92 1128 81 q 1242 124 1207 103 l 1283 38 q 1099 -17 1199 -17 q 955 30 1007 -17 q 903 154 903 76 q 1060 331 903 285 q 1032 403 1035 394 q 957 372 994 382 q 871 363 919 363 q 733 383 799 363 l 733 0 l 611 0 l 611 339 l 229 81 l 224 81 l 153 174 l 153 179 l 604 439 q 472 529 546 499 q 317 560 397 560 q 197 544 257 560 q 100 507 136 529 l 61 610 q 157 646 94 633 q 286 658 219 658 q 471 629 389 658 q 611 549 553 600 l 611 806 l -31 806 l -31 886 l 1375 886 l 1375 806 l 733 806 z "},"ऌ":{"ha":978,"x_min":-31,"x_max":1008,"o":"m 749 806 l 749 586 q 849 494 813 558 q 886 340 886 429 q 861 211 886 267 q 801 119 836 156 q 711 39 767 83 q 623 -42 651 -7 q 594 -125 594 -78 q 632 -211 594 -178 q 742 -244 669 -244 q 886 -203 817 -244 l 886 -314 q 810 -332 853 -325 q 729 -339 767 -339 q 598 -309 653 -339 q 516 -229 543 -279 q 489 -119 489 -179 q 506 -33 489 -69 q 549 30 524 4 q 621 93 575 56 q 701 165 671 133 q 753 245 732 197 q 774 358 774 293 q 747 462 774 426 q 660 497 719 497 q 561 445 593 497 q 529 261 529 393 l 529 200 l 422 200 l 422 271 q 439 410 422 350 q 294 510 368 510 q 225 476 249 510 q 201 374 201 442 q 233 223 201 300 q 333 47 264 146 l 261 0 q 129 217 168 128 q 90 394 90 307 q 141 558 90 500 q 285 615 192 615 q 380 590 340 615 q 472 493 419 564 q 551 575 503 547 q 657 604 599 603 l 657 806 l -31 806 l -31 886 l 1008 886 l 1008 806 l 749 806 z "},"ॡ":{"ha":978,"x_min":-31,"x_max":1008,"o":"m 749 806 l 749 586 q 849 494 813 558 q 886 347 886 431 q 851 204 886 260 q 754 93 815 149 q 707 44 721 61 q 693 7 693 26 q 843 -54 693 -54 l 843 -129 l 793 -129 q 707 -157 744 -129 q 669 -222 669 -185 q 694 -268 669 -251 q 765 -285 719 -285 q 886 -251 826 -285 l 886 -354 q 763 -379 828 -379 q 622 -340 679 -379 q 565 -226 565 -301 q 584 -149 565 -185 q 642 -92 603 -112 q 581 7 581 -56 q 600 73 581 44 q 660 140 619 101 q 744 240 715 193 q 774 364 774 288 q 660 497 774 497 q 561 444 593 497 q 529 261 529 392 l 529 200 l 422 200 l 422 271 q 439 410 422 350 q 294 510 368 510 q 225 476 249 510 q 201 374 201 442 q 233 223 201 300 q 333 47 264 146 l 261 0 q 129 217 168 128 q 90 394 90 307 q 141 558 90 500 q 285 615 192 615 q 380 590 340 615 q 472 493 419 564 q 551 575 504 547 q 657 604 599 603 l 657 806 l -31 806 l -31 886 l 1008 886 l 1008 806 l 749 806 z "},"ऍ":{"ha":947,"x_min":-31,"x_max":1008,"o":"m 978 806 l 764 806 l 764 589 q 717 438 764 507 q 588 331 669 368 l 526 442 q 642 578 642 475 l 642 806 l 306 806 l 306 385 q 344 308 306 343 q 460 226 382 274 q 574 148 532 181 q 647 68 615 115 q 678 -37 678 21 q 653 -160 678 -97 l 526 -160 q 553 -46 553 -99 q 532 27 553 -4 q 481 81 511 58 q 396 138 450 104 q 286 211 329 178 q 213 297 243 244 q 183 425 183 350 l 183 806 l -31 806 l -31 886 l 978 886 l 978 806 m 703 953 q 550 983 619 953 q 439 1067 481 1013 q 397 1194 397 1122 l 504 1194 q 560 1089 504 1132 q 703 1046 617 1046 q 845 1088 789 1046 q 901 1194 901 1131 l 1008 1194 q 967 1067 1008 1122 q 857 983 926 1013 q 703 953 788 953 z "},"ऎ":{"ha":947,"x_min":-31,"x_max":978,"o":"m 978 806 l 764 806 l 764 589 q 717 438 764 507 q 588 331 669 368 l 526 442 q 642 578 642 475 l 642 806 l 306 806 l 306 385 q 344 308 306 343 q 460 226 382 274 q 574 148 532 181 q 647 68 615 115 q 678 -37 678 21 q 653 -160 678 -97 l 526 -160 q 553 -46 553 -99 q 532 27 553 -4 q 481 81 511 58 q 396 138 450 104 q 286 211 329 178 q 213 297 243 244 q 183 425 183 350 l 183 806 l -31 806 l -31 886 l 978 886 l 978 806 m 651 886 q 615 1024 651 979 q 489 1078 578 1069 q 326 1110 386 1088 q 237 1174 265 1132 q 208 1289 208 1217 l 303 1289 q 322 1219 303 1243 q 390 1181 342 1194 q 539 1157 439 1168 q 706 1067 653 1144 q 758 886 758 990 l 758 847 l 651 847 l 651 886 z "},"ए":{"ha":947,"x_min":-31,"x_max":978,"o":"m 978 806 l 764 806 l 764 589 q 717 438 764 507 q 588 331 669 368 l 526 442 q 642 578 642 475 l 642 806 l 306 806 l 306 385 q 344 308 306 343 q 460 226 382 274 q 574 148 532 181 q 647 68 615 115 q 678 -37 678 21 q 653 -160 678 -97 l 526 -160 q 553 -46 553 -99 q 532 27 553 -4 q 481 81 511 58 q 396 138 450 104 q 286 211 329 178 q 213 297 243 244 q 183 425 183 350 l 183 806 l -31 806 l -31 886 l 978 886 l 978 806 z "},"ऐ":{"ha":947,"x_min":-31,"x_max":978,"o":"m 978 806 l 764 806 l 764 589 q 717 438 764 507 q 588 331 669 368 l 526 442 q 642 578 642 475 l 642 806 l 306 806 l 306 385 q 344 308 306 343 q 460 226 382 274 q 574 148 532 181 q 647 68 615 115 q 678 -37 678 21 q 653 -160 678 -97 l 526 -160 q 553 -46 553 -99 q 532 27 553 -4 q 481 81 511 58 q 396 138 450 104 q 286 211 329 178 q 213 297 243 244 q 183 425 183 350 l 183 806 l -31 806 l -31 886 l 978 886 l 978 806 m 651 886 l 386 1226 l 386 1232 l 486 1289 l 492 1289 l 753 886 l 753 847 l 651 847 l 651 886 z "},"ऑ":{"ha":1744,"x_min":36,"x_max":1803,"o":"m 1775 806 l 1561 806 l 1561 0 l 1439 0 l 1439 806 l 1072 806 l 1072 0 l 950 0 l 950 401 l 575 401 q 631 249 631 332 q 599 136 631 186 q 510 57 567 86 q 383 28 454 28 q 185 90 278 28 q 36 260 93 153 l 36 265 l 85 326 l 90 326 q 222 183 156 229 q 361 136 289 136 q 477 177 433 136 q 521 283 521 218 q 495 372 521 333 q 427 433 469 411 q 336 454 385 454 l 288 454 l 288 536 l 328 536 q 422 558 379 536 q 489 618 464 581 q 514 700 514 656 q 478 778 514 751 q 379 806 443 806 q 248 774 311 806 q 136 685 185 743 l 131 685 l 89 761 l 89 767 q 218 867 139 831 q 386 903 297 903 q 561 846 497 903 q 625 690 625 789 q 469 483 625 546 l 950 483 l 950 806 l 736 806 l 736 886 l 1775 886 l 1775 806 m 1497 953 q 1344 983 1414 953 q 1233 1067 1275 1013 q 1192 1194 1192 1122 l 1299 1194 q 1355 1089 1299 1132 q 1497 1046 1411 1046 q 1640 1088 1583 1046 q 1696 1194 1696 1131 l 1803 1194 q 1762 1067 1803 1122 q 1651 983 1721 1013 q 1497 953 1582 953 z "},"ऒ":{"ha":1744,"x_min":36,"x_max":1775,"o":"m 1775 886 l 1775 806 l 1561 806 l 1561 0 l 1439 0 l 1439 806 l 1072 806 l 1072 0 l 950 0 l 950 401 l 575 401 q 631 249 631 332 q 599 136 631 186 q 510 57 567 86 q 383 28 454 28 q 185 90 278 28 q 36 260 93 153 l 36 265 l 85 326 l 90 326 q 222 183 156 229 q 361 136 289 136 q 477 177 433 136 q 521 283 521 218 q 495 372 521 333 q 427 433 469 411 q 336 454 385 454 l 288 454 l 288 536 l 328 536 q 422 558 379 536 q 489 618 464 581 q 514 700 514 656 q 478 778 514 751 q 379 806 443 806 q 248 774 311 806 q 136 685 185 743 l 131 685 l 89 761 l 89 767 q 218 867 139 831 q 386 903 297 903 q 561 846 497 903 q 625 690 625 789 q 469 483 625 546 l 950 483 l 950 806 l 736 806 l 736 886 l 1442 886 q 1405 1024 1442 979 q 1279 1078 1368 1069 q 1116 1110 1176 1088 q 1027 1174 1056 1132 q 999 1289 999 1217 l 1093 1289 q 1113 1219 1093 1243 q 1181 1181 1132 1194 q 1329 1157 1229 1168 q 1496 1067 1443 1144 q 1549 886 1549 990 l 1775 886 z "},"ओ":{"ha":1744,"x_min":36,"x_max":1775,"o":"m 1775 886 l 1775 806 l 1561 806 l 1561 0 l 1439 0 l 1439 806 l 1072 806 l 1072 0 l 950 0 l 950 401 l 575 401 q 631 249 631 332 q 599 136 631 186 q 510 57 567 86 q 383 28 454 28 q 185 90 278 28 q 36 260 93 153 l 36 265 l 85 326 l 90 326 q 222 183 156 229 q 361 136 289 136 q 477 177 433 136 q 521 283 521 218 q 495 372 521 333 q 427 433 469 411 q 336 454 385 454 l 288 454 l 288 536 l 328 536 q 422 558 379 536 q 489 618 464 581 q 514 700 514 656 q 478 778 514 751 q 379 806 443 806 q 248 774 311 806 q 136 685 185 743 l 131 685 l 89 761 l 89 767 q 218 867 139 831 q 386 903 297 903 q 561 846 497 903 q 625 690 625 789 q 469 483 625 546 l 950 483 l 950 806 l 736 806 l 736 886 l 1433 886 l 1175 1226 l 1175 1232 l 1275 1289 l 1281 1289 l 1535 886 l 1775 886 z "},"औ":{"ha":1744,"x_min":36,"x_max":1775,"o":"m 1775 886 l 1775 806 l 1561 806 l 1561 0 l 1439 0 l 1439 806 l 1072 806 l 1072 0 l 950 0 l 950 401 l 575 401 q 631 249 631 332 q 599 136 631 186 q 510 57 567 86 q 383 28 454 28 q 185 90 278 28 q 36 260 93 153 l 36 265 l 85 326 l 90 326 q 222 183 156 229 q 361 136 289 136 q 477 177 433 136 q 521 283 521 218 q 495 372 521 333 q 427 433 469 411 q 336 454 385 454 l 288 454 l 288 536 l 328 536 q 422 558 379 536 q 489 618 464 581 q 514 700 514 656 q 478 778 514 751 q 379 806 443 806 q 248 774 311 806 q 136 685 185 743 l 131 685 l 89 761 l 89 767 q 218 867 139 831 q 386 903 297 903 q 561 846 497 903 q 625 690 625 789 q 469 483 625 546 l 950 483 l 950 806 l 736 806 l 736 886 l 1390 886 l 1010 1121 l 1010 1126 l 1100 1213 l 1106 1213 l 1444 931 l 1450 931 l 1376 1253 l 1376 1258 l 1494 1289 l 1500 1289 l 1556 886 l 1775 886 z "},"ॳ":{"ha":1256,"x_min":36,"x_max":1286,"o":"m 1286 886 l 1286 806 l 1072 806 l 1072 0 l 950 0 l 950 401 l 575 401 q 631 249 631 332 q 599 136 631 186 q 510 57 567 86 q 383 28 454 28 q 185 90 278 28 q 36 260 93 153 l 36 265 l 85 326 l 90 326 q 222 183 156 229 q 361 136 289 136 q 477 177 433 136 q 521 283 521 218 q 495 372 521 333 q 427 433 469 411 q 336 454 385 454 l 288 454 l 288 536 l 328 536 q 422 558 379 536 q 489 618 464 581 q 514 700 514 656 q 478 778 514 751 q 379 806 443 806 q 248 774 311 806 q 136 685 185 743 l 131 685 l 89 761 l 89 767 q 218 867 139 831 q 386 903 297 903 q 561 846 497 903 q 625 690 625 789 q 469 483 625 546 l 950 483 l 950 806 l 736 806 l 736 886 l 947 886 l 947 1128 l 1069 1128 l 1069 886 l 1286 886 z "},"ॴ":{"ha":1744,"x_min":36,"x_max":1775,"o":"m 1775 886 l 1775 806 l 1561 806 l 1561 0 l 1439 0 l 1439 806 l 1072 806 l 1072 0 l 950 0 l 950 401 l 575 401 q 631 249 631 332 q 599 136 631 186 q 510 57 567 86 q 383 28 454 28 q 185 90 278 28 q 36 260 93 153 l 36 265 l 85 326 l 90 326 q 222 183 156 229 q 361 136 289 136 q 477 177 433 136 q 521 283 521 218 q 495 372 521 333 q 427 433 469 411 q 336 454 385 454 l 288 454 l 288 536 l 328 536 q 422 558 379 536 q 489 618 464 581 q 514 700 514 656 q 478 778 514 751 q 379 806 443 806 q 248 774 311 806 q 136 685 185 743 l 131 685 l 89 761 l 89 767 q 218 867 139 831 q 386 903 297 903 q 561 846 497 903 q 625 690 625 789 q 469 483 625 546 l 950 483 l 950 806 l 736 806 l 736 886 l 1436 886 l 1436 1128 l 1558 1128 l 1558 886 l 1775 886 z "},"ॵ":{"ha":1744,"x_min":36,"x_max":1775,"o":"m 1775 886 l 1775 806 l 1561 806 l 1561 0 l 1439 0 l 1439 806 l 1072 806 l 1072 0 l 950 0 l 950 401 l 575 401 q 631 249 631 332 q 599 136 631 186 q 510 57 567 86 q 383 28 454 28 q 185 90 278 28 q 36 260 93 153 l 36 265 l 85 326 l 90 326 q 222 183 156 229 q 361 136 289 136 q 477 177 433 136 q 521 283 521 218 q 495 372 521 333 q 427 433 469 411 q 336 454 385 454 l 288 454 l 288 536 l 328 536 q 422 558 379 536 q 489 618 464 581 q 514 700 514 656 q 478 778 514 751 q 379 806 443 806 q 248 774 311 806 q 136 685 185 743 l 131 685 l 89 761 l 89 767 q 218 867 139 831 q 386 903 297 903 q 561 846 497 903 q 625 690 625 789 q 469 483 625 546 l 950 483 l 950 806 l 736 806 l 736 886 l 1394 886 q 1331 942 1378 926 q 1185 967 1285 957 q 1029 999 1085 978 q 949 1063 974 1021 q 924 1178 924 1106 l 1018 1178 q 1040 1103 1018 1128 q 1103 1068 1063 1078 q 1235 1047 1144 1058 q 1363 1023 1306 1039 q 1461 968 1421 1007 q 1445 1067 1461 1033 q 1403 1113 1429 1100 q 1332 1131 1376 1125 q 1205 1153 1244 1142 q 1144 1196 1165 1165 q 1124 1289 1124 1226 l 1221 1289 q 1234 1243 1221 1257 q 1281 1224 1247 1229 q 1394 1211 1314 1218 q 1526 1140 1493 1203 q 1560 983 1560 1078 l 1560 886 l 1775 886 z "},"ॶ":{"ha":1256,"x_min":36,"x_max":1286,"o":"m 1286 886 l 1286 806 l 1072 806 l 1072 0 l 950 0 l 950 401 l 575 401 q 631 249 631 332 q 599 136 631 186 q 510 57 567 86 q 383 28 454 28 q 185 90 278 28 q 36 260 93 153 l 36 265 l 85 326 l 90 326 q 222 183 156 229 q 361 136 289 136 q 477 177 433 136 q 521 283 521 218 q 495 372 521 333 q 427 433 469 411 q 336 454 385 454 l 288 454 l 288 536 l 328 536 q 422 558 379 536 q 489 618 464 581 q 514 700 514 656 q 478 778 514 751 q 379 806 443 806 q 248 774 311 806 q 136 685 185 743 l 131 685 l 89 761 l 89 767 q 218 867 139 831 q 386 903 297 903 q 561 846 497 903 q 625 690 625 789 q 469 483 625 546 l 950 483 l 950 806 l 736 806 l 736 886 l 1286 886 m 633 -296 q 447 -264 528 -296 q 323 -175 367 -232 q 279 -46 279 -118 l 389 -46 q 453 -161 389 -118 q 633 -204 518 -204 q 813 -161 749 -204 q 878 -46 878 -118 l 988 -46 q 944 -175 988 -118 q 819 -264 900 -232 q 633 -296 739 -296 z "},"ॷ":{"ha":1256,"x_min":36,"x_max":1286,"o":"m 1286 886 l 1286 806 l 1072 806 l 1072 0 l 950 0 l 950 401 l 575 401 q 631 249 631 332 q 599 136 631 186 q 510 57 567 86 q 383 28 454 28 q 185 90 278 28 q 36 260 93 153 l 36 265 l 85 326 l 90 326 q 222 183 156 229 q 361 136 289 136 q 477 177 433 136 q 521 283 521 218 q 495 372 521 333 q 427 433 469 411 q 336 454 385 454 l 288 454 l 288 536 l 328 536 q 422 558 379 536 q 489 618 464 581 q 514 700 514 656 q 478 778 514 751 q 379 806 443 806 q 248 774 311 806 q 136 685 185 743 l 131 685 l 89 761 l 89 767 q 218 867 139 831 q 386 903 297 903 q 561 846 497 903 q 625 690 625 789 q 469 483 625 546 l 950 483 l 950 806 l 736 806 l 736 886 l 1286 886 m 633 -296 q 447 -264 528 -296 q 323 -175 367 -232 q 279 -46 279 -118 l 389 -46 q 453 -161 389 -118 q 633 -204 518 -204 q 813 -161 749 -204 q 878 -46 878 -118 l 988 -46 q 944 -175 988 -118 q 819 -264 900 -232 q 633 -296 739 -296 m 633 -564 q 447 -532 528 -564 q 323 -443 367 -500 q 279 -314 279 -386 l 389 -314 q 453 -429 389 -386 q 633 -472 518 -472 q 813 -429 749 -472 q 878 -314 878 -386 l 988 -314 q 944 -443 988 -386 q 819 -532 900 -500 q 633 -564 739 -564 z "},"ा":{"ha":489,"x_min":-31,"x_max":519,"o":"m 183 806 l -31 806 l -31 886 l 519 886 l 519 806 l 306 806 l 306 0 l 183 0 l 183 806 z "},"ि":{"ha":489,"x_min":-31,"x_max":1215,"o":"m -31 806 l -31 886 l 182 886 q 142 1040 142 951 q 220 1225 142 1161 q 451 1289 299 1289 q 725 1238 599 1289 q 960 1103 851 1188 q 1215 882 1069 1019 l 1106 882 q 871 1056 961 994 q 680 1158 781 1118 q 472 1197 579 1197 q 253 1026 253 1197 q 290 886 253 960 l 519 886 l 519 806 l 306 806 l 306 0 l 183 0 l 183 806 l -31 806 z "},"ी":{"ha":489,"x_min":-350,"x_max":519,"o":"m -31 806 l -31 886 l 182 886 q 58 1114 131 1036 q -104 1192 -15 1192 q -208 1148 -168 1192 q -247 1035 -247 1104 q -208 872 -247 972 l -310 872 q -350 1036 -350 953 q -319 1167 -350 1110 q -231 1257 -287 1225 q -103 1289 -175 1289 q 299 886 146 1289 l 519 886 l 519 806 l 306 806 l 306 0 l 183 0 l 183 806 l -31 806 z "},"ॉ":{"ha":489,"x_min":-61,"x_max":550,"o":"m 183 806 l -31 806 l -31 886 l 519 886 l 519 806 l 306 806 l 306 0 l 183 0 l 183 806 m 244 953 q 92 983 161 953 q -19 1067 22 1013 q -61 1194 -61 1122 l 46 1194 q 102 1089 46 1132 q 244 1046 158 1046 q 387 1088 331 1046 q 443 1194 443 1131 l 550 1194 q 509 1067 550 1122 q 399 983 468 1013 q 244 953 329 953 z "},"ॊ":{"ha":489,"x_min":-254,"x_max":519,"o":"m -31 806 l -31 886 l 189 886 q 152 1024 189 979 q 26 1078 115 1069 q -137 1110 -76 1088 q -226 1174 -197 1132 q -254 1289 -254 1217 l -160 1289 q -140 1219 -160 1243 q -72 1181 -121 1194 q 76 1157 -24 1168 q 243 1067 190 1144 q 296 886 296 990 l 519 886 l 519 806 l 306 806 l 306 0 l 183 0 l 183 806 l -31 806 z "},"ो":{"ha":489,"x_min":-78,"x_max":519,"o":"m -31 806 l -31 886 l 181 886 l -78 1226 l -78 1232 l 22 1289 l 28 1289 l 282 886 l 519 886 l 519 806 l 306 806 l 306 0 l 183 0 l 183 806 l -31 806 z "},"ौ":{"ha":489,"x_min":-243,"x_max":519,"o":"m -31 806 l -31 886 l 138 886 l -243 1121 l -243 1126 l -153 1213 l -147 1213 l 192 931 l 197 931 l 124 1253 l 124 1258 l 242 1289 l 247 1289 l 303 886 l 519 886 l 519 806 l 306 806 l 306 0 l 183 0 l 183 806 l -31 806 z "},"ॎ":{"ha":489,"x_min":183,"x_max":519,"o":"m 183 886 l 519 886 l 519 806 l 306 806 l 306 0 l 183 0 l 183 886 z "},"ऻ":{"ha":489,"x_min":-31,"x_max":519,"o":"m 183 806 l -31 806 l -31 886 l 183 886 l 183 1128 l 306 1128 l 306 886 l 519 886 l 519 806 l 306 806 l 306 0 l 183 0 l 183 806 z "},"ॏ":{"ha":489,"x_min":-329,"x_max":519,"o":"m 519 886 l 519 806 l 306 806 l 306 0 l 183 0 l 183 806 l -31 806 l -31 886 l 142 886 q 78 942 125 926 q -68 967 32 957 q -224 999 -168 978 q -304 1063 -279 1021 q -329 1178 -329 1106 l -235 1178 q -212 1103 -235 1128 q -149 1068 -190 1078 q -18 1047 -108 1058 q 110 1023 53 1039 q 208 968 168 1007 q 192 1067 208 1033 q 150 1113 176 1100 q 79 1131 124 1125 q -48 1153 -8 1142 q -108 1196 -87 1165 q -129 1289 -129 1226 l -32 1289 q -19 1243 -32 1257 q 28 1224 -6 1229 q 142 1211 61 1218 q 274 1140 240 1203 q 307 983 307 1078 l 307 886 l 519 886 z "},"क":{"ha":1222,"x_min":-31,"x_max":1253,"o":"m 672 806 l 672 528 q 777 630 719 594 q 896 665 835 665 q 1013 628 958 665 q 1100 526 1068 590 q 1132 389 1132 463 q 1099 259 1132 319 q 986 115 1065 199 l 899 183 q 993 295 967 247 q 1019 401 1019 343 q 988 516 1019 474 q 900 558 956 558 q 783 512 843 558 q 672 382 724 465 l 672 0 l 550 0 l 550 258 q 444 155 501 190 q 326 119 386 119 q 209 158 264 119 q 122 260 154 196 q 90 399 90 324 q 122 533 90 472 q 210 628 154 593 q 333 663 265 663 q 431 639 383 663 l 431 536 q 339 557 375 557 q 239 513 275 557 q 203 388 203 468 q 234 269 203 311 q 321 226 265 226 q 438 272 379 226 q 550 404 497 318 l 550 806 l -31 806 l -31 886 l 1253 886 l 1253 806 l 672 806 z "},"ख":{"ha":1440,"x_min":-31,"x_max":1471,"o":"m 1471 806 l 1257 806 l 1257 0 l 1135 0 l 1135 122 q 944 21 1049 57 q 746 -15 840 -15 q 519 37 635 -15 q 307 174 404 89 q 149 358 210 260 q 93 496 93 447 q 117 561 93 532 q 175 590 140 590 l 263 451 q 371 516 331 467 q 411 635 411 565 q 394 717 411 678 q 339 806 378 757 l -31 806 l -31 886 l 1471 886 l 1471 806 m 756 75 q 938 115 849 75 q 1135 240 1028 154 l 1135 369 q 1018 303 1081 326 q 894 281 956 281 q 772 310 828 281 q 684 391 717 340 q 651 501 651 442 q 683 610 651 561 q 771 689 715 660 q 893 718 826 718 q 1010 696 951 718 l 1010 603 q 918 624 967 624 q 798 589 842 624 q 754 493 754 554 q 790 406 754 439 q 886 374 826 374 q 1008 406 946 374 q 1129 500 1071 439 l 1135 483 l 1135 806 l 444 806 q 500 722 481 769 q 519 624 519 675 q 487 499 519 556 q 397 406 454 442 q 271 363 340 369 q 486 157 353 239 q 756 75 619 75 z "},"ग":{"ha":975,"x_min":-31,"x_max":1006,"o":"m 1006 806 l 792 806 l 792 0 l 669 0 l 669 806 l 397 806 l 397 290 q 359 262 388 275 q 306 246 331 249 l 92 365 l 92 436 l 288 436 l 288 806 l -31 806 l -31 886 l 1006 886 l 1006 806 z "},"घ":{"ha":1040,"x_min":-31,"x_max":1071,"o":"m 1071 806 l 857 806 l 857 0 l 735 0 l 735 232 q 562 115 653 154 q 374 75 471 75 q 228 103 292 75 q 128 180 164 131 q 92 292 92 229 q 135 416 92 361 q 256 499 178 471 q 135 567 178 521 q 92 675 92 613 q 111 749 92 715 q 165 806 131 783 l -31 806 l -31 886 l 1071 886 l 1071 806 m 371 169 q 544 217 458 169 q 735 371 631 265 l 735 806 l 343 806 q 244 772 282 806 q 207 686 207 739 q 261 584 207 621 q 408 547 315 547 l 489 547 l 489 465 l 414 465 q 309 441 358 465 q 231 376 260 417 q 201 289 201 335 q 247 201 201 233 q 371 169 293 169 z "},"ङ":{"ha":978,"x_min":-31,"x_max":1008,"o":"m 1008 806 l 642 806 l 642 571 l 276 571 q 226 550 246 571 q 206 497 206 529 q 260 381 206 422 q 313 392 283 385 q 354 401 342 399 q 442 422 406 415 q 518 428 478 428 q 674 370 613 428 q 735 221 735 313 q 652 55 735 115 q 446 -6 569 -6 q 258 32 342 -6 q 83 143 174 69 l 119 217 q 274 117 200 151 q 436 83 349 83 q 573 119 518 83 q 628 222 628 156 q 589 301 628 272 q 493 331 550 331 q 406 325 447 331 q 306 307 365 319 l 244 296 q 93 525 93 385 q 127 622 93 583 q 215 660 161 660 l 519 660 l 519 806 l -31 806 l -31 886 l 1008 886 l 1008 806 m 856 578 q 912 542 885 569 q 947 483 939 515 q 912 424 939 451 q 856 389 885 397 q 799 424 826 397 q 764 483 772 451 q 799 542 772 515 q 856 578 826 569 z "},"च":{"ha":1064,"x_min":-31,"x_max":1094,"o":"m 1094 806 l 881 806 l 881 0 l 758 0 l 758 246 q 620 144 696 179 q 463 110 544 110 q 340 140 396 110 q 251 224 283 171 q 218 339 218 276 q 253 456 218 401 q 350 550 288 510 l 61 550 l 61 644 l 611 644 l 611 550 l 515 550 q 373 450 425 510 q 321 325 321 390 q 356 233 321 269 q 447 197 392 197 q 600 245 521 197 q 750 381 679 293 l 758 360 l 758 806 l -31 806 l -31 886 l 1094 886 l 1094 806 z "},"छ":{"ha":1069,"x_min":-31,"x_max":1100,"o":"m 886 806 l 886 585 q 978 400 978 518 q 913 215 978 299 q 733 84 847 132 q 481 36 619 36 q 281 67 369 36 q 141 153 192 99 q 90 275 90 207 q 136 397 90 340 q 260 482 182 453 q 135 553 179 506 q 92 667 92 600 q 112 747 92 711 q 168 806 132 782 l -31 806 l -31 886 l 1100 886 l 1100 806 l 886 806 m 636 649 q 764 636 707 649 l 764 806 l 343 806 q 244 770 282 806 q 207 678 207 735 q 260 570 207 610 q 408 531 314 531 l 461 531 l 461 449 l 414 449 q 314 424 363 449 q 234 359 265 399 q 203 279 203 319 q 279 173 203 214 q 476 132 356 132 q 672 167 583 132 q 813 261 761 201 q 864 393 864 321 q 803 509 864 469 q 622 549 743 549 l 594 549 l 594 649 l 636 649 z "},"ज":{"ha":1131,"x_min":-31,"x_max":1161,"o":"m 1161 806 l 947 806 l 947 0 l 825 0 l 825 528 l 515 528 q 642 322 642 454 q 610 206 642 257 q 524 125 579 154 q 399 96 468 96 q 201 169 290 96 q 54 381 113 243 l 101 431 q 228 252 164 308 q 367 196 292 196 q 485 238 438 196 q 532 344 532 281 q 485 462 532 408 q 368 533 439 515 l 336 536 l 336 631 l 825 631 l 825 806 l -31 806 l -31 886 l 1161 886 l 1161 806 z "},"झ":{"ha":1344,"x_min":-31,"x_max":1375,"o":"m 1375 806 l 1161 806 l 1161 0 l 1039 0 l 1039 451 q 899 349 976 388 q 728 290 822 310 q 735 232 735 260 q 660 90 735 136 q 471 43 585 43 q 324 61 403 43 q 492 -68 399 -3 q 665 -171 586 -133 l 576 -244 q 390 -99 492 -193 q 225 65 288 -6 l 104 97 q 75 182 75 136 q 81 214 75 201 l 178 267 l 247 157 q 335 133 286 142 q 435 124 385 124 q 573 151 518 124 q 628 233 628 178 q 589 313 628 283 q 493 342 550 342 q 388 337 432 342 q 272 318 344 332 q 185 381 226 338 q 117 475 143 424 q 92 569 92 526 q 121 643 92 615 q 210 671 150 671 l 519 671 l 519 806 l -31 806 l -31 886 l 1375 886 l 1375 806 m 688 365 q 898 459 799 392 q 1039 617 997 526 l 1039 806 l 642 806 l 642 582 l 271 582 q 204 531 204 582 q 228 463 204 500 q 279 403 251 426 q 357 418 313 407 q 442 434 410 429 q 518 439 475 439 q 615 419 571 439 q 688 365 658 400 z "},"ञ":{"ha":1097,"x_min":-31,"x_max":1128,"o":"m 1128 806 l 914 806 l 914 0 l 792 0 l 792 401 q 592 358 707 361 q 506 207 575 265 q 339 149 436 149 q 213 170 272 149 q 92 233 153 192 l 104 313 q 217 260 169 278 q 318 242 265 242 q 434 297 390 242 q 478 433 478 353 q 453 519 478 483 q 386 554 429 554 q 192 526 279 554 l 160 621 q 351 653 246 653 q 515 594 447 653 q 593 443 582 535 q 792 507 708 453 l 792 806 l -31 806 l -31 886 l 1128 886 l 1128 806 z "},"ट":{"ha":794,"x_min":-31,"x_max":825,"o":"m 389 26 q 235 69 303 26 q 130 185 168 111 q 92 349 92 258 q 119 478 92 419 q 196 572 146 538 q 311 606 246 606 l 458 606 l 458 806 l -31 806 l -31 886 l 825 886 l 825 806 l 581 806 l 581 517 l 360 517 q 248 464 290 517 q 206 333 206 411 q 244 183 206 244 q 354 121 283 121 q 515 151 440 121 q 685 242 590 182 l 729 146 q 548 56 621 85 q 389 26 475 26 z "},"ठ":{"ha":825,"x_min":-31,"x_max":856,"o":"m 581 806 l 581 567 q 692 460 651 529 q 733 304 733 390 q 693 157 733 222 q 583 55 653 92 q 426 18 513 18 q 256 60 332 18 q 135 176 179 101 q 92 342 92 250 q 119 474 92 414 q 196 570 146 535 q 311 606 246 606 l 458 606 l 458 806 l -31 806 l -31 886 l 856 886 l 856 806 l 581 806 m 406 111 q 519 138 468 111 q 601 213 571 165 q 631 321 631 260 q 604 434 631 382 q 531 517 578 486 l 329 517 q 234 469 269 517 q 199 353 199 422 q 224 231 199 286 q 297 143 250 175 q 406 111 344 111 z "},"ड":{"ha":825,"x_min":-31,"x_max":856,"o":"m 446 -6 q 258 32 342 -6 q 83 143 174 69 l 119 217 q 274 117 200 151 q 436 83 349 83 q 573 119 518 83 q 628 222 628 156 q 589 301 628 272 q 493 331 550 331 q 406 325 447 331 q 306 307 365 319 l 244 296 q 93 525 93 385 q 127 622 93 583 q 215 660 161 660 l 519 660 l 519 806 l -31 806 l -31 886 l 856 886 l 856 806 l 642 806 l 642 571 l 276 571 q 226 550 246 571 q 206 497 206 529 q 260 381 206 422 q 313 392 283 385 q 354 401 342 399 q 442 422 406 415 q 518 428 478 428 q 674 370 613 428 q 735 221 735 313 q 652 55 735 115 q 446 -6 569 -6 z "},"ढ":{"ha":825,"x_min":-31,"x_max":856,"o":"m 431 24 q 256 64 333 24 q 135 176 179 104 q 92 342 92 249 q 151 530 92 454 q 311 606 211 606 l 458 606 l 458 806 l -31 806 l -31 886 l 856 886 l 856 806 l 581 806 l 581 517 l 342 517 q 238 471 278 517 q 199 354 199 425 q 227 232 199 286 q 307 147 256 178 q 424 117 358 117 q 568 145 511 117 q 625 238 625 174 q 604 278 625 264 q 551 293 583 293 q 428 264 489 293 l 428 369 q 558 396 499 396 q 683 353 633 396 q 733 240 733 310 q 647 80 733 136 q 431 24 560 24 z "},"ण":{"ha":1242,"x_min":-31,"x_max":1272,"o":"m 1272 806 l 1058 806 l 1058 0 l 936 0 l 936 806 l 703 806 l 703 419 q 667 300 703 353 q 569 217 631 247 q 435 188 507 188 q 251 261 319 188 q 183 464 183 335 l 183 806 l -31 806 l -31 886 l 1272 886 l 1272 806 m 581 806 l 306 806 l 306 453 q 317 353 306 388 q 350 304 328 318 q 411 290 372 290 q 533 331 486 290 q 581 442 581 371 l 581 806 z "},"त":{"ha":931,"x_min":-31,"x_max":961,"o":"m 961 806 l 747 806 l 747 0 l 625 0 l 625 528 l 342 528 q 247 502 281 528 q 214 414 214 476 q 353 54 214 286 l 265 0 q 101 425 101 271 q 163 577 101 524 q 338 631 224 631 l 625 631 l 625 806 l -31 806 l -31 886 l 961 886 l 961 806 z "},"थ":{"ha":961,"x_min":-31,"x_max":992,"o":"m 992 806 l 778 806 l 778 0 l 656 0 l 656 242 q 522 192 582 207 q 396 176 463 176 q 178 263 258 176 q 90 503 97 349 q 253 543 203 507 q 303 661 303 579 q 264 770 303 735 q 144 806 225 806 l -31 806 l -31 886 l 178 886 q 355 827 292 886 q 418 661 418 768 q 360 494 418 558 q 199 421 301 431 q 392 283 235 283 q 527 307 464 283 q 656 378 590 331 l 656 806 l 539 806 l 539 886 l 992 886 l 992 806 z "},"द":{"ha":794,"x_min":-31,"x_max":825,"o":"m 364 571 q 247 517 288 571 q 206 374 206 463 q 235 208 206 268 q 338 149 264 149 q 453 164 401 149 q 563 210 506 179 l 521 328 l 618 382 q 668 329 649 354 q 703 269 688 304 l 665 151 q 726 26 699 76 q 794 -78 753 -24 l 683 -110 q 597 111 647 -31 q 500 67 544 82 q 401 53 456 53 q 174 144 257 53 q 92 389 92 236 q 157 585 92 511 q 338 660 222 660 l 458 660 l 458 806 l -31 806 l -31 886 l 825 886 l 825 806 l 581 806 l 581 571 l 364 571 z "},"ध":{"ha":1028,"x_min":-31,"x_max":1058,"o":"m 1058 806 l 844 806 l 844 0 l 722 0 l 722 200 q 374 75 560 75 q 228 103 292 75 q 128 180 164 131 q 92 292 92 229 q 135 416 92 361 q 256 499 178 471 q 135 567 178 521 q 92 675 92 613 q 111 749 92 715 q 165 806 131 783 l -31 806 l -31 886 l 367 886 l 367 806 l 343 806 q 244 772 282 806 q 207 686 207 739 q 261 584 207 621 q 408 547 315 547 l 489 547 l 489 465 l 414 465 q 309 441 358 465 q 231 376 260 417 q 201 289 201 335 q 247 201 201 233 q 371 169 293 169 q 541 208 457 169 q 722 331 625 246 l 722 806 l 606 806 l 606 886 l 1058 886 l 1058 806 z "},"न":{"ha":961,"x_min":-31,"x_max":992,"o":"m 992 806 l 778 806 l 778 0 l 656 0 l 656 465 l 289 465 l 289 257 l 218 257 l 99 471 q 115 524 101 496 q 143 563 128 553 l 656 563 l 656 806 l -31 806 l -31 886 l 992 886 l 992 806 z "},"ऩ":{"ha":961,"x_min":-31,"x_max":992,"o":"m 992 806 l 778 806 l 778 0 l 656 0 l 656 465 l 289 465 l 289 257 l 218 257 l 99 471 q 115 524 101 496 q 143 563 128 553 l 656 563 l 656 806 l -31 806 l -31 886 l 992 886 l 992 806 m 233 158 q 290 123 263 150 q 325 64 317 96 q 290 5 317 32 q 233 -31 263 -22 q 177 5 204 -22 q 142 64 150 32 q 177 123 150 96 q 233 158 204 150 z "},"प":{"ha":989,"x_min":-31,"x_max":1019,"o":"m 1019 806 l 806 806 l 806 0 l 683 0 l 683 325 q 548 247 619 275 q 414 218 476 218 q 293 254 346 218 q 212 355 240 290 q 183 503 183 419 l 183 806 l -31 806 l -31 886 l 1019 886 l 1019 806 m 408 329 q 544 369 472 329 q 683 479 615 408 l 683 806 l 306 806 l 306 492 q 315 392 306 426 q 347 343 325 357 q 408 329 368 329 z "},"फ":{"ha":1314,"x_min":-31,"x_max":1344,"o":"m 764 806 l 764 528 q 869 630 811 594 q 988 665 926 665 q 1105 628 1050 665 q 1192 526 1160 590 q 1224 389 1224 463 q 1190 259 1224 319 q 1078 115 1157 199 l 990 183 q 1085 295 1058 247 q 1111 401 1111 343 q 1079 516 1111 474 q 992 558 1047 558 q 875 512 935 558 q 764 382 815 465 l 764 0 l 642 0 l 642 322 q 526 251 586 276 q 414 226 467 226 q 247 302 310 226 q 183 503 183 378 l 183 806 l -31 806 l -31 886 l 1344 886 l 1344 806 l 764 806 m 408 329 q 523 363 463 329 q 642 458 583 396 l 642 806 l 306 806 l 306 492 q 315 392 306 426 q 347 343 325 357 q 408 329 368 329 z "},"ब":{"ha":947,"x_min":-31,"x_max":978,"o":"m 978 806 l 764 806 l 764 0 l 642 0 l 642 267 q 506 158 581 196 q 356 119 432 119 q 224 157 285 119 q 126 259 163 194 q 90 397 90 324 q 126 532 90 471 q 226 628 163 593 q 369 663 290 663 q 476 643 426 663 l 476 550 q 382 565 429 565 q 303 551 336 565 l 572 335 q 642 417 608 371 l 642 806 l -31 806 l -31 886 l 978 886 l 978 806 m 350 218 q 514 282 429 218 l 240 507 q 203 389 203 464 q 243 265 203 313 q 350 218 283 218 z "},"भ":{"ha":940,"x_min":-31,"x_max":971,"o":"m 971 806 l 757 806 l 757 0 l 635 0 l 635 325 l 336 325 l 336 146 l 265 146 l 100 331 q 117 384 103 356 q 144 422 131 413 l 231 422 l 231 714 q 225 773 231 754 q 206 799 219 792 q 161 806 192 806 l -31 806 l -31 886 l 208 886 q 305 849 274 886 q 336 736 336 813 l 336 422 l 635 422 l 635 806 l 518 806 l 518 886 l 971 886 l 971 806 z "},"म":{"ha":1006,"x_min":-31,"x_max":1036,"o":"m 1036 806 l 822 806 l 822 0 l 700 0 l 700 325 l 336 325 l 336 143 l 265 143 l 100 331 q 116 384 103 356 q 144 422 129 413 l 231 422 l 231 806 l -31 806 l -31 886 l 1036 886 l 1036 806 m 700 422 l 700 806 l 336 806 l 336 422 l 700 422 z "},"य":{"ha":919,"x_min":-31,"x_max":950,"o":"m 950 806 l 736 806 l 736 0 l 614 0 l 614 260 q 501 205 554 222 q 392 188 447 188 q 178 274 260 188 q 90 508 97 360 q 253 542 200 511 q 306 635 306 574 q 283 722 306 678 q 221 806 261 767 l -31 806 l -31 886 l 950 886 l 950 806 m 388 294 q 504 320 446 294 q 614 394 563 346 l 614 806 l 349 806 q 400 712 379 765 q 421 614 421 658 q 359 491 421 542 q 199 432 297 440 q 254 335 199 375 q 388 294 310 294 z "},"र":{"ha":642,"x_min":-31,"x_max":672,"o":"m 672 806 l 475 806 q 531 723 511 769 q 550 625 550 676 q 515 500 550 557 q 417 407 479 443 q 276 363 354 371 l 543 64 l 454 -10 l 153 363 q 106 430 121 401 q 92 486 92 458 q 117 560 92 531 q 181 590 143 590 l 268 450 q 396 515 350 467 q 442 640 442 564 q 424 726 442 686 q 369 806 406 765 l -31 806 l -31 886 l 672 886 l 672 806 z "},"ऱ":{"ha":642,"x_min":-31,"x_max":672,"o":"m 672 806 l 475 806 q 531 723 511 769 q 550 625 550 676 q 515 500 550 557 q 417 407 479 443 q 276 363 354 371 l 543 64 l 454 -10 l 153 363 q 106 430 121 401 q 92 486 92 458 q 117 560 92 531 q 181 590 143 590 l 268 450 q 396 515 350 467 q 442 640 442 564 q 424 726 442 686 q 369 806 406 765 l -31 806 l -31 886 l 672 886 l 672 806 m 138 172 q 194 137 167 164 q 229 78 221 110 q 194 19 221 46 q 138 -17 167 -8 q 81 19 108 -8 q 46 78 54 46 q 81 137 54 110 q 138 172 108 164 z "},"ल":{"ha":1103,"x_min":-31,"x_max":1133,"o":"m 1133 806 l 919 806 l 919 0 l 797 0 l 797 474 q 736 499 760 492 q 686 506 713 506 q 609 483 636 506 q 571 409 582 461 q 560 261 560 357 l 560 200 l 453 200 l 453 271 q 464 407 453 344 q 379 485 419 460 q 297 510 339 510 q 201 375 201 510 q 233 223 201 300 q 333 47 264 146 l 261 0 q 129 217 168 128 q 90 394 90 307 q 141 558 90 501 q 289 615 192 615 q 390 590 346 615 q 492 499 435 565 q 661 601 543 601 q 724 593 693 601 q 797 567 756 585 l 797 806 l -31 806 l -31 886 l 1133 886 l 1133 806 z "},"ळ":{"ha":1100,"x_min":-31,"x_max":1131,"o":"m 825 806 l 825 635 q 961 549 914 615 q 1008 375 1008 483 q 976 221 1008 288 q 883 117 943 154 q 747 81 824 81 q 641 101 692 81 q 536 168 590 122 q 349 81 472 81 q 162 160 232 81 q 92 369 92 239 q 163 570 92 496 q 354 644 233 644 q 561 560 475 644 q 703 639 608 626 l 703 806 l -31 806 l -31 886 l 1131 886 l 1131 806 l 825 806 m 518 460 l 526 489 q 449 536 493 518 q 365 554 406 554 q 247 494 292 554 q 203 335 203 435 q 235 213 203 253 q 336 174 268 174 q 430 205 394 174 q 482 306 465 236 l 518 460 m 897 401 q 867 516 897 481 q 769 551 838 551 q 673 524 710 551 q 622 435 636 496 l 586 281 q 571 231 581 258 q 651 185 607 203 q 733 168 696 168 q 852 233 807 168 q 897 401 897 297 z "},"ऴ":{"ha":1100,"x_min":-31,"x_max":1131,"o":"m 825 806 l 825 635 q 961 549 914 615 q 1008 375 1008 483 q 976 221 1008 288 q 883 117 943 154 q 747 81 824 81 q 641 101 692 81 q 536 168 590 122 q 349 81 472 81 q 162 160 232 81 q 92 369 92 239 q 163 570 92 496 q 354 644 233 644 q 561 560 475 644 q 703 639 608 626 l 703 806 l -31 806 l -31 886 l 1131 886 l 1131 806 l 825 806 m 518 460 l 526 489 q 449 536 493 518 q 365 554 406 554 q 247 494 292 554 q 203 335 203 435 q 235 213 203 253 q 336 174 268 174 q 430 205 394 174 q 482 306 465 236 l 518 460 m 897 401 q 867 516 897 481 q 769 551 838 551 q 673 524 710 551 q 622 435 636 496 l 586 281 q 571 231 581 258 q 651 185 607 203 q 733 168 696 168 q 852 233 807 168 q 897 401 897 297 m 542 67 q 598 31 571 58 q 633 -28 625 4 q 598 -87 625 -60 q 542 -122 571 -114 q 485 -87 513 -114 q 450 -28 458 -60 q 485 31 458 4 q 542 67 513 58 z "},"व":{"ha":906,"x_min":-31,"x_max":936,"o":"m 936 806 l 722 806 l 722 0 l 600 0 l 600 250 q 483 153 546 186 q 356 119 421 119 q 224 157 285 119 q 126 258 163 194 q 90 396 90 322 q 127 531 90 469 q 227 627 164 592 q 365 663 290 663 q 476 640 424 663 l 476 536 q 381 557 428 557 q 250 511 297 557 q 203 386 203 465 q 243 268 203 313 q 349 224 283 224 q 477 267 413 224 q 600 393 542 311 l 600 806 l -31 806 l -31 886 l 936 886 l 936 806 z "},"श":{"ha":1168,"x_min":88,"x_max":1199,"o":"m 642 631 q 600 474 642 549 q 484 342 558 399 q 313 257 410 285 l 592 99 l 525 17 l 194 229 q 111 294 135 267 q 88 351 88 321 q 106 398 88 379 q 151 418 124 417 l 238 324 q 392 389 322 342 q 501 500 461 436 q 540 632 540 564 q 489 763 540 713 q 357 814 438 814 q 251 780 296 814 q 206 699 206 746 q 357 613 206 615 l 331 532 q 158 576 219 533 q 97 697 97 619 q 131 803 97 756 q 222 877 164 850 q 351 904 281 904 q 502 869 436 904 q 605 772 568 835 q 642 631 642 710 m 863 806 l 649 806 l 649 886 l 1199 886 l 1199 806 l 985 806 l 985 0 l 863 0 l 863 806 z "},"ष":{"ha":975,"x_min":-31,"x_max":1006,"o":"m 1006 806 l 792 806 l 792 0 l 669 0 l 669 314 q 540 244 607 269 q 414 218 474 218 q 293 254 346 218 q 212 355 240 290 q 183 503 183 419 l 183 806 l -31 806 l -31 886 l 1006 886 l 1006 806 m 335 806 l 669 463 l 669 806 l 335 806 m 408 324 q 610 408 500 324 l 300 726 l 300 492 q 324 360 300 397 q 408 324 349 324 z "},"स":{"ha":1086,"x_min":-31,"x_max":1117,"o":"m 1117 806 l 903 806 l 903 0 l 781 0 l 781 354 l 268 354 l 507 58 l 426 -10 l 153 363 q 93 490 93 443 q 119 547 93 524 q 181 571 144 571 l 249 447 q 336 513 306 461 q 367 643 367 564 q 339 806 367 719 l -31 806 l -31 886 l 1117 886 l 1117 806 m 781 442 l 781 806 l 439 806 q 461 720 453 767 q 469 629 469 674 q 453 526 469 574 q 407 442 436 478 l 781 442 z "},"ह":{"ha":825,"x_min":-31,"x_max":856,"o":"m 304 582 q 206 532 206 582 q 231 469 206 496 q 301 417 257 442 q 408 432 356 432 q 567 409 493 432 q 688 339 642 386 q 733 224 733 292 q 667 115 733 151 q 504 78 600 78 q 474 79 483 78 l 438 178 q 494 175 474 175 q 617 240 617 175 q 574 313 617 289 q 469 338 532 338 q 290 290 363 338 q 217 156 217 242 q 256 41 217 88 q 352 -35 294 -6 q 503 -100 410 -64 l 440 -158 q 189 -24 286 -104 q 92 174 92 56 q 122 288 92 236 q 207 375 153 339 q 123 458 154 410 q 92 565 92 507 q 128 640 92 610 q 214 671 164 671 l 519 671 l 519 806 l -31 806 l -31 886 l 856 886 l 856 806 l 642 806 l 642 582 l 304 582 z "},"क़":{"ha":1222,"x_min":-31,"x_max":1253,"o":"m 672 806 l 672 528 q 777 630 719 594 q 896 665 835 665 q 1013 628 958 665 q 1100 526 1068 590 q 1132 389 1132 463 q 1099 259 1132 319 q 986 115 1065 199 l 899 183 q 993 295 967 247 q 1019 401 1019 343 q 988 516 1019 474 q 900 558 956 558 q 783 512 843 558 q 672 382 724 465 l 672 0 l 550 0 l 550 258 q 444 155 501 190 q 326 119 386 119 q 209 158 264 119 q 122 260 154 196 q 90 399 90 324 q 122 533 90 472 q 210 628 154 593 q 333 663 265 663 q 431 639 383 663 l 431 536 q 339 557 375 557 q 239 513 275 557 q 203 388 203 468 q 234 269 203 311 q 321 226 265 226 q 438 272 379 226 q 550 404 497 318 l 550 806 l -31 806 l -31 886 l 1253 886 l 1253 806 l 672 806 m 172 94 q 228 59 201 86 q 264 0 256 32 q 228 -59 256 -32 q 172 -94 201 -86 q 116 -59 143 -86 q 81 0 89 -32 q 116 59 89 32 q 172 94 143 86 z "},"ख़":{"ha":1436,"x_min":-31,"x_max":1471,"o":"m 1471 806 l 1257 806 l 1257 0 l 1135 0 l 1135 122 q 944 21 1049 57 q 746 -15 840 -15 q 519 37 635 -15 q 307 174 404 89 q 149 358 210 260 q 93 496 93 447 q 117 561 93 532 q 175 590 140 590 l 263 451 q 371 516 331 467 q 411 635 411 565 q 394 717 411 678 q 339 806 378 757 l -31 806 l -31 886 l 1471 886 l 1471 806 m 756 75 q 938 115 849 75 q 1135 240 1028 154 l 1135 369 q 1018 303 1081 326 q 894 281 956 281 q 772 310 828 281 q 684 391 717 340 q 651 501 651 442 q 683 610 651 561 q 771 689 715 660 q 893 718 826 718 q 1010 696 951 718 l 1010 603 q 918 624 967 624 q 798 589 842 624 q 754 493 754 554 q 790 406 754 439 q 886 374 826 374 q 1008 406 946 374 q 1129 500 1071 439 l 1135 483 l 1135 806 l 444 806 q 500 722 481 769 q 519 624 519 675 q 487 499 519 556 q 397 406 454 442 q 271 363 340 369 q 486 157 353 239 q 756 75 619 75 m 183 94 q 240 59 213 86 q 275 0 267 32 q 240 -59 267 -32 q 183 -94 213 -86 q 127 -59 154 -86 q 92 0 100 -32 q 127 59 100 32 q 183 94 154 86 z "},"ग़":{"ha":978,"x_min":-31,"x_max":1006,"o":"m 1006 806 l 792 806 l 792 0 l 669 0 l 669 806 l 397 806 l 397 290 q 359 262 388 275 q 306 246 331 249 l 92 365 l 92 436 l 288 436 l 288 806 l -31 806 l -31 886 l 1006 886 l 1006 806 m 317 172 q 373 137 346 164 q 408 78 400 110 q 373 19 400 46 q 317 -17 346 -8 q 260 19 288 -8 q 225 78 233 46 q 260 137 233 110 q 317 172 288 164 z "},"ज़":{"ha":1131,"x_min":-31,"x_max":1161,"o":"m 1161 806 l 947 806 l 947 0 l 825 0 l 825 528 l 515 528 q 642 322 642 454 q 610 206 642 257 q 524 125 579 154 q 399 96 468 96 q 201 169 290 96 q 54 381 113 243 l 101 431 q 228 252 164 308 q 367 196 292 196 q 485 238 438 196 q 532 344 532 281 q 485 462 532 408 q 368 533 439 515 l 336 536 l 336 631 l 825 631 l 825 806 l -31 806 l -31 886 l 1161 886 l 1161 806 m 350 14 q 406 -22 379 6 q 442 -81 433 -49 q 406 -140 433 -112 q 350 -175 379 -167 q 294 -140 321 -167 q 258 -81 267 -112 q 294 -22 267 -49 q 350 14 321 6 z "},"ड़":{"ha":825,"x_min":-31,"x_max":856,"o":"m 446 -6 q 258 32 342 -6 q 83 143 174 69 l 119 217 q 274 117 200 151 q 436 83 349 83 q 573 119 518 83 q 628 222 628 156 q 589 301 628 272 q 493 331 550 331 q 406 325 447 331 q 306 307 365 319 l 244 296 q 93 525 93 385 q 127 622 93 583 q 215 660 161 660 l 519 660 l 519 806 l -31 806 l -31 886 l 856 886 l 856 806 l 642 806 l 642 571 l 276 571 q 226 550 246 571 q 206 497 206 529 q 260 381 206 422 q 313 392 283 385 q 354 401 342 399 q 442 422 406 415 q 518 428 478 428 q 674 370 613 428 q 735 221 735 313 q 652 55 735 115 q 446 -6 569 -6 m 428 -260 q 372 -224 399 -251 q 336 -165 344 -197 q 372 -106 344 -133 q 428 -71 399 -79 q 484 -106 457 -79 q 519 -165 511 -133 q 484 -224 511 -197 q 428 -260 457 -251 z "},"ढ़":{"ha":825,"x_min":-31,"x_max":856,"o":"m 431 24 q 256 64 333 24 q 135 176 179 104 q 92 342 92 249 q 151 530 92 454 q 311 606 211 606 l 458 606 l 458 806 l -31 806 l -31 886 l 856 886 l 856 806 l 581 806 l 581 517 l 342 517 q 238 471 278 517 q 199 354 199 425 q 227 232 199 286 q 307 147 256 178 q 424 117 358 117 q 568 145 511 117 q 625 238 625 174 q 604 278 625 264 q 551 293 583 293 q 428 264 489 293 l 428 369 q 558 396 499 396 q 683 353 633 396 q 733 240 733 310 q 647 80 733 136 q 431 24 560 24 m 428 -260 q 372 -224 399 -251 q 336 -165 344 -197 q 372 -106 344 -133 q 428 -71 399 -79 q 484 -106 457 -79 q 519 -165 511 -133 q 484 -224 511 -197 q 428 -260 457 -251 z "},"फ़":{"ha":1314,"x_min":-31,"x_max":1344,"o":"m 764 806 l 764 528 q 869 630 811 594 q 988 665 926 665 q 1105 628 1050 665 q 1192 526 1160 590 q 1224 389 1224 463 q 1190 259 1224 319 q 1078 115 1157 199 l 990 183 q 1085 295 1058 247 q 1111 401 1111 343 q 1079 516 1111 474 q 992 558 1047 558 q 875 512 935 558 q 764 382 815 465 l 764 0 l 642 0 l 642 322 q 526 251 586 276 q 414 226 467 226 q 247 302 310 226 q 183 503 183 378 l 183 806 l -31 806 l -31 886 l 1344 886 l 1344 806 l 764 806 m 408 329 q 523 363 463 329 q 642 458 583 396 l 642 806 l 306 806 l 306 492 q 315 392 306 426 q 347 343 325 357 q 408 329 368 329 m 397 94 q 453 59 426 86 q 489 0 481 32 q 453 -59 481 -32 q 397 -94 426 -86 q 341 -59 368 -86 q 306 0 314 -32 q 341 59 314 32 q 397 94 368 86 z "},"य़":{"ha":917,"x_min":-31,"x_max":950,"o":"m 950 806 l 736 806 l 736 0 l 614 0 l 614 260 q 501 205 554 222 q 392 188 447 188 q 178 274 260 188 q 90 508 97 360 q 253 542 200 511 q 306 635 306 574 q 283 722 306 678 q 221 806 261 767 l -31 806 l -31 886 l 950 886 l 950 806 m 388 294 q 504 320 446 294 q 614 394 563 346 l 614 806 l 349 806 q 400 712 379 765 q 421 614 421 658 q 359 491 421 542 q 199 432 297 440 q 254 335 199 375 q 388 294 310 294 m 183 96 q 240 60 213 88 q 275 1 267 33 q 240 -58 267 -31 q 183 -93 213 -85 q 127 -58 154 -85 q 92 1 100 -31 q 127 60 100 33 q 183 96 154 88 z "},"ॹ":{"ha":1131,"x_min":-31,"x_max":1161,"o":"m 1161 806 l 947 806 l 947 0 l 825 0 l 825 528 l 515 528 q 642 322 642 454 q 610 206 642 257 q 524 125 579 154 q 399 96 468 96 q 201 169 290 96 q 54 381 113 243 l 101 431 q 228 252 164 308 q 367 196 292 196 q 485 238 438 196 q 532 344 532 281 q 485 462 532 408 q 368 533 439 515 l 336 536 l 336 631 l 825 631 l 825 806 l -31 806 l -31 886 l 1161 886 l 1161 806 m 183 14 q 234 -18 210 6 q 265 -71 258 -42 q 234 -124 258 -100 q 183 -156 210 -147 q 133 -124 157 -147 q 101 -71 108 -100 q 133 -18 108 -42 q 183 14 157 6 m 611 14 q 662 -18 638 6 q 693 -71 686 -42 q 662 -124 686 -100 q 611 -156 638 -147 q 560 -124 585 -147 q 529 -71 536 -100 q 560 -18 536 -42 q 611 14 585 6 m 397 -181 q 448 -212 424 -189 q 479 -265 472 -236 q 448 -318 472 -294 q 397 -350 424 -342 q 347 -318 371 -342 q 315 -265 322 -294 q 347 -212 322 -236 q 397 -181 371 -189 z "},"ॺ":{"ha":917,"x_min":-31,"x_max":947,"o":"m 947 886 l 947 806 l 733 806 l 733 0 l 611 0 l 611 247 q 392 176 497 176 q 178 264 260 176 q 90 503 97 351 q 253 538 201 506 q 306 635 306 571 q 283 722 306 678 q 221 806 261 767 l -31 806 l -31 886 l 947 886 m 349 806 q 392 733 374 774 q 417 654 410 693 l 611 422 l 611 806 l 349 806 m 388 283 q 571 347 482 283 l 406 543 q 327 460 382 493 q 199 421 272 426 q 254 324 199 364 q 388 283 310 283 z "},"ॻ":{"ha":978,"x_min":-31,"x_max":1006,"o":"m 792 806 l 792 0 l 794 0 l 794 -81 l 89 -81 l 89 0 l 669 0 l 669 806 l 397 806 l 397 290 q 359 262 388 275 q 306 246 331 249 l 92 365 l 92 436 l 288 436 l 288 806 l -31 806 l -31 886 l 1006 886 l 1006 806 l 792 806 z "},"ॼ":{"ha":1131,"x_min":-31,"x_max":1161,"o":"m 1161 806 l 947 806 l 947 -81 l 61 -81 l 61 0 l 825 0 l 825 528 l 515 528 q 642 322 642 454 q 610 206 642 257 q 524 125 579 154 q 399 96 468 96 q 201 169 290 96 q 54 381 113 243 l 101 431 q 228 252 164 308 q 367 196 292 196 q 485 238 438 196 q 532 344 532 281 q 485 462 532 408 q 368 533 439 515 l 336 536 l 336 631 l 825 631 l 825 806 l -31 806 l -31 886 l 1161 886 l 1161 806 z "},"ॾ":{"ha":825,"x_min":-31,"x_max":856,"o":"m 446 -6 q 258 32 342 -6 q 83 143 174 69 l 119 217 q 274 117 200 151 q 436 83 349 83 q 573 119 518 83 q 628 222 628 156 q 589 301 628 272 q 493 331 550 331 q 406 325 447 331 q 306 307 365 319 l 244 296 q 93 525 93 385 q 127 622 93 583 q 215 660 161 660 l 519 660 l 519 806 l -31 806 l -31 886 l 856 886 l 856 806 l 642 806 l 642 571 l 276 571 q 226 550 246 571 q 206 497 206 529 q 260 381 206 422 q 313 392 283 385 q 354 401 342 399 q 442 422 406 415 q 518 428 478 428 q 674 370 613 428 q 735 221 735 313 q 652 55 735 115 q 446 -6 569 -6 m 61 -69 l 764 -69 l 764 -150 l 61 -150 l 61 -69 z "},"ॿ":{"ha":917,"x_min":-31,"x_max":978,"o":"m 978 806 l 764 806 l 764 0 l 763 0 l 763 -81 l 90 -81 l 90 0 l 642 0 l 642 267 q 506 158 581 196 q 356 119 432 119 q 224 157 285 119 q 126 259 163 194 q 90 397 90 324 q 126 532 90 471 q 226 628 163 593 q 369 663 290 663 q 476 643 426 663 l 476 550 q 382 565 429 565 q 303 551 336 565 l 572 335 q 642 417 608 371 l 642 806 l -31 806 l -31 886 l 978 886 l 978 806 m 350 218 q 514 282 429 218 l 240 507 q 203 389 203 464 q 243 265 203 313 q 350 218 283 218 z "},"ꣻ":{"ha":886,"x_min":61,"x_max":825,"o":"m 61 1075 l 825 1075 l 825 996 l 61 996 l 61 1075 z "},"⁄":{"ha":389,"x_min":-154,"x_max":543,"o":"m 543 967 l -32 0 l -154 0 l 421 967 l 543 967 z "},"½":{"ha":1525,"x_min":64,"x_max":1457,"o":"m 504 511 l 504 414 l 64 414 l 64 511 l 244 511 l 244 847 l 125 803 l 121 803 l 99 874 l 99 878 l 276 975 l 356 975 l 356 511 l 504 511 m 1111 967 l 536 0 l 414 0 l 989 967 l 1111 967 m 1457 89 l 1457 -8 l 1025 -8 l 1025 76 l 1028 78 l 1236 261 q 1306 337 1286 306 q 1325 396 1325 368 q 1213 467 1325 467 q 1044 421 1124 467 l 1044 522 q 1218 563 1125 563 q 1379 520 1319 563 q 1439 404 1439 478 q 1350 239 1439 321 l 1185 89 l 1457 89 z "},"⅓":{"ha":1525,"x_min":64,"x_max":1461,"o":"m 504 511 l 504 414 l 64 414 l 64 511 l 244 511 l 244 847 l 125 803 l 121 803 l 99 874 l 99 878 l 276 975 l 356 975 l 356 511 l 504 511 m 1111 967 l 536 0 l 414 0 l 989 967 l 1111 967 m 1365 286 q 1435 226 1410 263 q 1461 146 1461 189 q 1393 26 1461 71 q 1215 -18 1325 -18 q 1021 28 1113 -18 l 1021 136 l 1025 136 q 1211 78 1114 78 q 1310 97 1274 78 q 1346 151 1346 117 q 1304 213 1346 189 q 1193 238 1263 238 l 1154 238 l 1154 331 l 1193 331 q 1296 350 1258 331 q 1333 404 1333 369 q 1301 449 1333 433 q 1214 465 1269 465 q 1043 418 1136 465 l 1039 418 l 1039 522 q 1219 563 1125 563 q 1385 522 1324 563 q 1447 414 1447 482 q 1426 340 1447 374 q 1365 286 1404 307 z "},"⅔":{"ha":1525,"x_min":68,"x_max":1461,"o":"m 500 511 l 500 414 l 68 414 l 68 499 l 71 500 l 279 683 q 349 759 329 728 q 368 818 368 790 q 256 889 368 889 q 88 843 167 889 l 88 944 q 261 985 168 985 q 422 942 363 985 q 482 826 482 900 q 393 661 482 743 l 228 511 l 500 511 m 1111 967 l 536 0 l 414 0 l 989 967 l 1111 967 m 1365 286 q 1435 226 1410 263 q 1461 146 1461 189 q 1393 26 1461 71 q 1215 -18 1325 -18 q 1021 28 1113 -18 l 1021 136 l 1025 136 q 1211 78 1114 78 q 1310 97 1274 78 q 1346 151 1346 117 q 1304 213 1346 189 q 1193 238 1263 238 l 1154 238 l 1154 331 l 1193 331 q 1296 350 1258 331 q 1333 404 1333 369 q 1301 449 1333 433 q 1214 465 1269 465 q 1043 418 1136 465 l 1039 418 l 1039 522 q 1219 563 1125 563 q 1385 522 1324 563 q 1447 414 1447 482 q 1426 340 1447 374 q 1365 286 1404 307 z "},"¼":{"ha":1525,"x_min":64,"x_max":1489,"o":"m 504 511 l 504 414 l 64 414 l 64 511 l 244 511 l 244 847 l 125 803 l 121 803 l 99 874 l 99 878 l 276 975 l 356 975 l 356 511 l 504 511 m 1111 967 l 536 0 l 414 0 l 989 967 l 1111 967 m 1489 113 l 1399 113 l 1399 -8 l 1288 -8 l 1288 113 l 997 113 l 997 200 l 1288 553 l 1399 553 l 1399 207 l 1489 207 l 1489 113 m 1288 207 l 1288 418 l 1126 207 l 1288 207 z "},"¾":{"ha":1525,"x_min":64,"x_max":1489,"o":"m 408 708 q 478 648 453 685 q 504 568 504 611 q 436 449 504 493 q 258 404 368 404 q 64 450 156 404 l 64 558 l 68 558 q 254 500 161 500 q 353 519 317 500 q 389 574 389 539 q 347 635 389 611 q 236 660 306 660 l 197 660 l 197 753 l 236 753 q 339 772 301 753 q 376 826 376 792 q 344 872 376 856 q 257 888 313 888 q 86 840 179 888 l 82 840 l 82 944 q 263 985 168 985 q 428 944 367 985 q 490 836 490 904 q 469 763 490 796 q 408 708 447 729 m 1111 967 l 536 0 l 414 0 l 989 967 l 1111 967 m 1489 113 l 1399 113 l 1399 -8 l 1288 -8 l 1288 113 l 997 113 l 997 200 l 1288 553 l 1399 553 l 1399 207 l 1489 207 l 1489 113 m 1288 207 l 1288 418 l 1126 207 l 1288 207 z "},"⅛":{"ha":1526,"x_min":64,"x_max":1483,"o":"m 504 511 l 504 414 l 64 414 l 64 511 l 244 511 l 244 847 l 125 803 l 121 803 l 99 874 l 99 878 l 276 975 l 356 975 l 356 511 l 504 511 m 1111 967 l 536 0 l 414 0 l 989 967 l 1111 967 m 1243 -18 q 1068 28 1136 -18 q 1000 147 1000 74 q 1029 229 1000 193 q 1103 281 1058 265 q 1037 328 1061 293 q 1013 407 1013 364 q 1076 520 1013 478 q 1242 563 1140 563 q 1407 520 1343 563 q 1471 408 1471 478 q 1446 329 1471 365 q 1379 281 1421 293 q 1456 228 1428 265 q 1483 147 1483 192 q 1415 28 1483 75 q 1243 -18 1347 -18 m 1242 328 q 1328 346 1297 328 q 1358 399 1358 364 q 1328 451 1358 432 q 1242 469 1297 469 q 1156 451 1186 469 q 1125 399 1125 432 q 1155 346 1125 364 q 1242 328 1185 328 m 1242 75 q 1335 96 1303 75 q 1368 154 1368 117 q 1335 214 1368 193 q 1242 235 1303 235 q 1149 214 1182 235 q 1115 154 1115 193 q 1148 96 1115 117 q 1242 75 1181 75 z "},"⅜":{"ha":1526,"x_min":64,"x_max":1483,"o":"m 408 708 q 478 648 453 685 q 504 568 504 611 q 436 449 504 493 q 258 404 368 404 q 64 450 156 404 l 64 558 l 68 558 q 254 500 161 500 q 353 519 317 500 q 389 574 389 539 q 347 635 389 611 q 236 660 306 660 l 197 660 l 197 753 l 236 753 q 339 772 301 753 q 376 826 376 792 q 344 872 376 856 q 257 888 313 888 q 86 840 179 888 l 82 840 l 82 944 q 263 985 168 985 q 428 944 367 985 q 490 836 490 904 q 469 763 490 796 q 408 708 447 729 m 1111 967 l 536 0 l 414 0 l 989 967 l 1111 967 m 1243 -18 q 1068 28 1136 -18 q 1000 147 1000 74 q 1029 229 1000 193 q 1103 281 1058 265 q 1037 328 1061 293 q 1013 407 1013 364 q 1076 520 1013 478 q 1242 563 1140 563 q 1407 520 1343 563 q 1471 408 1471 478 q 1446 329 1471 365 q 1379 281 1421 293 q 1456 228 1428 265 q 1483 147 1483 192 q 1415 28 1483 75 q 1243 -18 1347 -18 m 1242 328 q 1328 346 1297 328 q 1358 399 1358 364 q 1328 451 1358 432 q 1242 469 1297 469 q 1156 451 1186 469 q 1125 399 1125 432 q 1155 346 1125 364 q 1242 328 1185 328 m 1242 75 q 1335 96 1303 75 q 1368 154 1368 117 q 1335 214 1368 193 q 1242 235 1303 235 q 1149 214 1182 235 q 1115 154 1115 193 q 1148 96 1115 117 q 1242 75 1181 75 z "},"⅝":{"ha":1526,"x_min":57,"x_max":1483,"o":"m 304 765 q 453 714 394 765 q 511 586 511 663 q 444 455 511 504 q 265 406 376 406 q 154 419 208 406 q 57 457 100 432 l 57 564 l 61 564 q 157 518 101 536 q 263 500 213 500 q 360 524 324 500 q 397 588 397 549 q 365 647 397 624 q 282 671 333 671 q 156 629 214 671 l 151 629 l 78 650 l 78 654 l 118 975 l 481 975 l 481 878 l 208 878 l 192 739 q 304 765 247 765 m 1111 967 l 536 0 l 414 0 l 989 967 l 1111 967 m 1243 -18 q 1068 28 1136 -18 q 1000 147 1000 74 q 1029 229 1000 193 q 1103 281 1058 265 q 1037 328 1061 293 q 1013 407 1013 364 q 1076 520 1013 478 q 1242 563 1140 563 q 1407 520 1343 563 q 1471 408 1471 478 q 1446 329 1471 365 q 1379 281 1421 293 q 1456 228 1428 265 q 1483 147 1483 192 q 1415 28 1483 75 q 1243 -18 1347 -18 m 1242 328 q 1328 346 1297 328 q 1358 399 1358 364 q 1328 451 1358 432 q 1242 469 1297 469 q 1156 451 1186 469 q 1125 399 1125 432 q 1155 346 1125 364 q 1242 328 1185 328 m 1242 75 q 1335 96 1303 75 q 1368 154 1368 117 q 1335 214 1368 193 q 1242 235 1303 235 q 1149 214 1182 235 q 1115 154 1115 193 q 1148 96 1115 117 q 1242 75 1181 75 z "},"⅞":{"ha":1528,"x_min":81,"x_max":1485,"o":"m 510 975 l 510 921 l 254 414 l 149 414 l 132 417 l 376 878 l 81 878 l 81 975 l 510 975 m 1113 967 l 538 0 l 415 0 l 990 967 l 1113 967 m 1244 -18 q 1069 28 1138 -18 q 1001 147 1001 74 q 1031 229 1001 193 q 1104 281 1060 265 q 1038 328 1063 293 q 1014 407 1014 364 q 1078 520 1014 478 q 1243 563 1142 563 q 1408 520 1344 563 q 1472 408 1472 478 q 1447 329 1472 365 q 1381 281 1422 293 q 1457 228 1429 265 q 1485 147 1485 192 q 1417 28 1485 75 q 1244 -18 1349 -18 m 1243 328 q 1329 346 1299 328 q 1360 399 1360 364 q 1329 451 1360 432 q 1243 469 1299 469 q 1157 451 1188 469 q 1126 399 1126 432 q 1156 346 1126 364 q 1243 328 1186 328 m 1243 75 q 1337 96 1304 75 q 1369 154 1369 117 q 1337 214 1369 193 q 1243 235 1304 235 q 1150 214 1183 235 q 1117 154 1117 193 q 1149 96 1117 117 q 1243 75 1182 75 z "},"⁰":{"ha":569,"x_min":38,"x_max":532,"o":"m 285 543 q 98 623 158 543 q 38 833 38 703 q 98 1044 38 964 q 285 1124 158 1124 q 472 1044 411 1124 q 532 833 532 964 q 472 623 532 703 q 285 543 411 543 m 285 638 q 414 833 414 638 q 285 1029 414 1029 q 156 833 156 1029 q 285 638 156 638 z "},"¹":{"ha":568,"x_min":64,"x_max":504,"o":"m 504 650 l 504 553 l 64 553 l 64 650 l 244 650 l 244 986 l 125 942 l 121 942 l 99 1013 l 99 1017 l 276 1114 l 356 1114 l 356 650 l 504 650 z "},"²":{"ha":568,"x_min":68,"x_max":500,"o":"m 500 650 l 500 553 l 68 553 l 68 638 l 71 639 l 279 822 q 349 898 329 867 q 368 957 368 929 q 256 1028 368 1028 q 88 982 167 1028 l 88 1083 q 261 1124 168 1124 q 422 1081 363 1124 q 482 965 482 1039 q 393 800 482 882 l 228 650 l 500 650 z "},"³":{"ha":568,"x_min":64,"x_max":504,"o":"m 408 847 q 478 787 453 824 q 504 707 504 750 q 436 588 504 632 q 258 543 368 543 q 64 589 156 543 l 64 697 l 68 697 q 254 639 161 639 q 353 658 317 639 q 389 713 389 678 q 347 774 389 750 q 236 799 306 799 l 197 799 l 197 892 l 236 892 q 339 911 301 892 q 376 965 376 931 q 344 1010 376 994 q 257 1026 313 1026 q 86 979 179 1026 l 82 979 l 82 1083 q 263 1124 168 1124 q 428 1083 367 1124 q 490 975 490 1043 q 469 901 490 935 q 408 847 447 868 z "},"⁴":{"ha":568,"x_min":40,"x_max":532,"o":"m 532 674 l 442 674 l 442 553 l 331 553 l 331 674 l 40 674 l 40 761 l 331 1114 l 442 1114 l 442 768 l 532 768 l 532 674 m 331 768 l 331 979 l 169 768 l 331 768 z "}}}
